<?xml version="1.0" standalone="no"?>
<!DOCTYPE svg PUBLIC "-//W3C//DTD SVG 1.1//EN" "http://www.w3.org/Graphics/SVG/1.1/DTD/svg11.dtd" >
<svg>
<metadata>
Created by FontForge 20120731 at Sat Jul  6 16:37:12 2019
 By www
Copyright (c) 2013 R2005, All Rights Reserved 
</metadata>
<defs>
<font id="Arabic-font-2013" horiz-adv-x="991" >
  <font-face 
    font-family="Arabic-font-2013"
    font-weight="400"
    font-stretch="normal"
    units-per-em="2048"
    panose-1="2 0 0 0 0 0 0 0 0 0"
    ascent="1638"
    descent="-410"
    x-height="1097"
    cap-height="1429"
    bbox="-279 -840 4959 3056"
    underline-thickness="100"
    underline-position="-700"
    unicode-range="U+0020-FEFF"
  />
<missing-glyph horiz-adv-x="582" 
d="M5 1257h485v-1107h-485v1107zM76 1186v-966h343v966h-343z" />
    <glyph glyph-name=".notdef" unicode="&#x640;&#x651;&#x650;" horiz-adv-x="582" 
d="M5 1257h485v-1107h-485v1107zM76 1186v-966h343v966h-343z" />
    <glyph glyph-name="shaddawithfathatanisolated" unicode="&#x651;&#x64b;" horiz-adv-x="425" 
d="M398 1823q5 -8 5.5 -12.5t-0.5 -8.5t-1.5 -8.5t3.5 -13.5q12 -32 14.5 -66t-5 -63.5t-25.5 -50.5t-47 -26q-25 -4 -39 3t-31 18q-4 -11 -10.5 -25.5t-18 -28.5t-27 -25.5t-37.5 -16.5q-34 -9 -56 -3.5t-35 20t-17.5 35t-4.5 40.5q0 21 4.5 39.5t9.5 29.5q0 -3 4.5 1.5
t9.5 10.5t10 10.5t5 1.5q-5 -21 -7 -40t2 -32.5t17 -19t38 -0.5q28 5 41 23t17.5 40.5t5.5 46t6 39.5q1 -3 4.5 1t7.5 9t8 9.5t6 1.5q-3 -30 6.5 -54t26 -36.5t38 -11.5t42.5 21q4 10 2 23t-8.5 25.5t-15.5 24.5t-18 21q5 10 14.5 15.5t20 10t20 9.5t15.5 13zM401 1903
l-340 -193l17 91l340 193zM390 2031l-340 -193l17 91l340 193z" />
    <glyph glyph-name="shaddawithdammatanisolated" unicode="&#x651;&#x64c;" horiz-adv-x="484" arabic-form="isolated" 
d="M396 1846q13 -15 22.5 -33t17.5 -36q11 -32 13 -66t-6 -63.5t-26.5 -50t-47.5 -24.5q-25 -4 -38.5 3t-30.5 19q-4 -11 -11 -25t-18.5 -28t-27.5 -25.5t-38 -16.5q-34 -8 -56.5 1.5t-36 29.5t-19 47.5t-6 54t3.5 48.5t9 33q0 -3 5 1.5t10.5 10.5t10 10t4.5 1
q-5 -21 -6.5 -47.5t4 -49.5t19.5 -37.5t40 -9.5q28 5 41 23t18 40.5t6.5 45.5t6.5 39q1 -3 4.5 1t8 9t8 9.5t5.5 1.5q-3 -30 6 -54t25.5 -37t38 -12.5t43.5 20.5q4 10 2 23t-8.5 26t-15 25t-17.5 21q11 20 19.5 37.5t17.5 34.5zM425 1928q-7 -12 -21 -28.5t-33 -34t-42 -33
t-48 -26t-50 -13t-48 6.5q-23 10 -25 27t3 36t11 36t-2 26.5t-36.5 9t-90.5 -17.5q20 23 46.5 37.5t53 18.5t49.5 -1.5t35.5 -20.5t10.5 -40.5t-24 -61.5q48 17 89.5 38t75.5 53q-43 9 -63 27t-23.5 40t8 45t31.5 41.5t46 30t52 10.5q22 -2 29.5 -21t7 -43t-6 -46.5
t-9.5 -31.5l40 -10l-18 -65zM403 2065q-5 5 -12 6.5t-12 1.5q-14 1 -23.5 -7t-9.5 -18q-2 -10 3.5 -16.5t14.5 -11.5t21.5 -9.5t25.5 -9.5q2 17 2 30q0 11 -2 21.5t-8 14.5v-2z" />
    <glyph glyph-name="shaddawithkasratanisolated" unicode="&#x651;&#x64d;" horiz-adv-x="425" arabic-form="isolated" 
d="M370 2050q12 -15 21.5 -33.5t16.5 -36.5q10 -32 11 -66t-7.5 -63t-27.5 -49t-48 -24q-25 -3 -38.5 4t-30.5 20q-4 -11 -11.5 -25t-19 -27.5t-28 -24.5t-38.5 -16q-34 -7 -56.5 3t-35 31t-17.5 48t-4.5 53.5t4.5 49t10 32.5q0 -3 4.5 1.5l10.5 10.5t10.5 10t4.5 1
q-6 -21 -8 -48t3 -50t18.5 -37.5t39.5 -10.5q29 4 42.5 21t19 39.5t7 46t7.5 39.5q1 -3 5 0.5t8.5 9t8 9.5t5.5 1q-4 -29 4 -53.5t24 -38t37 -13.5q22 0 45 20q5 10 3 22.5t-8 25.5t-14.5 25.5t-16.5 21.5q11 20 20 37t19 34zM391 1684l-350 -141l33 75l350 141zM381 1579
l-350 -141l33 75l350 141z" />
    <glyph glyph-name="shaddawithfathaisolated" unicode="&#x651;&#x64e;" horiz-adv-x="425" arabic-form="isolated" 
d="M398 1823q5 -8 5.5 -12.5t-0.5 -8.5t-1.5 -8.5t3.5 -13.5q12 -32 14.5 -66t-5 -63.5t-25.5 -50.5t-47 -26q-25 -4 -39 3t-31 18q-4 -11 -10.5 -25.5t-18 -28.5t-27 -25.5t-37.5 -16.5q-34 -9 -56 -3.5t-35 20t-17.5 35t-4.5 40.5q0 21 4.5 39.5t9.5 29.5q0 -3 4.5 1.5
t9.5 10.5t10 10.5t5 1.5q-5 -21 -7 -40t2 -32.5t17 -19t38 -0.5q28 5 41 23t17.5 40.5t5.5 46t6 39.5q1 -3 4.5 1t7.5 9t8 9.5t6 1.5q-3 -30 6.5 -54t26 -36.5t38 -11.5t42.5 21q4 10 2 23t-8.5 25.5t-15.5 24.5t-18 21q5 10 14.5 15.5t20 10t20 9.5t15.5 13zM401 1903
l-340 -193l17 91l340 193z" />
    <glyph glyph-name="shaddawithdammaisolated" unicode="&#x651;&#x64f;" horiz-adv-x="437" arabic-form="isolated" 
d="M372 1846q13 -15 22.5 -33t17.5 -36q11 -32 13 -66t-6 -63.5t-26.5 -50t-47.5 -24.5q-25 -4 -38.5 3t-30.5 19q-4 -11 -11 -25t-18.5 -28t-27.5 -25.5t-38 -16.5q-34 -8 -56.5 1.5t-36 29.5t-19 47.5t-6 54t3.5 48.5t9 33q0 -3 5 1.5t10.5 10.5t10 10t4.5 1
q-5 -21 -6.5 -47.5t4 -49.5t19.5 -37.5t40 -9.5q28 5 41 23t18 40.5t6.5 45.5t6.5 39q1 -3 4.5 1t8 9t8 9.5t5.5 1.5q-3 -30 6 -54t25.5 -37t38 -12.5t43.5 20.5q4 10 2 23t-8.5 26t-15 25t-17.5 21q11 20 19.5 37.5t17.5 34.5zM347 1915q-11 -18 -37 -41t-61.5 -43.5
t-76.5 -34t-83 -11.5q-57 4 -75 4q-17 0 -12 2q60 20 103 34t77 28t61.5 31t54.5 43q-46 8 -67.5 26.5t-25 40.5t8.5 45t33 42t48.5 30.5t55.5 10.5q23 -1 31 -20t7.5 -43.5t-6.5 -47.5t-10 -33l43 -10l-19 -63zM322 2054q-5 5 -11.5 6.5t-11.5 1.5q-17 1 -26.5 -7
t-10.5 -19q-2 -20 19 -29.5t50 -17.5q2 16 2 30q0 11 -2 22t-9 14v-1z" />
    <glyph glyph-name="shaddawithkasraisolated" unicode="&#x651;&#x650;" horiz-adv-x="425" arabic-form="isolated" 
d="M385 1972q12 -15 21.5 -33.5t16.5 -36.5q10 -32 11 -66t-7.5 -63t-27.5 -49t-48 -24q-25 -3 -38.5 4t-30.5 20q-4 -11 -11.5 -25t-19 -27.5t-28 -24.5t-38.5 -16q-34 -7 -56.5 3t-35 31t-17.5 48t-4.5 53.5t4.5 48.5t10 33q0 -3 4.5 1.5l10.5 10.5t10.5 10t4.5 1
q-6 -21 -8 -48t3 -50t18.5 -37.5t39.5 -10.5q29 4 42.5 21t19 39.5t7 46t7.5 39.5q1 -3 5 0.5t8.5 9t8 9.5t5.5 1q-4 -29 4 -53.5t24 -38t37 -13.5q22 0 45 20q5 10 3 22.5t-8 25.5t-14.5 25.5t-16.5 21.5q11 20 20 37t19 34zM422 1590l-340 -193l17 91l340 193z" />
    <glyph glyph-name="shaddawithfathamedial" unicode="&#x640;&#x651;&#x64e;" horiz-adv-x="375" arabic-form="medial" 
d="M298 1190q5 -8 5.5 -12.5t-0.5 -8.5t-1.5 -8.5t3.5 -13.5q12 -32 14.5 -66t-5 -63.5t-25.5 -50.5t-47 -26q-25 -4 -39 3t-31 18q-4 -11 -10.5 -25.5t-18 -28.5t-27 -25.5t-37.5 -16.5q-34 -9 -56 -3.5t-35 20t-17.5 35t-4.5 40.5q0 21 4.5 39.5t9.5 29.5q0 -3 4.5 1.5
t9.5 10.5t10 10.5t5 1.5q-5 -21 -7 -40t2 -32.5t17 -19t38 -0.5q28 5 41 23t17.5 40.5t5.5 46t6 39.5q1 -3 4.5 1t7.5 9t8 9.5t6 1.5q-3 -30 6.5 -54t26 -36.5t38 -11.5t42.5 21q4 10 2 23t-8.5 25.5t-15.5 24.5t-18 21q5 10 14.5 15.5t20 10t20 9.5t15.5 13zM301 1270
l-340 -193l17 91l340 193z" />
    <glyph glyph-name="shaddawithdammamedial" unicode="&#x640;&#x651;&#x64f;" horiz-adv-x="480" arabic-form="medial" 
d="M365 1238q13 -15 22.5 -33t17.5 -36q11 -32 13 -66t-6 -63.5t-26.5 -50t-47.5 -24.5q-25 -4 -38.5 3t-30.5 19q-4 -11 -11 -25t-18.5 -28t-27.5 -25.5t-38 -16.5q-34 -8 -56.5 1.5t-36 29.5t-19 47.5t-6 54t3.5 48.5t9 33q0 -3 5 1.5t10.5 10.5t10 10t4.5 1
q-5 -21 -6.5 -47.5t4 -49.5t19.5 -37.5t40 -9.5q28 5 41 23t18 40.5t6.5 45.5t6.5 39q1 -3 4.5 1t8 9t8 9.5t5.5 1.5q-3 -30 6 -54t25.5 -37t38 -12.5t43.5 20.5q4 10 2 23t-8.5 26t-15 25t-17.5 21q11 20 19.5 37.5t17.5 34.5zM340 1307q-11 -18 -37 -41t-61.5 -43.5
t-76.5 -34t-83 -11.5q-57 4 -75 4q-17 0 -12 2q60 20 103 34t77 28t61.5 31t54.5 43q-46 8 -67.5 26.5t-25 40.5t8.5 45t33 42t48.5 30.5t55.5 10.5q23 -1 31 -20t7.5 -43.5t-6.5 -47.5t-10 -33l43 -10l-19 -63zM315 1446q-5 5 -11.5 6.5t-11.5 1.5q-17 1 -26.5 -7
t-10.5 -19q-2 -20 19 -29.5t50 -17.5q2 16 2 30q0 11 -2 22t-9 14v-1z" />
    <glyph glyph-name="allahisolated" unicode="&#xfedf;&#xfee0;&#xfeea;" horiz-adv-x="3619" arabic-form="isolated" 
d="M784 295q53 0 68 60v614q0 40 -56 56h-20q-53 0 -64 -68v-594q16 -68 72 -68zM1739 302q106 57 102 204v1517q0 47 8 64q36 80 116 80h404l32 -4q92 -28 92 -128v-1683q1 -28 -5 -51l270 -1q110 56 106 206v1517q0 47 8 64q36 80 116 80h404l32 -4q92 -28 92 -128v-1883
q3 -140 -149 -151h-1400v-2h-720v4h-1007l-40 4q-100 28 -100 124v1020q0 34 12 48q37 68 96 68h644l-3 231q-4 99 108 99h412q99 0 99 -90v-1205h271z" />
    <glyph glyph-name="fathamedial" unicode="&#x640;&#x64e;" horiz-adv-x="448" arabic-form="medial" 
d="M396 1157q-97 -52 -191.5 -102.5t-191.5 -102.5q5 24 8 39.5t7 37.5q99 52 191.5 101.5t191.5 102.5z" />
    <glyph glyph-name="dammamedial" unicode="&#x640;&#x64f;" horiz-adv-x="490" arabic-form="medial" 
d="M360 1221q-11 -23 -37.5 -52.5t-62.5 -55t-78.5 -42.5t-85.5 -15q-29 2 -47.5 3t-28.5 2t-12.5 1.5t-0.5 1.5q61 25 105.5 43t79 36t62.5 39.5t56 54.5q-47 11 -69 34t-25.5 51t9 57.5t34 53.5t49.5 39t56 13q16 -1 25 -12.5t12.5 -29t2.5 -39t-3.5 -41.5t-6.5 -36.5
t-7 -24.5l44 -13l-19 -80zM335 1398q-5 6 -12 8t-12 2q-17 2 -27 -8.5t-11 -24.5q-2 -25 20 -37t51 -23q2 20 2 38q0 15 -2 28.5t-9 18.5v-2z" />
    <glyph glyph-name="kasramedial" unicode="&#x640;&#x650;" horiz-adv-x="669" arabic-form="medial" 
d="M392 506q-97 -52 -191.5 -102.5t-191.5 -102.5q5 23 8 39t7 38q99 52 191.5 101.5t191.5 102.5z" />
    <glyph glyph-name="shaddamedial" unicode="&#x640;&#x651;" horiz-adv-x="448" arabic-form="medial" 
d="M386 1293q11 -17 17.5 -36t11.5 -38q6 -33 3 -67t-15 -62t-33 -45.5t-51 -17.5q-25 0 -37.5 9t-27.5 23q-6 -10 -15 -23t-22 -25t-31 -21t-40 -11q-35 -3 -56 10t-31 35t-11.5 49.5t2 53.5t10.5 47.5t14 31.5q0 -3 5 1t11.5 9t11.5 8.5t5 0.5q-8 -20 -13.5 -46.5t-3 -50
t14 -39.5t37.5 -15q29 0 44.5 16t23.5 37.5t12.5 44.5t12.5 38q1 -3 5 0t9 7.5t9.5 8t5.5 0.5q-8 -29 -2.5 -54t19.5 -40t35.5 -18t46.5 14q6 9 5.5 22t-4.5 26.5t-11 27t-14 23.5q13 18 24.5 34t22.5 32z" />
    <glyph glyph-name="lamwithalefmaddaaboveisolatedd" unicode="&#xfedf;&#xfe82;" horiz-adv-x="1836" arabic-form="isolated" 
d="M1088 2648h4q0 -111 -88 -280q-95 -92 -148 -92h-76q-76 0 -324 48l-108 12q-233 0 -340 -168h-8q15 300 180 364l104 16q119 -12 364 -56l100 -4h52q81 4 204 76zM1188 2167h392q88 0 120 -76l8 -24v-1963q0 -84 -116 -104h-1292q-96 0 -120 100v372q0 69 104 104h408
q87 0 124 -68q12 -31 12 -56v-296q0 -56 92 -56h56q84 0 84 60v1887q0 109 128 120zM288 2167h432q108 -28 108 -108v-1299q0 -102 -128 -116h-388q-98 0 -132 88v1339q34 96 108 96z" />
    <glyph glyph-name="lamwithalefmaddaabovefinal" unicode="&#xfee0;&#xfe82;" horiz-adv-x="1878" arabic-form="final" 
d="M1008 2647h4q0 -111 -88 -280q-95 -92 -148 -92h-76q-76 0 -324 48l-108 12q-233 0 -340 -168h-8q15 300 180 364l104 16q119 -12 364 -56l100 -4h52q81 4 204 76zM238 2167h432q108 -28 108 -108v-1299q0 -102 -128 -116h-388q-98 0 -132 88v1339q34 96 108 96zM250 0
q-136 4 -120 300v172q0 69 104 104h416q128 -15 128 -120v-96q0 -60 84 -60h64q84 0 84 52v1683q0 100 92 128l32 4h404q80 0 116 -80q8 -17 8 -64v-1720h326v-303h-1738z" />
    <glyph glyph-name="lamwithalefhamzaaboveisolatedd" unicode="&#xfedf;&#xfe84;" horiz-adv-x="1728" arabic-form="isolated" 
d="M644 2958h24q91 0 96 -20v-288l-8 -8h-124q-72 0 -72 -84q0 -80 68 -80h144l8 -8v-236l-8 -8h-664l-8 8v272l8 8h180v104q0 210 244 320q62 20 112 20zM1108 2167h392q88 0 120 -76l8 -24v-1963q0 -84 -116 -104h-1292q-96 0 -120 100v372q0 69 104 104h408q87 0 124 -68
q12 -31 12 -56v-296q0 -56 92 -56h56q84 0 84 60v1887q0 109 128 120zM208 2167h432q108 -28 108 -108v-1299q0 -102 -128 -116h-388q-98 0 -132 88v1339q34 96 108 96z" />
    <glyph glyph-name="lamwithalefhamzaabovefinal" unicode="&#xfee0;&#xfe84;" horiz-adv-x="1904" arabic-form="final" 
d="M644 2958h24q91 0 96 -20v-288l-8 -8h-124q-72 0 -72 -84q0 -80 68 -80h144l8 -8v-236l-8 -8h-664l-8 8v272l8 8h180v104q0 210 244 320q62 20 112 20zM238 2167h432q108 -28 108 -108v-1299q0 -102 -128 -116h-388q-98 0 -132 88v1339q34 96 108 96zM250 0
q-136 4 -120 300v172q0 69 104 104h416q128 -15 128 -120v-96q0 -60 84 -60h64q84 0 84 52v1683q0 100 92 128l32 4h404q80 0 116 -80q8 -17 8 -64v-1720h326v-303h-1738z" />
    <glyph glyph-name="lamwithalefhamzabelowisolated" unicode="&#xfedf;&#xfe88;" horiz-adv-x="1728" arabic-form="isolated" 
d="M644 -67h24q91 0 96 -20v-288l-8 -8h-124q-72 0 -72 -84q0 -80 68 -80h144l8 -8v-236l-8 -8h-664l-8 8v272l8 8h180v104q0 211 244 320q62 20 112 20zM1108 2167h392q88 0 120 -76l8 -24v-1963q0 -84 -116 -104h-1292q-96 0 -120 100v372q0 69 104 104h408q87 0 124 -68
q12 -31 12 -56v-296q0 -56 92 -56h56q84 0 84 60v1887q0 109 128 120zM208 2167h432q108 -28 108 -108v-1299q0 -102 -128 -116h-388q-98 0 -132 88v1339q34 96 108 96z" />
    <glyph glyph-name="lamwithalefhamzabelowfinal" unicode="&#xfee0;&#xfe88;" horiz-adv-x="1879" arabic-form="final" 
d="M644 -67h24q91 0 96 -20v-288l-8 -8h-124q-72 0 -72 -84q0 -80 68 -80h144l8 -8v-236l-8 -8h-664l-8 8v272l8 8h180v104q0 211 244 320q62 20 112 20zM238 2167h432q108 -28 108 -108v-1299q0 -102 -128 -116h-388q-98 0 -132 88v1339q34 96 108 96zM250 0
q-136 4 -120 300v172q0 69 104 104h416q128 -15 128 -120v-96q0 -60 84 -60h64q84 0 84 52v1683q0 100 92 128l32 4h404q80 0 116 -80q8 -17 8 -64v-1720h326v-303h-1738z" />
    <glyph glyph-name="lamwithalefisolated" unicode="&#xfedf;&#xfe8e;" horiz-adv-x="1728" arabic-form="isolated" 
d="M1108 2167h392q88 0 120 -76l8 -24v-1963q0 -84 -116 -104h-1292q-96 0 -120 100v372q0 69 104 104h408q87 0 124 -68q12 -31 12 -56v-296q0 -56 92 -56h56q84 0 84 60v1887q0 109 128 120zM208 2167h432q108 -28 108 -108v-1299q0 -102 -128 -116h-388q-98 0 -132 88
v1339q34 96 108 96z" />
    <glyph glyph-name="lamwithaleffinal" unicode="&#xfee0;&#xfe8e;" horiz-adv-x="1838" arabic-form="final" 
d="M208 2167h432q108 -28 108 -108v-1299q0 -102 -128 -116h-388q-98 0 -132 88v1339q34 96 108 96zM220 0q-136 4 -120 300v172q0 69 104 104h416q128 -15 128 -120v-96q0 -60 84 -60h64q84 0 84 52v1683q0 100 92 128l32 4h404q80 0 116 -80q8 -17 8 -64v-1720h276v-303
h-1688z" />
    <glyph glyph-name="bullet_ara" unicode="&#xfcf4;" horiz-adv-x="532" arabic-form="medial" 
d="M424 1178q-11 -23 -37.5 -52.5t-62.5 -55t-78.5 -42.5t-85.5 -15q-29 2 -47.5 3t-28.5 2t-12.5 1.5t-0.5 1.5q61 25 105.5 43t79 36t62.5 39.5t56 54.5q-47 11 -69 34t-25.5 51t9 57.5t34 53.5t49.5 38.5t56 13.5q16 -1 25 -12.5t12.5 -29t2.5 -39t-3.5 -41.5t-6.5 -36.5
t-7 -24.5l44 -13l-19 -80zM399 1355q-5 6 -12 8t-12 2q-17 2 -27 -8.5t-11 -24.5q-2 -25 20 -37t51 -23q2 20 2 38q0 15 -2 28.5t-9 18.5v-2z" />
    <glyph glyph-name="fathatanisolated" unicode="&#xfe70;" horiz-adv-x="408" arabic-form="isolated" 
d="M389 1675l-340 -193l17 91l340 193zM403 1842l-340 -193l17 91l340 193z" />
    <glyph glyph-name="fathatanabove" unicode="&#xfe71;" horiz-adv-x="669" arabic-form="medial" 
d="M383 1154q-97 -52 -191 -102.5t-191 -102.5q5 23 8 39t7 38q99 52 191.5 101.5t191.5 102.5zM416 1345q-97 -52 -191.5 -102.5t-191.5 -102.5q5 23 8.5 38.5t7.5 38.5q99 52 191 101.5t191 102.5z" />
    <glyph glyph-name="dammatanisolated" unicode="&#xfe72;" horiz-adv-x="469" arabic-form="isolated" 
d="M409 1632q-6 -14 -19.5 -33.5t-32 -40t-40.5 -39.5t-45.5 -31t-47.5 -15t-46 8t-24 31.5t3 42t10.5 42t-2 32t-34.5 10.5t-86 -20q19 27 44.5 43.5t50.5 22t47 -1t34 -24.5t10.5 -48t-23.5 -72q46 20 85.5 44t71.5 62q-41 10 -60.5 31.5t-22 47.5t8 53t30 49.5t44 36
t49.5 12.5q21 -2 28 -24.5t6.5 -51t-6 -55.5t-8.5 -37l38 -12l-17 -76zM388 1793q-10 10 -23 10q-14 1 -22.5 -8.5t-8.5 -21.5q-2 -11 3 -19t14 -14t20.5 -11.5t24.5 -11.5q2 19 2 35q0 14 -2.5 26.5t-7.5 16.5v-2z" />
    <glyph glyph-name="kasratanisolated" unicode="&#xfe74;" horiz-adv-x="408" arabic-form="isolated" 
d="M384 -83q-97 -52 -191.5 -102.5t-191.5 -102.5q5 23 8 38.5t7 38.5q99 52 191.5 101.5t191.5 102.5zM416 107q-97 -52 -191.5 -102.5t-191.5 -102.5q5 24 8.5 39.5t7.5 38.5q99 52 191 101t191 102z" />
    <glyph glyph-name="fathaisolated" unicode="&#xfe76;" horiz-adv-x="408" arabic-form="isolated" 
d="M396 1583q-97 -52 -191.5 -102.5t-191.5 -102.5q5 24 8 39.5t7 37.5q99 52 191.5 101.5t191.5 102.5z" />
    <glyph glyph-name="dammaisolated" unicode="&#xfe78;" horiz-adv-x="414" arabic-form="isolated" 
d="M366 1664q-11 -23 -37.5 -52.5t-62.5 -55t-78.5 -42.5t-85.5 -15q-29 2 -47.5 3t-28.5 2t-12.5 1.5t-0.5 1.5q61 25 105.5 43t79 36t62.5 39.5t56 54.5q-47 11 -69 34t-25.5 51t9 57.5t34 53.5t49.5 38.5t56 13.5q16 -1 25 -12.5t12.5 -29t2.5 -39t-3.5 -41.5t-6.5 -36.5
t-7 -24.5l44 -13l-19 -80zM341 1841q-5 6 -12 8t-12 2q-17 2 -27 -8.5t-11 -24.5q-2 -25 20 -37t51 -23q2 20 2 38q0 15 -2 28.5t-9 18.5v-2z" />
    <glyph glyph-name="kasraisolated" unicode="&#xfe7a;" horiz-adv-x="408" arabic-form="isolated" 
d="M392 -363q-97 -52 -191.5 -102.5t-191.5 -102.5q5 23 8 39t7 38q99 52 191.5 101.5t191.5 102.5z" />
    <glyph glyph-name="shaddaisolated" unicode="&#xfe7c;" horiz-adv-x="425" arabic-form="isolated" 
d="M398 1823q11 -17 17.5 -36t11.5 -38q6 -33 3 -67t-15 -62t-33 -45.5t-51 -17.5q-25 0 -37.5 9t-27.5 23q-6 -10 -15 -23t-22 -25t-31 -21t-40 -11q-35 -3 -56 10t-31 35t-11.5 49.5t2 53.5t10.5 47.5t14 31.5q0 -3 5 1t11.5 9t11.5 8.5t5 0.5q-8 -20 -13.5 -46.5t-3 -50
t14 -39.5t37.5 -15q29 0 44.5 16t23.5 37.5t12.5 44.5t12.5 38q1 -3 5 0t9 7.5t9.5 8t5.5 0.5q-8 -29 -2.5 -54t19.5 -40t35.5 -18t46.5 14q6 9 5.5 22t-4.5 26.5t-11 27t-14 23.5q13 18 24.5 34t22.5 32z" />
    <glyph glyph-name="sukunisolated" unicode="&#xfe7e;" horiz-adv-x="328" arabic-form="isolated" 
d="M347 1696q5 -34 -10 -71.5t-41 -87.5v1q0 1 1 2l-3 -5q-24 -14 -61.5 -26.5t-74 -15t-65 11t-34.5 51.5q-5 33 3.5 75.5t27 81.5t46 67t59.5 33q28 4 54 -6.5t46.5 -28.5t34.5 -40.5t17 -41.5zM283 1628q-3 14 -13.5 30t-25 29.5t-31.5 22t-35 5.5q-30 -5 -44 -27
t-11 -45q3 -22 21 -32.5t42 -11t50 6.5t46 21zM296 1537q0 -1 -1 -1zM295 1536q0 -1 -1 -1z" />
    <glyph glyph-name="logo" unicode="&#xfe7f;" horiz-adv-x="3130" arabic-form="medial" 
 />
    <glyph glyph-name="hamzaisolated" unicode="&#x621;" horiz-adv-x="1376" arabic-form="isolated" 
d="M1016 1264q228 -6 228 -32v-504l-8 -8h-208q-82 0 -116 -68q-12 -32 -16 -76q0 -144 124 -144h248l8 -8v-416l-8 -8h-1160l-8 8v480l8 8h320v220q0 231 248 420q72 52 148 80q14 14 88 28q12 8 104 20z" />
    <glyph glyph-name="alefwithmaddaaboveisolated" unicode="&#x622;" horiz-adv-x="1217" arabic-form="isolated" 
d="M398 2165h428q55 0 96 -64q12 -14 12 -48v-1941q0 -88 -104 -112h-420q-96 0 -120 100v1969q34 96 108 96zM1138 2647h4q0 -111 -88 -280q-95 -92 -148 -92h-76q-76 0 -324 48l-108 12q-233 0 -340 -168h-8q15 300 180 364l104 16q119 -12 364 -56l100 -4h52q81 4 204 76
z" />
    <glyph glyph-name="alefwithmaddaabovefinal" unicode="&#x622;" horiz-adv-x="1021" arabic-form="final" 
d="M1055 2703h4q0 -111 -88 -280q-95 -92 -148 -92h-76q-76 0 -324 48l-108 12q-233 0 -340 -168h-8q15 300 180 364l104 16q119 -12 364 -56l100 -4h52q81 4 204 76zM270 0q-96 0 -120 100v1971q34 96 108 96h428q55 0 96 -64q12 -14 12 -48v-1593q0 -159 161 -159h247
v-303h-932z" />
    <glyph glyph-name="alefwithhamzaaboveisolated" unicode="&#x623;" horiz-adv-x="880" arabic-form="isolated" 
d="M218 2169h428q55 0 96 -64q12 -14 12 -48v-1945q0 -88 -104 -112h-420q-96 0 -120 100v1973q34 96 108 96zM644 3056h24q91 0 96 -20v-288l-8 -8h-124q-72 0 -72 -84q0 -80 68 -80h144l8 -8v-236l-8 -8h-664l-8 8v272l8 8h180v104q0 210 244 320q62 20 112 20z" />
    <glyph glyph-name="alefwithhamzaabovefinal" unicode="&#x623;" horiz-adv-x="962" arabic-form="final" 
d="M664 3056h24q91 0 96 -20v-288l-8 -8h-124q-72 0 -72 -84q0 -80 68 -80h144l8 -8v-236l-8 -8h-664l-8 8v272l8 8h180v104q0 210 244 320q62 20 112 20zM220 0q-96 0 -120 100v1971q34 96 108 96h428q55 0 96 -64q12 -14 12 -48v-1593q0 -159 161 -159h297v-303h-982z" />
    <glyph glyph-name="wawwithhamzaaboveisolated" unicode="&#x624;" horiz-adv-x="1568" arabic-form="isolated" 
d="M994 2133h24q91 0 96 -20v-288l-8 -8h-124q-72 0 -72 -84q0 -80 68 -80h144l8 -8v-236l-8 -8h-664l-8 8v272l8 8h180v104q0 210 244 320q62 20 112 20zM712 965v-604q11 -68 64 -68h20q56 16 56 56v624q-15 60 -68 60q-56 0 -72 -68zM852 -163v164h-644q-59 0 -96 68
q-12 14 -12 48v1020q0 96 100 124l40 4h1120q108 -27 108 -104v-1524q0 -80 -108 -104h-1252l-1 1h-7v303h752z" />
    <glyph glyph-name="wawwithhamzaabovefinal" unicode="&#x624;" horiz-adv-x="1704" arabic-form="final" 
d="M994 2133h24q91 0 96 -20v-288l-8 -8h-124q-72 0 -72 -84q0 -80 68 -80h144l8 -8v-236l-8 -8h-664l-8 8v272l8 8h180v104q0 210 244 320q62 20 112 20zM712 965v-604q11 -68 64 -68h20q56 16 56 56v624q-15 60 -68 60q-56 0 -72 -68zM1468 303h299l-2 -303h-297v-363
q0 -80 -108 -104h-1252l-1 1h-7v303h752v164h-644q-59 0 -96 68q-12 14 -12 48v1020q0 96 100 124l40 4h1120q108 -27 108 -104v-858z" />
    <glyph glyph-name="alefwithhamzabelowisolated" unicode="&#x625;" horiz-adv-x="880" arabic-form="isolated" 
d="M228 2167h428q55 0 96 -64q12 -14 12 -48v-1943q0 -88 -104 -112h-420q-96 0 -120 100v1971q34 96 108 96zM644 -108h24q91 0 96 -20v-288l-8 -8h-124q-72 0 -72 -84q0 -80 68 -80h144l8 -8v-236l-8 -8h-664l-8 8v272l8 8h180v104q0 210 244 320q62 20 112 20z" />
    <glyph glyph-name="alefwithhamzabelowfinal" unicode="&#x625;" horiz-adv-x="985" arabic-form="final" 
d="M644 -108h24q91 0 96 -20v-288l-8 -8h-124q-72 0 -72 -84q0 -80 68 -80h144l8 -8v-236l-8 -8h-664l-8 8v272l8 8h180v104q0 210 244 320q62 20 112 20zM220 0q-96 0 -120 100v1971q34 96 108 96h428q55 0 96 -64q12 -14 12 -48v-1593q0 -159 161 -159h147v-303h-832z" />
    <glyph glyph-name="yehwithhamzaaboveisolated" unicode="&#x626;" horiz-adv-x="3408" arabic-form="isolated" 
d="M670 2133h24q91 0 96 -20v-288l-8 -8h-124q-72 0 -72 -84q0 -80 68 -80h144l8 -8v-236l-8 -8h-664l-8 8v272l8 8h180v104q0 210 244 320q62 20 112 20zM208 1264h432q54 0 92 -60q16 -26 16 -40v-768q0 -75 184 -100l156 -12h120q313 17 336 88v748q0 110 88 140l24 4
h1524q91 0 128 -96v-1072q0 -51 -72 -88l-32 -8h-448q-56 0 -96 88l-4 60v828q-3 40 -80 92q-82 40 -140 40h-40q-114 0 -200 -128v-884q0 -51 -72 -88l-32 -8h-1896q-56 0 -96 88v1060q0 78 84 112z" />
    <glyph glyph-name="yehwithhamzaabovefinal" unicode="&#x626;" horiz-adv-x="3511" arabic-form="final" 
d="M650 2133h24q91 0 96 -20v-288l-8 -8h-124q-72 0 -72 -84q0 -80 68 -80h144l8 -8v-236l-8 -8h-664l-8 8v272l8 8h180v104q0 210 244 320q62 20 112 20zM2756 0q-56 0 -96 88l-4 60v828q-3 40 -80 92q-82 40 -140 40h-40q-114 0 -200 -128v-884q0 -51 -72 -88l-32 -8
h-1896q-56 0 -96 88v1060q0 78 84 112l24 4h432q54 0 92 -60q16 -26 16 -40v-758q0 -75 184 -100l156 -12h120q313 17 336 88v738q0 110 88 140l24 4h1524q91 0 128 -96v-865h276v-303h-828z" />
    <glyph glyph-name="yehwithhamzaaboveinitial" unicode="&#x626;" horiz-adv-x="963" arabic-form="initial" 
d="M730 2133h24q91 0 96 -20v-288l-8 -8h-124q-72 0 -72 -84q0 -80 68 -80h144l8 -8v-236l-8 -8h-664l-8 8v272l8 8h180v104q0 210 244 320q62 20 112 20zM-98 0v100h2v203h155q155 0 155 155v654q0 86 36 116q37 40 120 40h344q122 0 152 -96v-1076q0 -52 -80 -92l-36 -4
h-848z" />
    <glyph glyph-name="yehwithhamzaabovemedial" unicode="&#x626;" horiz-adv-x="1075" arabic-form="medial" 
d="M750 2133h24q91 0 96 -20v-288l-8 -8h-124q-72 0 -72 -84q0 -80 68 -80h144l8 -8v-236l-8 -8h-664l-8 8v272l8 8h180v104q0 210 244 320q62 20 112 20zM-77 0v100h4v203h143q143 0 143 145v664q0 86 36 116q37 40 120 40h344q122 0 152 -96v-734q0 -135 137 -135h137
v-303h-1216z" />
    <glyph glyph-name="alefisolated" unicode="&#x627;" horiz-adv-x="844" arabic-form="isolated" 
d="M208 2167h428q55 0 96 -64q12 -14 12 -48v-1943q0 -88 -104 -112h-420q-96 0 -120 100v1971q34 96 108 96z" />
    <glyph glyph-name="aleffinal" unicode="&#x627;" horiz-adv-x="955" arabic-form="final" 
d="M220 0q-96 0 -120 100v1971q34 96 108 96h428q55 0 96 -64q12 -14 12 -48v-1593q0 -159 161 -159h87v-303h-772z" />
    <glyph glyph-name="behisolated" unicode="&#x628;" horiz-adv-x="2844" arabic-form="isolated" 
d="M216 0q-84 0 -116 88v1076q0 74 120 104h376q123 0 152 -96v-671q0 -198 196 -198h951q197 0 197 198v611q0 86 36 116q37 40 120 40h344q122 0 152 -96v-1076q0 -52 -80 -92l-36 -4h-2412zM1309 -143h52q102 0 216 -108q80 -103 80 -216q0 -192 -200 -296
q-50 -20 -112 -20h-12q-234 0 -312 248l-8 72q0 144 124 252q96 68 172 68z" />
    <glyph glyph-name="behfinal" unicode="&#x628;" horiz-adv-x="2972" arabic-form="final" 
d="M216 0q-84 0 -116 88v1076q0 74 120 104h376q123 0 152 -96v-671q0 -198 204 -198h950q190 0 194 199l-4 653q0 43 36 73q37 40 120 40h344q122 0 152 -96v-882h276v-290h-2804zM1409 -143h52q102 0 216 -108q80 -103 80 -216q0 -192 -200 -296q-50 -20 -112 -20h-12
q-234 0 -312 248l-8 72q0 144 124 252q96 68 172 68z" />
    <glyph glyph-name="behinitial" unicode="&#x628;" horiz-adv-x="963" arabic-form="initial" 
d="M513 -133h52q102 0 216 -108q80 -103 80 -216q0 -192 -200 -296q-50 -20 -112 -20h-12q-234 0 -312 248l-8 72q0 144 124 252q96 68 172 68zM-98 0v100h2v203h155q155 0 155 155v654q0 86 36 116q37 40 120 40h344q122 0 152 -96v-1076q0 -52 -80 -92l-36 -4h-848z" />
    <glyph glyph-name="behmedial" unicode="&#x628;" horiz-adv-x="1075" arabic-form="medial" 
d="M492 -143h52q102 0 216 -108q80 -103 80 -216q0 -192 -200 -296q-50 -20 -112 -20h-12q-234 0 -312 248l-8 72q0 144 124 252q96 68 172 68zM-77 0v100h4v203h143q143 0 143 145v664q0 86 36 116q37 40 120 40h344q122 0 152 -96v-734q0 -135 137 -135h137v-303h-1216z
" />
    <glyph glyph-name="tehmarbutaisolated" unicode="&#x629;" horiz-adv-x="1575" arabic-form="isolated" 
d="M719 955v-594q11 -68 64 -68h20q56 16 56 56v614q-15 60 -68 60q-56 0 -72 -68zM188 5q-41 12 -69 64q-12 14 -12 48v1020q0 96 100 124l40 4h1120q108 -27 108 -104v-1014q0 -142 -147 -152zM424 2027q200 0 300 -216l16 -88v-36q0 -144 -152 -256q-64 -44 -168 -44
q-191 0 -280 164q-40 64 -40 124v60q0 102 100 204q92 88 224 88zM1148 2027q182 0 288 -184q28 -60 28 -140q0 -188 -180 -288q-49 -28 -140 -28q-183 0 -276 156q-44 69 -44 164q0 182 172 284q68 36 152 36z" />
    <glyph glyph-name="tehmarbutafinal" unicode="&#x629;" horiz-adv-x="1682" arabic-form="final" 
d="M784 285q53 0 68 60v654q0 40 -56 56h-20q-53 0 -64 -68v-634q16 -68 72 -68zM546 2214q133 0 199 -144l11 -58v-24q0 -96 -101 -171q-43 -29 -112 -29q-127 0 -186 109q-27 43 -27 83v40q0 68 67 135q61 59 149 59zM1028 2214q121 0 191 -122q19 -40 19 -94
q0 -125 -120 -191q-32 -19 -93 -19q-122 0 -184 104q-29 46 -29 109q0 121 114 189q46 24 102 24zM1797 0v-1h-550v4h-1007l-40 4q-100 28 -100 124v1020q0 34 12 48q37 68 96 68h644l2 258q-9 72 79 72h450q85 0 85 -73v-1221h330v-303h-1z" />
    <glyph glyph-name="tehisolated" unicode="&#x62a;" horiz-adv-x="2844" arabic-form="isolated" 
d="M216 0q-84 0 -116 88v1076q0 74 120 104h376q123 0 152 -96v-671q0 -198 196 -198h951q197 0 197 198v611q0 86 36 116q37 40 120 40h344q122 0 152 -96v-1076q0 -52 -80 -92l-36 -4h-2412zM1102 1780q161 0 241 -174l13 -71v-29q0 -115 -122 -206q-52 -35 -135 -35
q-153 0 -225 132q-32 51 -32 100v48q0 82 80 164q74 71 180 71zM1713 1780q146 0 232 -148q22 -48 22 -113q0 -151 -145 -231q-39 -23 -112 -23q-147 0 -222 126q-35 55 -35 132q0 146 138 228q55 29 122 29z" />
    <glyph glyph-name="tehfinal" unicode="&#x62a;" horiz-adv-x="2972" arabic-form="final" 
d="M216 0q-84 0 -116 88v1076q0 74 120 104h376q123 0 152 -96v-671q0 -198 204 -198h950q190 0 194 199l-4 653q0 43 36 73q37 40 120 40h344q122 0 152 -96v-882h296v-290h-2824zM1102 1780q161 0 241 -174l13 -71v-29q0 -115 -122 -206q-52 -35 -135 -35q-153 0 -225 132
q-32 51 -32 100v48q0 82 80 164q74 71 180 71zM1713 1780q146 0 232 -148q22 -48 22 -113q0 -151 -145 -231q-39 -23 -112 -23q-147 0 -222 126q-35 55 -35 132q0 146 138 228q55 29 122 29z" />
    <glyph glyph-name="tehinitial" unicode="&#x62a;" horiz-adv-x="1014" arabic-form="initial" 
d="M200 1902q161 0 241 -174l13 -71v-29q0 -115 -122 -206q-52 -35 -135 -35q-153 0 -225 132q-32 51 -32 100v48q0 82 80 164q74 71 180 71zM751 1902q146 0 232 -148q22 -48 22 -113q0 -151 -145 -231q-39 -23 -112 -23q-147 0 -222 126q-35 55 -35 132q0 146 138 228
q55 29 122 29zM-98 0v100h2v203h155q155 0 155 155v654q0 86 36 116q37 40 120 40h344q122 0 152 -96v-1076q0 -52 -80 -92l-36 -4h-848z" />
    <glyph glyph-name="tehmedial" unicode="&#x62a;" horiz-adv-x="1085" arabic-form="medial" 
d="M270 1902q161 0 241 -174l13 -71v-29q0 -115 -122 -206q-52 -35 -135 -35q-153 0 -225 132q-32 51 -32 100v48q0 82 80 164q74 71 180 71zM821 1902q146 0 232 -148q22 -48 22 -113q0 -151 -145 -231q-39 -23 -112 -23q-147 0 -222 126q-35 55 -35 132q0 146 138 228
q55 29 122 29zM-77 0v100h4v203h143q143 0 143 145v664q0 86 36 116q37 40 120 40h344q122 0 152 -96v-734q0 -135 137 -135h137v-303h-1216z" />
    <glyph glyph-name="thehisolated" unicode="&#x62b;" horiz-adv-x="2844" arabic-form="isolated" 
d="M216 0q-84 0 -116 88v1076q0 74 120 104h376q123 0 152 -96v-671q0 -198 196 -198h951q197 0 197 198v611q0 86 36 116q37 40 120 40h344q122 0 152 -96v-1076q0 -52 -80 -92l-36 -4h-2412zM1102 1780q161 0 241 -174l13 -71v-29q0 -115 -122 -206q-52 -35 -135 -35
q-153 0 -225 132q-32 51 -32 100v48q0 82 80 164q74 71 180 71zM1713 1780q146 0 232 -148q22 -48 22 -113q0 -151 -145 -231q-39 -23 -112 -23q-147 0 -222 126q-35 55 -35 132q0 146 138 228q55 29 122 29zM1407 2250q161 0 241 -174l13 -71v-29q0 -115 -122 -206
q-52 -35 -135 -35q-153 0 -225 132q-32 51 -32 100v48q0 82 80 164q74 71 180 71z" />
    <glyph glyph-name="thehfinal" unicode="&#x62b;" horiz-adv-x="2948" arabic-form="final" 
d="M216 0q-84 0 -116 88v1076q0 74 120 104h376q123 0 152 -96v-671q0 -198 204 -198h950q190 0 194 199l-4 653q0 43 36 73q37 40 120 40h344q122 0 152 -96v-876h296v-296h-2824zM1102 1780q161 0 241 -174l13 -71v-29q0 -115 -122 -206q-52 -35 -135 -35q-153 0 -225 132
q-32 51 -32 100v48q0 82 80 164q74 71 180 71zM1713 1780q146 0 232 -148q22 -48 22 -113q0 -151 -145 -231q-39 -23 -112 -23q-147 0 -222 126q-35 55 -35 132q0 146 138 228q55 29 122 29zM1407 2250q161 0 241 -174l13 -71v-29q0 -115 -122 -206q-52 -35 -135 -35
q-153 0 -225 132q-32 51 -32 100v48q0 82 80 164q74 71 180 71z" />
    <glyph glyph-name="thehinitial" unicode="&#x62b;" horiz-adv-x="1012" arabic-form="initial" 
d="M202 1850q161 0 241 -174l13 -71v-29q0 -115 -122 -206q-52 -35 -135 -35q-153 0 -224 132q-33 51 -33 100v48q0 82 80 164q74 71 180 71zM813 1850q146 0 232 -148q22 -48 22 -113q0 -151 -145 -231q-39 -23 -112 -23q-147 0 -222 126q-35 55 -35 132q0 146 138 228
q55 29 122 29zM507 2320q161 0 241 -174l13 -71v-29q0 -115 -122 -206q-52 -35 -135 -35q-153 0 -225 132q-32 51 -32 100v48q0 82 80 164q74 71 180 71zM-98 0v100h2v203h155q155 0 155 155v654q0 86 36 116q37 40 120 40h344q122 0 152 -96v-1076q0 -52 -80 -92l-36 -4
h-848z" />
    <glyph glyph-name="thehmedial" unicode="&#x62b;" horiz-adv-x="1106" arabic-form="medial" 
d="M252 1880q161 0 241 -174l13 -71v-29q0 -115 -122 -206q-52 -35 -135 -35q-153 0 -225 132q-32 51 -32 100v48q0 82 80 164q74 71 180 71zM863 1880q146 0 232 -148q22 -48 22 -113q0 -151 -145 -231q-39 -23 -112 -23q-147 0 -222 126q-35 55 -35 132q0 146 138 228
q55 29 122 29zM557 2350q161 0 241 -174l13 -71v-29q0 -115 -122 -206q-52 -35 -135 -35q-153 0 -225 132q-32 51 -32 100v48q0 82 80 164q74 71 180 71zM-77 0v100h4v203h143q143 0 143 145v664q0 86 36 116q37 40 120 40h344q122 0 152 -96v-734q0 -135 137 -135h137v-303
h-1216z" />
    <glyph glyph-name="jeemisolated" unicode="&#x62c;" horiz-adv-x="1864" arabic-form="isolated" 
d="M1020 303v313h-652q-90 8 -188 104q-80 99 -80 196v336l8 8h1336q232 0 232 -216v-741h91v-303h-760q-263 0 -263 -256v-328q0 -66 60 -88q16 -8 44 -8h908l8 -8v-92l-8 -8h-1576q-80 7 -80 56v834v-110q0 4 1 10q0 301 268 301h651zM1259 -66h45q89 0 188 -93
q70 -89 70 -187q0 -167 -174 -257q-44 -18 -98 -18h-10q-204 0 -272 216l-7 62q0 125 108 219q84 58 150 58z" />
    <glyph glyph-name="jeemfinal" unicode="&#x62c;" horiz-adv-x="1886" arabic-form="final" 
d="M1020 303v313h-652q-90 8 -188 104q-80 99 -80 196v336l8 8h1336q232 0 232 -216v-741h261v-303h-930q-263 0 -263 -256v-328q0 -66 60 -88q16 -8 44 -8h908l8 -8v-92l-8 -8h-1576q-80 7 -80 56v834v-110q0 4 1 10q0 301 268 301h651zM1259 -66h45q89 0 188 -93
q70 -89 70 -187q0 -167 -174 -257q-44 -18 -98 -18h-10q-204 0 -272 216l-7 62q0 125 108 219q84 58 150 58z" />
    <glyph glyph-name="jeeminitial" unicode="&#x62c;" horiz-adv-x="2201" arabic-form="initial" 
d="M1231 303v313h-752q-90 8 -188 104q-80 99 -80 196v336l8 8h1436q232 0 232 -216v-741h210v-303h-2177v303h1311zM1229 -103h52q102 0 216 -108q80 -103 80 -216q0 -192 -200 -296q-50 -20 -112 -20h-12q-234 0 -312 248l-8 72q0 144 124 252q96 68 172 68z" />
    <glyph glyph-name="jeemmedial" unicode="&#x62c;" horiz-adv-x="2099" arabic-form="medial" 
d="M2167 100l8 -8v-84l-8 -8h-2228v303h1292v313h-752q-90 8 -188 104q-80 99 -80 196v336l8 8h1436q232 0 232 -216v-741h280v-203zM1559 -103h52q102 0 216 -108q80 -103 80 -216q0 -192 -200 -296q-50 -20 -112 -20h-12q-234 0 -312 248l-8 72q0 144 124 252
q96 68 172 68z" />
    <glyph glyph-name="hahisolated" unicode="&#x62d;" horiz-adv-x="1907" arabic-form="isolated" 
d="M1020 303v313h-652q-90 8 -188 104q-80 99 -80 196v336l8 8h1336q232 0 232 -216v-741h141v-303h-810q-263 0 -263 -256v-328q0 -66 60 -88q16 -8 44 -8h908l8 -8v-92l-8 -8h-1576q-80 7 -80 56v834v-110q0 4 1 10q0 301 268 301h651z" />
    <glyph glyph-name="hahfinal" unicode="&#x62d;" horiz-adv-x="1907" arabic-form="final" 
d="M1020 303v313h-652q-90 8 -188 104q-80 99 -80 196v336l8 8h1336q232 0 232 -216v-741h291v-303h-960q-263 0 -263 -256v-328q0 -66 60 -88q16 -8 44 -8h908l8 -8v-92l-8 -8h-1576q-80 7 -80 56v834v-110q0 4 1 10q0 301 268 301h651z" />
    <glyph glyph-name="hahinitial" unicode="&#x62d;" horiz-adv-x="2211" arabic-form="initial" 
d="M1241 303v313h-752q-90 8 -188 104q-80 99 -80 196v336l8 8h1436q232 0 232 -216v-741h170v-303h-2177v303h1351z" />
    <glyph glyph-name="hahmedial" unicode="&#x62d;" horiz-adv-x="2099" arabic-form="medial" 
d="M2267 100l8 -8v-84l-8 -8h-2438v303h1402v313h-752q-90 8 -188 104q-80 99 -80 196v336l8 8h1436q232 0 232 -216v-741h380v-203z" />
    <glyph glyph-name="khahisolated" unicode="&#x62e;" horiz-adv-x="1917" arabic-form="isolated" 
d="M1020 303v313h-652q-90 8 -188 104q-80 99 -80 196v336l8 8h1336q232 0 232 -216v-741h151v-303h-820q-263 0 -263 -256v-328q0 -66 60 -88q16 -8 44 -8h908l8 -8v-92l-8 -8h-1576q-80 7 -80 56v834v-110q0 4 1 10q0 301 268 301h651zM841 2036h52q102 0 216 -108
q80 -103 80 -216q0 -192 -200 -296q-50 -20 -112 -20h-12q-234 0 -312 248l-8 72q0 144 124 252q96 68 172 68z" />
    <glyph glyph-name="khahfinal" unicode="&#x62e;" horiz-adv-x="1907" arabic-form="final" 
d="M1020 303v313h-652q-90 8 -188 104q-80 99 -80 196v336l8 8h1336q232 0 232 -216v-741h381v-303h-1050q-263 0 -263 -256v-328q0 -66 60 -88q16 -8 44 -8h908l8 -8v-92l-8 -8h-1576q-80 7 -80 56v834v-110q0 4 1 10q0 301 268 301h651zM901 2036h52q102 0 216 -108
q80 -103 80 -216q0 -192 -200 -296q-50 -20 -112 -20h-12q-234 0 -312 248l-8 72q0 144 124 252q96 68 172 68z" />
    <glyph glyph-name="khahinitial" unicode="&#x62e;" horiz-adv-x="2140" arabic-form="initial" 
d="M961 2036h52q102 0 216 -108q80 -103 80 -216q0 -192 -200 -296q-50 -20 -112 -20h-12q-234 0 -312 248l-8 72q0 144 124 252q96 68 172 68zM1231 303v313h-752q-90 8 -188 104q-80 99 -80 196v336l8 8h1436q232 0 232 -216v-741h180v-303h-2267v303h1431z" />
    <glyph glyph-name="khahmedial" unicode="&#x62e;" horiz-adv-x="2109" arabic-form="medial" 
d="M951 2036h52q102 0 216 -108q80 -103 80 -216q0 -192 -200 -296q-50 -20 -112 -20h-12q-234 0 -312 248l-8 72q0 144 124 252q96 68 172 68zM2207 100l8 -8v-84l-8 -8h-2288v303h1322v313h-752q-90 8 -188 104q-80 99 -80 196v336l8 8h1436q232 0 232 -216v-741h310v-203
z" />
    <glyph glyph-name="dalisolated" unicode="&#x62f;" horiz-adv-x="1784" arabic-form="isolated" 
d="M1028 303v309l-288 -4h-520q-93 0 -120 100v436q0 76 96 112h1264q149 0 204 -104q20 -53 20 -104v-1048h-1583v7l-1 1v84l1 1v210h927z" />
    <glyph glyph-name="dalfinal" unicode="&#x62f;" horiz-adv-x="1897" arabic-form="final" 
d="M2097 102h1v-103h-790v1h-1208v303h928v309l-288 -4h-520q-93 0 -120 100v436q0 76 96 112h1264q149 0 204 -104q20 -53 20 -104v-745h413v-201z" />
    <glyph glyph-name="thalisolated" unicode="&#x630;" horiz-adv-x="1784" arabic-form="isolated" 
d="M864 2178h52q102 0 216 -108q80 -103 80 -216q0 -192 -200 -296q-50 -20 -112 -20h-12q-234 0 -312 248l-8 72q0 144 124 252q96 68 172 68zM1028 303v309l-288 -4h-520q-93 0 -120 100v436q0 76 96 112h1264q149 0 204 -104q20 -53 20 -104v-1048h-1583v7l-1 1v84l1 1
v210h927z" />
    <glyph glyph-name="thalfinal" unicode="&#x630;" horiz-adv-x="1926" arabic-form="final" 
d="M854 2178h52q102 0 216 -108q80 -103 80 -216q0 -192 -200 -296q-50 -20 -112 -20h-12q-234 0 -312 248l-8 72q0 144 124 252q96 68 172 68zM2097 102h1v-103h-790v1h-1208v303h928v309l-288 -4h-520q-93 0 -120 100v436q0 76 96 112h1264q149 0 204 -104q20 -53 20 -104
v-745h413v-201z" />
    <glyph glyph-name="rehisolated" unicode="&#x631;" horiz-adv-x="1308" arabic-form="isolated" 
d="M590 -2v1100q-31 187 173 167h337q108 -27 108 -104v-1524q0 -80 -108 -104h-992l-1 1h-7v303h345q144 0 145 161z" />
    <glyph glyph-name="rehfinal" unicode="&#x631;" horiz-adv-x="1420" arabic-form="final" 
d="M1208 303h336v-303h-336v-363q0 -80 -108 -104h-992l-1 1h-7v303h345q144 0 145 161v1100q-31 187 173 167h337q108 -27 108 -104v-858z" />
    <glyph glyph-name="zainisolated" unicode="&#x632;" horiz-adv-x="1568" arabic-form="isolated" 
d="M863 1998h52q102 0 216 -108q80 -103 80 -216q0 -192 -200 -296q-50 -20 -112 -20h-12q-234 0 -312 248l-8 72q0 144 124 252q96 68 172 68zM590 -2v1100q-31 187 173 167h337q108 -27 108 -104v-1524q0 -80 -108 -104h-992l-1 1h-7v303h345q144 0 145 161z" />
    <glyph glyph-name="zainfinal" unicode="&#x632;" horiz-adv-x="1420" arabic-form="final" 
d="M873 1998h52q102 0 216 -108q80 -103 80 -216q0 -192 -200 -296q-50 -20 -112 -20h-12q-234 0 -312 248l-8 72q0 144 124 252q96 68 172 68zM1208 303h336v-303h-336v-363q0 -80 -108 -104h-992l-1 1h-7v303h345q144 0 145 161v1100q-31 187 173 167h337
q108 -27 108 -104v-858z" />
    <glyph glyph-name="seenisolated" unicode="&#x633;" horiz-adv-x="3980" arabic-form="isolated" 
d="M2169 303h203v855q0 71 96 108h444q67 0 108 -88l4 -64v-811h204v819q0 110 88 140l24 4h432q53 0 92 -60q16 -26 16 -40v-1068q0 -47 -68 -88l-36 -8h-229v-2h-1377v-374q0 -62 -96 -96h-1854q-90 0 -120 88v1543q0 58 88 100l44 4h388q128 -18 128 -120v-1314h774
l-2 1330q0 71 96 108h444q67 0 108 -88z" />
    <glyph glyph-name="seenfinal" unicode="&#x633;" horiz-adv-x="4094" arabic-form="final" 
d="M3880 303h303l4 -304h-685v1h-1332v-374q0 -62 -96 -96h-1854q-90 0 -120 88v1543q0 58 88 100l44 4h388q128 -18 128 -120v-1314h774l-2 1330q0 71 96 108h444q67 0 108 -88l1 -878h203v855q0 71 96 108h444q67 0 108 -88l4 -64v-811h204v819q0 110 88 140l24 4h432
q53 0 92 -60q16 -26 16 -40v-863z" />
    <glyph glyph-name="seeninitial" unicode="&#x633;" horiz-adv-x="2657" arabic-form="initial" 
d="M858 0v-5h-639v4h-258v1h-11v303h269v835q0 94 92 124l24 4h420q75 0 112 -88l4 -36v-839h212v855q0 71 96 108h444q67 0 108 -88l4 -64v-811h204v819q0 110 88 140l24 4h432q53 0 92 -60q16 -26 16 -40v-1064q-29 -87 -130 -100h-244v-2h-1359z" />
    <glyph glyph-name="seenmedial" unicode="&#x633;" horiz-adv-x="2799" arabic-form="medial" 
d="M857 0v-5h-639v4h-478v304h478v835q0 94 92 124l24 4h420q75 0 112 -88l4 -36v-839h212v855q0 71 96 108h444q67 0 108 -88l4 -64v-811h204v819q0 110 88 140l24 4h432q53 0 92 -60q16 -26 16 -40v-863h486v-201h2v-103h-618v1h-1603z" />
    <glyph glyph-name="sheenisolated" unicode="&#x634;" horiz-adv-x="3980" arabic-form="isolated" 
d="M2853 2675h52q102 0 216 -108q80 -103 80 -216q0 -192 -200 -296q-50 -20 -112 -20h-12q-234 0 -312 248l-8 72q0 144 124 252q96 68 172 68zM2521 2027q200 0 300 -216l16 -88v-36q0 -144 -152 -256q-64 -44 -168 -44q-191 0 -280 164q-40 64 -40 124v60q0 102 100 204
q92 88 224 88zM3245 2027q182 0 288 -184q28 -60 28 -140q0 -188 -180 -288q-49 -28 -140 -28q-183 0 -276 156q-44 69 -44 164q0 182 172 284q68 36 152 36zM2169 303h203v855q0 71 96 108h444q67 0 108 -88l4 -64v-811h204v819q0 110 88 140l24 4h432q53 0 92 -60
q16 -26 16 -40v-1068q0 -47 -68 -88l-36 -8h-229v-2h-1377v-374q0 -62 -96 -96h-1854q-90 0 -120 88v1543q0 58 88 100l44 4h388q128 -18 128 -120v-1314h774l-2 1330q0 71 96 108h444q67 0 108 -88z" />
    <glyph glyph-name="sheenfinal" unicode="&#x634;" horiz-adv-x="4081" arabic-form="final" 
d="M2683 2675h52q102 0 216 -108q80 -103 80 -216q0 -192 -200 -296q-50 -20 -112 -20h-12q-234 0 -312 248l-8 72q0 144 124 252q96 68 172 68zM2351 2027q200 0 300 -216l16 -88v-36q0 -144 -152 -256q-64 -44 -168 -44q-191 0 -280 164q-40 64 -40 124v60q0 102 100 204
q92 88 224 88zM3075 2027q182 0 288 -184q28 -60 28 -140q0 -188 -180 -288q-49 -28 -140 -28q-183 0 -276 156q-44 69 -44 164q0 182 172 284q68 36 152 36zM3880 303h313l4 -304h-695v1h-1332v-374q0 -62 -96 -96h-1854q-90 0 -120 88v1543q0 58 88 100l44 4h388
q128 -18 128 -120v-1314h774l-2 1330q0 71 96 108h444q67 0 108 -88l1 -878h203v855q0 71 96 108h444q67 0 108 -88l4 -64v-811h204v819q0 110 88 140l24 4h432q53 0 92 -60q16 -26 16 -40v-863z" />
    <glyph glyph-name="sheeninitial" unicode="&#x634;" horiz-adv-x="2663" arabic-form="initial" 
d="M1374 2675h52q102 0 216 -108q80 -103 80 -216q0 -192 -200 -296q-50 -20 -112 -20h-12q-234 0 -312 248l-8 72q0 144 124 252q96 68 172 68zM1042 2027q200 0 300 -216l16 -88v-36q0 -144 -152 -256q-64 -44 -168 -44q-191 0 -280 164q-40 64 -40 124v60q0 102 100 204
q92 88 224 88zM1766 2027q182 0 288 -184q28 -60 28 -140q0 -188 -180 -288q-49 -28 -140 -28q-183 0 -276 156q-44 69 -44 164q0 182 172 284q68 36 152 36zM848 0v-5h-639v4h-478v103h1v201h477v835q0 94 92 124l24 4h420q75 0 112 -88l4 -36v-839h212v855q0 71 96 108
h444q67 0 108 -88l4 -64v-811h204v819q0 110 88 140l24 4h432q53 0 92 -60q16 -26 16 -40v-1064q-29 -87 -130 -100h-244v-2h-1359z" />
    <glyph glyph-name="sheenmedial" unicode="&#x634;" horiz-adv-x="2804" arabic-form="medial" 
d="M1373 2675h52q102 0 216 -108q80 -103 80 -216q0 -192 -200 -296q-50 -20 -112 -20h-12q-234 0 -312 248l-8 72q0 144 124 252q96 68 172 68zM1041 2027q200 0 300 -216l16 -88v-36q0 -144 -152 -256q-64 -44 -168 -44q-191 0 -280 164q-40 64 -40 124v60q0 102 100 204
q92 88 224 88zM1765 2027q182 0 288 -184q28 -60 28 -140q0 -188 -180 -288q-49 -28 -140 -28q-183 0 -276 156q-44 69 -44 164q0 182 172 284q68 36 152 36zM847 0v-5h-639v4h-478v304h478v835q0 94 92 124l24 4h420q75 0 112 -88l4 -36v-839h212v855q0 71 96 108h444
q67 0 108 -88l4 -64v-811h204v819q0 110 88 140l24 4h432q53 0 92 -60q16 -26 16 -40v-863h484v-201h4v-103h-618v1h-1603z" />
    <glyph glyph-name="sadisolated" unicode="&#x635;" horiz-adv-x="4592" arabic-form="isolated" 
d="M2997 902v-617h848v601q0 58 -28 72l-48 7h-708q-64 0 -64 -63zM2169 303h176l3 853q0 73 96 108h1940q53 0 92 -60q16 -26 16 -40v-1068q0 -47 -63 -83v-13h-1433v-332q0 -124 -136 -124h-388q-128 13 -128 120v336h-174v-374q0 -62 -96 -96h-1854q-90 0 -120 88v1543
q0 58 88 100l44 4h388q128 -18 128 -120v-1314h774l-2 1330q0 71 96 108h444q67 0 108 -88z" />
    <glyph glyph-name="sadfinal" unicode="&#x635;" horiz-adv-x="4726" arabic-form="final" 
d="M3007 902v-617h848v601q0 58 -28 72l-48 7h-708q-64 0 -64 -63zM4502 303h457v-303h-1953v-332q0 -124 -136 -124h-388q-128 13 -128 120v336h-174v-374q0 -62 -96 -96h-1854q-90 0 -120 88v1543q0 58 88 100l44 4h388q128 -18 128 -120v-1314h774l-2 1330q0 71 96 108
h444q67 0 108 -88l1 -878h176l3 853q0 73 96 108h1940q53 0 92 -60q16 -26 16 -40v-861z" />
    <glyph glyph-name="sadinitial" unicode="&#x635;" horiz-adv-x="3398" arabic-form="initial" 
d="M447 0v-1h-617v1h-12v303h420v833q0 100 108 128h428q116 -22 116 -116v-845h225l3 853q0 73 96 108h1940q53 0 92 -60q16 -26 16 -40v-1068q0 -53 -80 -92l-36 -4h-1380v-332q0 -124 -136 -124h-388q-128 13 -128 120v336h-667zM1771 923v-617h848v601q0 58 -28 72
l-48 7h-708q-64 0 -64 -63z" />
    <glyph glyph-name="sadmedial" unicode="&#x635;" horiz-adv-x="3445" arabic-form="medial" 
d="M1737 904v-597h848v581q0 57 -28 71l-48 6h-708q-64 0 -64 -61zM3612 103h2v-103h-1878v-332q0 -124 -136 -124h-388q-128 13 -128 120v336h-667v-1h-617v1h-6v303h414v833q0 100 108 128h428q116 -22 116 -116v-845h225l3 853q0 73 96 108h1940q53 0 92 -60
q16 -26 16 -40v-861h380v-200z" />
    <glyph glyph-name="dadisolated" unicode="&#x636;" horiz-adv-x="4592" arabic-form="isolated" 
d="M3373 2047h52q102 0 216 -108q80 -103 80 -216q0 -192 -200 -296q-50 -20 -112 -20h-12q-234 0 -312 248l-8 72q0 144 124 252q96 68 172 68zM2997 902v-617h848v601q0 58 -28 72l-48 7h-708q-64 0 -64 -63zM2169 303h176l3 853q0 73 96 108h1940q53 0 92 -60
q16 -26 16 -40v-1068q0 -47 -63 -83v-13h-1433v-332q0 -124 -136 -124h-388q-128 13 -128 120v336h-174v-374q0 -62 -96 -96h-1854q-90 0 -120 88v1543q0 58 88 100l44 4h388q128 -18 128 -120v-1314h774l-2 1330q0 71 96 108h444q67 0 108 -88z" />
    <glyph glyph-name="dadfinal" unicode="&#x636;" horiz-adv-x="4714" arabic-form="final" 
d="M3413 2047h52q102 0 216 -108q80 -103 80 -216q0 -192 -200 -296q-50 -20 -112 -20h-12q-234 0 -312 248l-8 72q0 144 124 252q96 68 172 68zM3017 902v-617h848v601q0 58 -28 72l-48 7h-708q-64 0 -64 -63zM4512 303h356v-303h-1852v-332q0 -124 -136 -124h-388
q-128 13 -128 120v336h-174v-374q0 -62 -96 -96h-1854q-90 0 -120 88v1543q0 58 88 100l44 4h388q128 -18 128 -120v-1314h774l-2 1330q0 71 96 108h444q67 0 108 -88l1 -878h176l3 853q0 73 96 108h1940q53 0 92 -60q16 -26 16 -40v-861z" />
    <glyph glyph-name="dadinitial" unicode="&#x636;" horiz-adv-x="3529" arabic-form="initial" 
d="M2130 2037h52q102 0 216 -108q80 -103 80 -216q0 -192 -200 -296q-50 -20 -112 -20h-12q-234 0 -312 248l-8 72q0 144 124 252q96 68 172 68zM427 0v-1h-477v1h-12v303h280v833q0 100 108 128h428q116 -22 116 -116v-845h225l3 853q0 73 96 108h1940q53 0 92 -60
q16 -26 16 -40v-1068q0 -53 -80 -92l-36 -4h-1380v-332q0 -124 -136 -124h-388q-128 13 -128 120v336h-667zM1742 912v-617h848v601q0 58 -28 72l-48 7h-708q-64 0 -64 -63z" />
    <glyph glyph-name="dadmedial" unicode="&#x636;" horiz-adv-x="3445" arabic-form="medial" 
d="M2160 2037h52q102 0 216 -108q80 -103 80 -216q0 -192 -200 -296q-50 -20 -112 -20h-12q-234 0 -312 248l-8 72q0 144 124 252q96 68 172 68zM3612 103h2v-103h-1878v-332q0 -124 -136 -124h-388q-128 13 -128 120v336h-667v-1h-617v1h-6v303h414v833q0 100 108 128h428
q116 -22 116 -116v-845h225l3 853q0 73 96 108h1940q53 0 92 -60q16 -26 16 -40v-861h380v-200zM1732 912v-617h848v601q0 58 -28 72l-48 7h-708q-64 0 -64 -63z" />
    <glyph glyph-name="tahisolated" unicode="&#x637;" horiz-adv-x="2752" arabic-form="isolated" 
d="M852 2228q108 -28 108 -108v-624q0 -85 -92 -116h-456q-84 22 -84 56q-14 0 -20 72v588q0 104 100 132h444zM960 905v-584l-4 -16h1048v571q0 68 -68 68h-916q-60 -6 -60 -39zM308 303v841q17 120 112 120l28 4h2064q107 0 140 -96v-1076q0 -53 -80 -92l-36 -4h-2436v303
h208z" />
    <glyph glyph-name="tahfinal" unicode="&#x637;" horiz-adv-x="2867" arabic-form="final" 
d="M852 2228q108 -28 108 -108v-624q0 -85 -92 -116h-456q-84 22 -84 56q-14 0 -20 72v588q0 104 100 132h444zM960 925v-604l-4 -16h1048v591q0 68 -68 68h-916q-60 -6 -60 -39zM2949 102h3v-103h-650v1h-2206v303h212v841q17 120 112 120l28 4h2064q107 0 140 -96v-869
h297v-201z" />
    <glyph glyph-name="tahinitial" unicode="&#x637;" horiz-adv-x="2708" arabic-form="initial" 
d="M752 2228q108 -28 108 -108v-624q0 -85 -92 -116h-456q-84 22 -84 56q-14 0 -20 72v588q0 104 100 132h444zM860 955v-634l-4 -16h1048v621q0 68 -68 68h-916q-60 -6 -60 -39zM208 303v841q17 120 112 120l28 4h2064q107 0 140 -96v-1076q0 -53 -80 -92l-36 -4h-2436v303
h208z" />
    <glyph glyph-name="tahmedial" unicode="&#x637;" horiz-adv-x="3012" arabic-form="medial" 
d="M872 2228q108 -28 108 -108v-624q0 -85 -92 -116h-456q-84 22 -84 56q-14 0 -20 72v588q0 104 100 132h444zM980 925v-604l-4 -16h1048v591q0 68 -68 68h-916q-60 -6 -60 -39zM3039 102h3v-103h-720v1h-2356v303h362v841q17 120 112 120l28 4h2064q107 0 140 -96v-869
h367v-201z" />
    <glyph glyph-name="zahisolated" unicode="&#x638;" horiz-adv-x="2752" arabic-form="isolated" 
d="M852 2228q108 -28 108 -108v-624q0 -85 -92 -116h-456q-84 22 -84 56q-14 0 -20 72v588q0 104 100 132h444zM852 2228q108 -28 108 -108v-624q0 -85 -92 -116h-456q-84 22 -84 56q-14 0 -20 72v588q0 104 100 132h444zM960 955v-634l-4 -16h1048v621q0 68 -68 68h-916
q-60 -6 -60 -39zM308 303v841q17 120 112 120l28 4h2064q107 0 140 -96v-1076q0 -53 -80 -92l-36 -4h-2436v303h208zM1361 2036h52q102 0 216 -108q80 -103 80 -216q0 -192 -200 -296q-50 -20 -112 -20h-12q-234 0 -312 248l-8 72q0 144 124 252q96 68 172 68z" />
    <glyph glyph-name="zahfinal" unicode="&#x638;" horiz-adv-x="3002" arabic-form="final" 
d="M852 2228q108 -28 108 -108v-624q0 -85 -92 -116h-456q-84 22 -84 56q-14 0 -20 72v588q0 104 100 132h444zM960 955v-634l-4 -16h1048v621q0 68 -68 68h-916q-60 -6 -60 -39zM3209 102h3v-103h-910v1h-2206v303h212v841q17 120 112 120l28 4h2064q107 0 140 -96v-869
h557v-201zM1341 2036h52q102 0 216 -108q80 -103 80 -216q0 -192 -200 -296q-50 -20 -112 -20h-12q-234 0 -312 248l-8 72q0 144 124 252q96 68 172 68z" />
    <glyph glyph-name="zahinitial" unicode="&#x638;" horiz-adv-x="2718" arabic-form="initial" 
d="M752 2228q108 -28 108 -108v-624q0 -85 -92 -116h-456q-84 22 -84 56q-14 0 -20 72v588q0 104 100 132h444zM860 955v-634l-4 -16h1048v621q0 68 -68 68h-916q-60 -6 -60 -39zM208 303v841q17 120 112 120l28 4h2064q107 0 140 -96v-1076q0 -53 -80 -92l-36 -4h-2436v303
h208zM1251 2036h52q102 0 216 -108q80 -103 80 -216q0 -192 -200 -296q-50 -20 -112 -20h-12q-234 0 -312 248l-8 72q0 144 124 252q96 68 172 68z" />
    <glyph glyph-name="zahmedial" unicode="&#x638;" horiz-adv-x="2795" arabic-form="medial" 
d="M752 2228q108 -28 108 -108v-624q0 -85 -92 -116h-456q-84 22 -84 56q-14 0 -20 72v588q0 104 100 132h444zM860 955v-634l-4 -16h1048v621q0 68 -68 68h-916q-60 -6 -60 -39zM2919 102h3v-103h-720v1h-2386v303h392v841q17 120 112 120l28 4h2064q107 0 140 -96v-869
h367v-201zM1251 2036h52q102 0 216 -108q80 -103 80 -216q0 -192 -200 -296q-50 -20 -112 -20h-12q-234 0 -312 248l-8 72q0 144 124 252q96 68 172 68z" />
    <glyph glyph-name="ainisolated" unicode="&#x639;" horiz-adv-x="1864" arabic-form="isolated" 
d="M180 -792q-80 7 -80 56v724q0 81 116 112h128v4q-22 0 -44 68v1188q0 81 96 120h1164q53 0 100 -76l8 -36v-756l-8 -8h-596l-8 8v512q-8 88 -72 88q-72 -16 -72 -72l-1 -677q-2 -160 132 -160h721v-303h-1016v-337q0 -151 192 -151h823v-199l1 -1v-96l-1 -1v-7h-1583z
" />
    <glyph glyph-name="ainfinal" unicode="&#x639;" horiz-adv-x="1947" arabic-form="final" 
d="M940 1130v-706q10 -64 64 -64h12q64 10 64 64v706q0 53 -60 68h-20q-60 -15 -60 -68zM1758 -790l-2 -2h-1576q-80 7 -80 56v724q0 81 116 112h128v4q-4 0 -8 2h248q-1 232 -292 422l-24 24v764q0 164 136 164h1212q86 0 120 -64q11 -17 16 -52l-4 -100v-716
q-179 -128 -254 -245h536v-207l4 -4v-84l-4 -4v-4h-1048q-231 0 -232.5 -243.5t156.5 -246.5l862 3v-303h-10z" />
    <glyph glyph-name="aininitial" unicode="&#x639;" horiz-adv-x="1775" arabic-form="initial" 
d="M668 0v-5h-701v5h-7v303l467 -3q-212 34 -207 206v317v537q0 81 96 120h1164q53 0 100 -76l8 -36v-756l-8 -8h-596l-8 8v512q-8 88 -72 88q-72 -16 -72 -72l-2 -652q-1 -185 188 -185h677v-303h-1027z" />
    <glyph glyph-name="ainmedial" unicode="&#x639;" horiz-adv-x="1917" arabic-form="medial" 
d="M900 1130v-706q10 -64 64 -64h12q64 10 64 64v706q0 53 -60 68h-20q-60 -15 -60 -68zM486 303q-72 119 -234 225l-24 24v764q0 164 136 164h1212q86 0 120 -64q11 -17 16 -52l-4 -100v-716q-179 -128 -254 -245h543v-303h-2057v303h546z" />
    <glyph glyph-name="ghainisolated" unicode="&#x63a;" horiz-adv-x="1864" arabic-form="isolated" 
d="M180 -792q-80 7 -80 56v724q0 81 116 112h128v4q-22 0 -44 68v1188q0 81 96 120h1164q53 0 100 -76l8 -36v-756l-8 -8h-596l-8 8v502q-8 88 -72 88q-72 -16 -72 -72l-1 -667q-2 -160 132 -160h721v-303h-1016v-337q0 -151 192 -151h823v-199l1 -1v-96l-1 -1v-7h-1583z
M951 2256h52q102 0 216 -108q80 -103 80 -216q0 -192 -200 -296q-50 -20 -112 -20h-12q-234 0 -312 248l-8 72q0 144 124 252q96 68 172 68z" />
    <glyph glyph-name="ghainfinal" unicode="&#x63a;" horiz-adv-x="1973" arabic-form="final" 
d="M940 1130v-706q10 -64 64 -64h12q64 10 64 64v706q0 53 -60 68h-20q-60 -15 -60 -68zM1758 -790l-2 -2h-1576q-80 7 -80 56v724q0 81 116 112h128v4q-4 0 -8 2h248q-1 232 -292 422l-24 24v764q0 164 136 164h1212q86 0 120 -64q11 -17 16 -52l-4 -100v-716
q-179 -128 -254 -245h556v-207l4 -4v-84l-4 -4v-4h-1068q-231 0 -232.5 -243.5t156.5 -246.5l862 3v-303h-10zM951 2256h52q102 0 216 -108q80 -103 80 -216q0 -192 -200 -296q-50 -20 -112 -20h-12q-234 0 -312 248l-8 72q0 144 124 252q96 68 172 68z" />
    <glyph glyph-name="ghaininitial" unicode="&#x63a;" horiz-adv-x="1796" arabic-form="initial" 
d="M851 2256h52q102 0 216 -108q80 -103 80 -216q0 -192 -200 -296q-50 -20 -112 -20h-12q-234 0 -312 248l-8 72q0 144 124 252q96 68 172 68zM678 0v-5h-731v5h-7v303l497 -3q-212 34 -207 206v317v537q0 81 96 120h1164q53 0 100 -76l8 -36v-756l-8 -8h-596l-8 8v512
q-8 88 -72 88q-72 -16 -72 -72l-2 -652q-1 -185 188 -185h677v-303h-1027z" />
    <glyph glyph-name="ghainmedial" unicode="&#x63a;" horiz-adv-x="1931" arabic-form="medial" 
d="M921 2256h52q102 0 216 -108q80 -103 80 -216q0 -192 -200 -296q-50 -20 -112 -20h-12q-234 0 -312 248l-8 72q0 144 124 252q96 68 172 68zM890 1110v-686q10 -64 64 -64h12q64 10 64 64v686q0 53 -60 68h-20q-60 -15 -60 -68zM476 303q-72 119 -234 225l-24 24v764
q0 164 136 164h1212q86 0 120 -64q11 -17 16 -52l-4 -100v-716q-179 -128 -254 -245h563v-303h-2077v303h546z" />
    <glyph glyph-name="fehisolated" unicode="&#x641;" horiz-adv-x="2846" arabic-form="isolated" 
d="M1975 2226h52q102 0 216 -108q80 -103 80 -216q0 -192 -200 -296q-50 -20 -112 -20h-12q-234 0 -312 248l-8 72q0 144 124 252q96 68 172 68zM1950 1144v-510q11 -68 64 -68h20q60 11 60 80v506q-14 76 -72 76q-64 0 -72 -84zM791 303h1260q41 9 41 45v6h-606
q-72 0 -108 96v908q15 88 108 108h727q16 2 35 2h344q18 0 33 -2h13q37 0 70 -35q16 -15 26 -35l4 -6l1 -4q3 -7 5 -14v-9l2 -9v-992q0 -11 -2 -20v-246q0 -52 -80 -92l-36 -4h-2412q-84 0 -116 88v1276q0 74 120 104h376q123 0 152 -96v-1012q0 -47 43 -57z" />
    <glyph glyph-name="fehfinal" unicode="&#x641;" horiz-adv-x="2967" arabic-form="final" 
d="M1995 2236h52q102 0 216 -108q80 -103 80 -216q0 -192 -200 -296q-50 -20 -112 -20h-12q-234 0 -312 248l-8 72q0 144 124 252q96 68 172 68zM1950 1144v-510q11 -68 64 -68h20q60 11 60 80v506q-14 76 -72 76q-64 0 -72 -84zM2744 303h318v-200h2v-103h-2848
q-84 0 -116 88v1276q0 74 120 104h376q123 0 152 -96v-1012q0 -47 43 -57h1260q41 9 41 45v6h-606q-72 0 -108 96v908q15 88 108 108h727q16 2 35 2h344q18 0 33 -2h13q37 0 70 -35q16 -15 26 -35l4 -6l1 -4q3 -7 5 -14v-9l2 -9v-992q0 -11 -2 -20v-39z" />
    <glyph glyph-name="fehinitial" unicode="&#x641;" horiz-adv-x="1671" arabic-form="initial" 
d="M811 2236h52q102 0 216 -108q80 -103 80 -216q0 -192 -200 -296q-50 -20 -112 -20h-12q-234 0 -312 248l-8 72q0 144 124 252q96 68 172 68zM780 1144v-510q11 -68 64 -68h20q60 11 60 80v506q-14 76 -72 76q-64 0 -72 -84zM-83 303h964q41 9 41 45v6h-606q-72 0 -108 96
v908q15 88 108 108h727q16 2 35 2h344q18 0 33 -2h13q37 0 70 -35q16 -15 26 -35l4 -6l1 -4q3 -7 5 -14v-9l2 -9l-2 -1258q0 -52 -80 -92l-36 -4h-1541v303z" />
    <glyph glyph-name="fehmedial" unicode="&#x641;" horiz-adv-x="1831" arabic-form="medial" 
d="M822 2226h52q102 0 216 -108q80 -103 80 -216q0 -192 -200 -296q-50 -20 -112 -20h-12q-234 0 -312 248l-8 72q0 144 124 252q96 68 172 68zM801 1144v-510q11 -68 64 -68h20q60 11 60 80v506q-14 76 -72 76q-64 0 -72 -84zM902 303q41 9 41 45v6h-606q-72 0 -108 96v908
q15 88 108 108h727q16 2 35 2h344q18 0 33 -2h13q37 0 70 -35q16 -15 26 -35l4 -6l1 -4q3 -7 5 -14v-9l2 -9v-992q0 -11 -2 -20v-39h288v-200h2v-103h-1943l7 303h953z" />
    <glyph glyph-name="qafisolated" unicode="&#x642;" horiz-adv-x="2853" arabic-form="isolated" 
d="M2405 2226h52q102 0 216 -108q80 -103 80 -216q0 -192 -200 -296q-50 -20 -112 -20h-12q-234 0 -312 248l-8 72q0 144 124 252q96 68 172 68zM1675 2236h52q102 0 216 -108q80 -103 80 -216q0 -192 -200 -296q-50 -20 -112 -20h-12q-234 0 -312 248l-8 72q0 144 124 252
q96 68 172 68zM1950 1144v-510q11 -68 64 -68h20q60 11 60 80v506q-14 76 -72 76q-64 0 -72 -84zM791 303h1260q41 9 41 45v6h-606q-72 0 -108 96v908q15 88 108 108h727q16 2 35 2h344q18 0 33 -2h13q37 0 70 -35q16 -15 26 -35l4 -6l1 -4q3 -7 5 -14v-9l2 -9v-992
q0 -11 -2 -20v-246q0 -52 -80 -92l-36 -4h-2412q-84 0 -116 88v1276q0 74 120 104h376q123 0 152 -96v-1012q0 -47 43 -57z" />
    <glyph glyph-name="qaffinal" unicode="&#x642;" horiz-adv-x="2967" arabic-form="final" 
d="M2405 2226h52q102 0 216 -108q80 -103 80 -216q0 -192 -200 -296q-50 -20 -112 -20h-12q-234 0 -312 248l-8 72q0 144 124 252q96 68 172 68zM1675 2236h52q102 0 216 -108q80 -103 80 -216q0 -192 -200 -296q-50 -20 -112 -20h-12q-234 0 -312 248l-8 72q0 144 124 252
q96 68 172 68zM1950 1144v-510q11 -68 64 -68h20q60 11 60 80v506q-14 76 -72 76q-64 0 -72 -84zM2744 303h328v-200h2v-103h-2858q-84 0 -116 88v1276q0 74 120 104h376q123 0 152 -96v-1012q0 -47 43 -57h1260q41 9 41 45v6h-606q-72 0 -108 96v908q15 88 108 108h727
q16 2 35 2h344q18 0 33 -2h13q37 0 70 -35q16 -15 26 -35l4 -6l1 -4q3 -7 5 -14v-9l2 -9v-992q0 -11 -2 -20v-39z" />
    <glyph glyph-name="qafinitial" unicode="&#x642;" horiz-adv-x="1702" arabic-form="initial" 
d="M1265 2226h52q102 0 216 -108q80 -103 80 -216q0 -192 -200 -296q-50 -20 -112 -20h-12q-234 0 -312 248l-8 72q0 144 124 252q96 68 172 68zM535 2236h52q102 0 216 -108q80 -103 80 -216q0 -192 -200 -296q-50 -20 -112 -20h-12q-234 0 -312 248l-8 72q0 144 124 252
q96 68 172 68zM790 1144v-510q11 -68 64 -68h20q60 11 60 80v506q-14 76 -72 76q-64 0 -72 -84zM-73 303h964q41 9 41 45v6h-606q-72 0 -108 96v908q15 88 108 108h727q16 2 35 2h344q18 0 33 -2h13q37 0 70 -35q16 -15 26 -35l4 -6l1 -4q3 -7 5 -14v-9l2 -9l-2 -1258
q0 -52 -80 -92l-36 -4h-1541v303z" />
    <glyph glyph-name="qafmedial" unicode="&#x642;" horiz-adv-x="1785" arabic-form="medial" 
d="M1246 2226h52q102 0 216 -108q80 -103 80 -216q0 -192 -200 -296q-50 -20 -112 -20h-12q-234 0 -312 248l-8 72q0 144 124 252q96 68 172 68zM516 2236h52q102 0 216 -108q80 -103 80 -216q0 -192 -200 -296q-50 -20 -112 -20h-12q-234 0 -312 248l-8 72q0 144 124 252
q96 68 172 68zM781 1144v-510q11 -68 64 -68h20q60 11 60 80v506q-14 76 -72 76q-64 0 -72 -84zM882 303q41 9 41 45v6h-606q-72 0 -108 96v908q15 88 108 108h727q16 2 35 2h344q18 0 33 -2h13q37 0 70 -35q16 -15 26 -35l4 -6l1 -4q3 -7 5 -14v-9l2 -9v-992q0 -11 -2 -20
v-39h278v-200h2v-103h-1923l7 303h943z" />
    <glyph glyph-name="kafisolated" unicode="&#x643;" horiz-adv-x="2844" arabic-form="isolated" 
d="M1672 1382q152 -13 152 -28v-388l-8 -8h-152q-84 0 -112 -100v-20q18 -108 100 -108h192l8 -8v-320l-8 -8h-904l-8 8v316l8 8h248q-20 53 -20 172q0 285 256 424q83 44 240 60h8zM2092 303v1712q0 117 84 148l28 4h432q53 0 92 -60q16 -26 16 -40v-1963q0 -80 -108 -104
h-2428q-74 0 -108 92v1072q0 69 104 100l28 4h376q140 -17 140 -108v-857h1344z" />
    <glyph glyph-name="arabickaffinal" unicode="&#x643;" horiz-adv-x="2956" arabic-form="final" 
d="M1672 1382q152 -13 152 -28v-388l-8 -8h-152q-84 0 -112 -100v-20q18 -108 100 -108h192l8 -8v-320l-8 -8h-904l-8 8v316l8 8h248q-20 53 -20 172q0 285 256 424q83 44 240 60h8zM2092 303v1712q0 117 84 148l28 4h432q53 0 92 -60q16 -26 16 -40v-1764h254v-303h-2790
q-74 0 -108 92v1072q0 69 104 100l28 4h376q140 -17 140 -108v-857h1344z" />
    <glyph glyph-name="kafinitial" unicode="&#x643;" horiz-adv-x="3310" arabic-form="initial" 
d="M2550 303v309h-2344q-66 0 -96 104v428q25 116 108 116h244q89 0 491.5 203t593.5 700l4 4h688l8 -8q-152 -592 -937 -895v-4h1672q179 0 220 -144l4 -52v-60l4 -1000l-4 -4h-3271v303h2615z" />
    <glyph glyph-name="kafmedial" unicode="&#x643;" horiz-adv-x="3531" arabic-form="medial" 
d="M3319 303h401v-303h-13v-1h-536v1h-3226v303h2715v309h-2344q-66 0 -96 104v428q25 116 108 116h244q89 0 491.5 203t593.5 700l4 4h688l8 -8q-152 -592 -937 -895v-4h1672q179 0 220 -144l4 -52v-60z" />
    <glyph glyph-name="lamisolated" unicode="&#x644;" horiz-adv-x="2000" arabic-form="isolated" 
d="M1252 -169v2211q0 71 96 108h444q67 0 108 -88v-2436q0 -62 -96 -96h-244v-3h-1151v3h-189q-90 0 -120 88v1076q0 58 88 100l44 4h388q128 -18 128 -120v-847h504z" />
    <glyph glyph-name="lamfinal" unicode="&#x644;" horiz-adv-x="2099" arabic-form="final" 
d="M1252 -169v2211q0 71 96 108h444q67 0 108 -88v-1759h283v-200h9v-103h-292v-374q0 -62 -96 -96h-1518q-156 0 -186 88v1076q0 58 88 100l44 4h388q128 -18 128 -120v-847h504z" />
    <glyph glyph-name="laminitial" unicode="&#x644;" horiz-adv-x="1004" arabic-form="initial" 
d="M-100 0v303h177q161 0 161 159v1593q0 34 12 48q41 64 96 64h428q74 0 108 -96v-1971q-24 -100 -120 -100h-862z" />
    <glyph glyph-name="lammedial" unicode="&#x644;" horiz-adv-x="1116" arabic-form="medial" 
d="M228 303v1729q0 100 92 128l32 4h404q80 0 116 -80q8 -17 8 -64v-1717h313v-303h-1270v303h305z" />
    <glyph glyph-name="meemisolated" unicode="&#x645;" horiz-adv-x="1764" arabic-form="isolated" 
d="M912 931v-600q0 -51 64 -60h8q57 0 68 72v576q0 63 -72 76q-57 0 -68 -64zM382 1263l10 4h1132q98 0 132 -80l8 -28v-1040q-15 -120 -120 -120h-635v-362q0 -80 -108 -104h-992l-1 1h-7v303h325q164 0 165 151v1110q-24 144 91 165z" />
    <glyph glyph-name="meemfinal" unicode="&#x645;" horiz-adv-x="1795" arabic-form="final" 
d="M832 931v-600q0 -51 64 -60h8q57 0 68 72v576q0 63 -72 76q-57 0 -68 -64zM1584 303h312v-303h-414q-8 -1 -18 -1h-635v-362q0 -80 -108 -104h-992l-1 1h-7v303h315q174 0 175 171v1090q-24 144 91 165l10 4h1132q98 0 132 -80l8 -28v-856z" />
    <glyph glyph-name="meeminitial" unicode="&#x645;" horiz-adv-x="1795" arabic-form="initial" 
d="M832 991v-660q0 -51 64 -60h8q57 0 68 72v636q0 63 -72 76q-57 0 -68 -64zM216 303v856q0 73 96 108h1132q98 0 132 -80l8 -28v-1040q-15 -120 -120 -120h-632q0 -2 1 -3h-617v3h-256v1h-14v303h270z" />
    <glyph glyph-name="meemmedial" unicode="&#x645;" horiz-adv-x="1805" arabic-form="medial" 
d="M832 981v-640q0 -51 64 -60h8q57 0 68 72v616q0 63 -72 76q-57 0 -68 -64zM1584 303h284v-303h-6v-1h-1030q0 -2 1 -3h-617v3h-276v103h3v201h273v856q0 73 96 108h1132q98 0 132 -80l8 -28v-856z" />
    <glyph glyph-name="noonisolated" unicode="&#x646;" horiz-adv-x="2270" arabic-form="isolated" 
d="M1112 807h46q89 0 200 -98q61 -96 61 -134l5 -57v-10q0 -113 -72 -191q-95 -93 -179 -93h-81q-70 6 -154 72q-92 96 -92 222q0 181 194 274zM1522 -169l-2 1330q0 71 96 108h444q67 0 108 -88l2 -1555q0 -62 -96 -96h-1854q-90 0 -120 88v1543q0 58 88 100l44 4h388
q128 -18 128 -120v-1314h774z" />
    <glyph glyph-name="noonfinal" unicode="&#x646;" horiz-adv-x="2383" arabic-form="final" 
d="M1121 817h46q89 0 200 -98q61 -96 61 -134l5 -57v-10q0 -113 -72 -191q-95 -93 -179 -93h-81q-70 6 -154 72q-92 96 -92 222q0 181 194 274zM1522 -169l-2 1329q0 71 96 108h444q67 0 108 -88l1 -877h309v-303h-39v-1l-270 1l1 -374q0 -62 -96 -96h-1854q-90 0 -120 88
v1542q0 58 88 100l44 4h388q128 -18 128 -120v-1313h774z" />
    <glyph glyph-name="nooninitial" unicode="&#x646;" horiz-adv-x="1105" arabic-form="initial" 
d="M496 2036h52q102 0 216 -108q80 -103 80 -216q0 -192 -200 -296q-50 -20 -112 -20h-12q-234 0 -312 248l-8 72q0 144 124 252q96 68 172 68zM-98 0v100h2v203h155q155 0 155 155v654q0 86 36 116q37 40 120 40h344q122 0 152 -96v-1076q0 -52 -80 -92l-36 -4h-848z" />
    <glyph glyph-name="noonmedial" unicode="&#x646;" horiz-adv-x="1075" arabic-form="medial" 
d="M-77 0v100h4v203h143q143 0 143 145v664q0 86 36 116q37 40 120 40h344q122 0 152 -96v-734q0 -135 137 -135h137v-303h-1216zM506 2036h52q102 0 216 -108q80 -103 80 -216q0 -192 -200 -296q-50 -20 -112 -20h-12q-234 0 -312 248l-8 72q0 144 124 252q96 68 172 68z
" />
    <glyph glyph-name="hehisolated" unicode="&#x647;" horiz-adv-x="1568" arabic-form="isolated" 
d="M712 965v-654q11 -68 64 -68h20q56 16 56 56v674q-15 60 -68 60q-56 0 -72 -68zM181 5q-41 12 -69 64q-12 14 -12 48v1020q0 96 100 124l40 4h1120q108 -27 108 -104v-1014q0 -142 -147 -152z" />
    <glyph glyph-name="hehfinal" unicode="&#x647;" horiz-adv-x="1673" arabic-form="final" 
d="M784 315q53 0 68 60v624q0 40 -56 56h-20q-53 0 -64 -68v-604q16 -68 72 -68zM1747 0v-1l-1506 1l-41 7q-100 28 -100 124v1020q0 34 12 48q37 68 96 68h644v254q-13 80 63 76h482q71 0 71 -70v-1102q0 -122 140 -122h140v-303h-1z" />
    <glyph glyph-name="hehinitial" unicode="&#x647;" horiz-adv-x="3331" arabic-form="initial" 
d="M1636 816v-430q11 -64 60 -64h20q60 15 60 60v430q-11 72 -72 72q-68 -14 -68 -68zM2868 1v-1h-2925v303h1077v577q0 74 100 112l52 4h1060q75 0 112 -28q48 -43 48 -100v-565h200v691q0 80 -64 80h-1592q-76 0 -76 -80v-462q0 -88 -104 -112h-416q-109 0 -128 104v632
q0 71 96 108h2824q53 0 92 -60q16 -26 16 -40v-1068q0 -55 -88 -96z" />
    <glyph glyph-name="hehmedial" unicode="&#x647;" horiz-adv-x="3484" arabic-form="medial" 
d="M1646 816v-450q11 -64 60 -64h20q60 15 60 60v450q-11 72 -72 72q-68 -14 -68 -68zM2817 0h-701v4h-618v-4h-1557v11l-1 1v84l1 1v206h1089v577q0 74 100 112l52 4h1060q75 0 112 -28q48 -43 48 -100v-565h200v671q0 80 -64 80h-1592q-76 0 -76 -80v-442q0 -88 -104 -112
h-416q-109 0 -128 104v632q0 71 96 108h2824q53 0 92 -60q16 -26 16 -40v-861h295v-201h2v-103h-730v1z" />
    <glyph glyph-name="wawisolated" unicode="&#x648;" horiz-adv-x="1568" arabic-form="isolated" 
d="M712 965v-604q11 -68 64 -68h20q56 16 56 56v624q-15 60 -68 60q-56 0 -72 -68zM852 -163v164h-644q-59 0 -96 68q-12 14 -12 48v1020q0 96 100 124l40 4h1120q108 -27 108 -104v-1524q0 -80 -108 -104h-1252l-1 1h-7v303h752z" />
    <glyph glyph-name="wawfinal" unicode="&#x648;" horiz-adv-x="1694" arabic-form="final" 
d="M712 975v-614q11 -68 64 -68h20q56 16 56 56v634q-15 60 -68 60q-56 0 -72 -68zM1468 303h289v-200h8v-103h-297v-363q0 -80 -108 -104h-1252l-1 1h-7v303h752v164h-644q-59 0 -96 68q-12 14 -12 48v1020q0 96 100 124l40 4h1120q108 -27 108 -104v-858z" />
    <glyph glyph-name="alefmaksuraisolated" unicode="&#x649;" horiz-adv-x="3404" arabic-form="isolated" 
d="M2183 1269h969v-1q122 0 152 -96v-1076q0 -52 -80 -92l-36 -4h-2972q-84 0 -116 88v1076q0 74 120 104h376q123 0 152 -96v-671q0 -198 196 -198h1511q197 0 197 198v465h-1243l1 303q701 382 554 893l766 -1q-13 -568 -547 -892z" />
    <glyph glyph-name="alefmaksurafinal" unicode="&#x649;" horiz-adv-x="3534" arabic-form="final" 
d="M2756 0q-56 0 -96 88l-4 60v828q-3 40 -80 92q-82 40 -140 40h-40q-114 0 -200 -128v-884q0 -51 -72 -88l-32 -8h-1896q-56 0 -96 88v1060q0 78 84 112l24 4h432q54 0 92 -60q16 -26 16 -40v-758q0 -75 184 -100l156 -12h120q313 17 336 88v738q0 110 88 140l24 4h1524
q91 0 128 -96v-865h296v-303h-848z" />
    <glyph glyph-name="yehisolated" unicode="&#x64a;" horiz-adv-x="3404" arabic-form="isolated" 
d="M2027 -144h52q102 0 216 -108q80 -103 80 -216q0 -192 -200 -296q-50 -20 -112 -20h-12q-234 0 -312 248l-8 72q0 144 124 252q96 68 172 68zM1297 -134h52q102 0 216 -108q80 -103 80 -216q0 -192 -200 -296q-50 -20 -112 -20h-12q-234 0 -312 248l-8 72q0 144 124 252
q96 68 172 68zM2183 1269h969v-1q122 0 152 -96v-1076q0 -52 -80 -92l-36 -4h-2972q-84 0 -116 88v1076q0 74 120 104h376q123 0 152 -96v-671q0 -198 196 -198h1511q197 0 197 198v465h-1243l1 303q701 382 554 893l766 -1q-13 -568 -547 -892z" />
    <glyph glyph-name="yehfinal" unicode="&#x64a;" horiz-adv-x="3522" arabic-form="final" 
d="M2756 0q-56 0 -96 88l-4 60v828q-3 40 -80 92q-82 40 -140 40h-40q-114 0 -200 -128v-884q0 -51 -72 -88l-32 -8h-1896q-56 0 -96 88v1060q0 78 84 112l24 4h432q54 0 92 -60q16 -26 16 -40v-768q0 -75 184 -100l156 -12h120q313 17 336 88v748q0 110 88 140l24 4h1524
q91 0 128 -96v-865h295v-200h11v-103h-858zM1507 -144h52q102 0 216 -108q80 -103 80 -216q0 -192 -200 -296q-50 -20 -112 -20h-12q-234 0 -312 248l-8 72q0 144 124 252q96 68 172 68zM777 -134h52q102 0 216 -108q80 -103 80 -216q0 -192 -200 -296q-50 -20 -112 -20h-12
q-234 0 -312 248l-8 72q0 144 124 252q96 68 172 68z" />
    <glyph glyph-name="yehinitial" unicode="&#x64a;" horiz-adv-x="974" arabic-form="initial" 
d="M-98 0v100h2v203h155q155 0 155 155v654q0 86 36 116q37 40 120 40h344q122 0 152 -96v-1076q0 -52 -80 -92l-36 -4h-848zM110 -126q161 0 241 -174l13 -71v-29q0 -115 -122 -206q-52 -35 -135 -35q-153 0 -225 132q-32 51 -32 100v48q0 82 80 164q74 71 180 71z
M721 -126q146 0 232 -148q22 -48 22 -113q0 -151 -145 -231q-39 -23 -112 -23q-147 0 -222 126q-35 55 -35 132q0 146 138 228q55 29 122 29z" />
    <glyph glyph-name="yehmedial" unicode="&#x64a;" horiz-adv-x="1095" arabic-form="medial" 
d="M240 -126q161 0 241 -174l13 -71v-29q0 -115 -122 -206q-52 -35 -135 -35q-153 0 -225 132q-32 51 -32 100v48q0 82 80 164q74 71 180 71zM851 -126q146 0 232 -148q22 -48 22 -113q0 -151 -145 -231q-39 -23 -112 -23q-147 0 -222 126q-35 55 -35 132q0 146 138 228
q55 29 122 29zM-77 0v100h4v203h143q143 0 143 145v664q0 86 36 116q37 40 120 40h344q122 0 152 -96v-734q0 -135 137 -135h137v-303h-1216z" />
    <glyph glyph-name="space" unicode=" " horiz-adv-x="435" 
 />
    <glyph glyph-name="exclam" unicode="!" horiz-adv-x="637" 
d="M492 240q0 -36 -13.5 -67.5t-37.5 -55t-56 -37.5t-69 -14q-36 0 -67 14t-54.5 37.5t-37 55t-13.5 67.5t13.5 68t37 55.5t54.5 37t67 13.5q37 0 69 -13.5t56 -37t37.5 -55.5t13.5 -68zM143 1296q0 22 8 41t22.5 33t33.5 22.5t41 8.5h137q22 0 41.5 -8.5t34 -22.5t22.5 -33
t8 -41l-50 -690q0 -22 -8.5 -41t-22.5 -33t-33 -22t-40 -8h-41q-44 0 -74.5 29.5t-30.5 74.5z" />
    <glyph glyph-name="quotedbl" unicode="&#x22;" horiz-adv-x="620" 
d="M251 1541l11 -384q0 -19 -10.5 -33t-27 -23t-37 -13.5t-39.5 -4.5l-68 363q0 19 7.5 36.5t20 30.5t29.5 20.5t37 7.5h77zM501 1541l11 -384q0 -19 -10.5 -33t-27 -23t-37 -13.5t-39.5 -4.5l-68 363q0 19 7.5 36.5t20 30.5t29.5 20.5t37 7.5h77z" />
    <glyph glyph-name="numbersign" unicode="#" 
d="M497 1393l-50 -348h173l50 348h170l-50 -348h168l-23 -163h-169l-31 -218h170l-23 -163h-169l-51 -353h-170l51 353h-173l-51 -353h-169l50 353h-168l23 163h168l31 218h-169l23 163h170l49 348h170zM424 882l-32 -218h174l31 218h-173z" />
    <glyph glyph-name="dollar" unicode="$" 
d="M528 1535v-123q173 -8 271 -94q108 -96 108 -272h-228q0 98 -43 141q-34 34 -108 40v-337l22 -7q209 -60 296 -147t87 -238q0 -176 -120 -279q-108 -95 -285 -103v-173h-81v172q-189 12 -291.5 107.5t-102.5 276.5l1 31h242q-5 -114 43 -169q39 -41 108 -52v373
q-189 60 -275 137q-92 84 -92 224q0 170 111 270q98 87 256 97v125h81zM447 1225q-56 -8 -91 -38q-50 -42 -50 -117q0 -62 57 -106q31 -24 84 -46v307zM528 308q69 7 112 46q53 46 53 127q0 69 -47 114q-37 35 -118 61v-348z" />
    <glyph glyph-name="percent" unicode="%" horiz-adv-x="1690" 
d="M1189 1788l355 -239q45 -31 44 -107q2 -18 -17 -46l-894 -1327q-49 -73 -149 -35l-348 234q-80 54 -44 150l910 1351q81 60 143 19zM420 1841h36q69 0 156 -76q48 -74 48 -104l4 -44v-8q0 -87 -56 -148q-75 -72 -140 -72h-64q-54 5 -120 56q-72 74 -72 172q0 140 152 212
zM1322 461h36q69 0 156 -76q48 -74 48 -104l4 -44v-8q0 -87 -56 -148q-75 -72 -140 -72h-64q-54 5 -120 56q-72 74 -72 172q0 140 152 212z" />
    <glyph glyph-name="ampersand" unicode="&#x26;" horiz-adv-x="1287" 
d="M258 1119q0 142 90 225.5t245 83.5q143 0 227 -81.5t84 -219.5q0 -103 -71 -185q-49 -59 -142 -116l189 -230l17 34q43 92 52 183h220q-12 -128 -75 -261q-33 -69 -73 -127l228 -275h-295l-87 104q-73 -63 -134 -92q-89 -41 -231 -41q-186 0 -295.5 97t-109.5 263
q0 141 84 239q59 70 187 147l-7 8q-48 57 -75.5 123t-27.5 121zM537 326q60 0 117 33q36 21 79 58l-78 94l-160 198q-48 -34 -81 -67q-67 -68 -67 -147q0 -80 51 -125q50 -44 139 -44zM485 1138q0 -27 10.5 -56t30.5 -52l51 -63q35 25 62 51q55 56 55 110q0 52 -27.5 81.5
t-76.5 29.5q-50 0 -78 -27q-27 -26 -27 -74z" />
    <glyph glyph-name="quotesingle" unicode="'" horiz-adv-x="390" 
d="M251 1541l11 -384q0 -19 -10.5 -33t-27 -23t-37 -13.5t-39.5 -4.5l-68 363q0 19 7.5 36.5t20 30.5t29.5 20.5t37 7.5h77z" />
    <glyph glyph-name="parenleft" unicode="(" horiz-adv-x="612" 
d="M64 577q0 216 79.5 420t256.5 449h178q-132 -212 -189.5 -416t-57.5 -453q1 -249 58.5 -453t188.5 -415h-178q-177 244 -256 449q-80 203 -80 419z" />
    <glyph glyph-name="parenright" unicode=")" horiz-adv-x="612" 
d="M548 577q0 -216 -79 -420t-258 -448h-176q131 212 189 416t57 452q-1 249 -58.5 453.5t-187.5 415.5h176q179 -245 257 -449q80 -204 80 -420z" />
    <glyph glyph-name="asterisk" unicode="*" horiz-adv-x="891" 
d="M444 976l-152 -219l-121 81l171 213l-247 68l44 138l239 -82v257h134v-257l236 82l48 -138l-251 -68l173 -211l-119 -88z" />
    <glyph glyph-name="plus" unicode="+" horiz-adv-x="1041" 
d="M418 499h-347v205h347v346h205v-346h346v-205h-346v-346h-205v346z" />
    <glyph glyph-name="comma" unicode="," horiz-adv-x="495" 
d="M114 280v129h134h133v-223q0 -139 -65 -221t-202 -115v96q90 30 121 88q23 40 27 116h-68h-80v130z" />
    <glyph glyph-name="hyphenminus" unicode="-" horiz-adv-x="593" 
d="M48 767h497v-235h-497v235z" />
    <glyph glyph-name="period" unicode="." horiz-adv-x="497" 
d="M254 398q28 0 53 -10.5t43.5 -29.5t29.5 -44t11 -53t-11 -52.5t-29.5 -43t-43.5 -29t-53 -10.5t-53 10.5t-43.5 29t-29 43t-10.5 52.5t10.5 53t29 44t43.5 29.5t53 10.5z" />
    <glyph glyph-name="slash" unicode="/" horiz-adv-x="658" 
d="M658 1446l-420 -1391l-238 -127l419 1391z" />
    <glyph glyph-name="zero" unicode="0" horiz-adv-x="1019" 
d="M339 721q0 -225 42 -331.5t128 -106.5q87 0 129 107.5t42 330.5q0 224 -42 332t-129 108q-86 0 -128 -107t-42 -333zM59 721q-1 78 8.5 157.5t32 152.5t57.5 136.5t85.5 110t116.5 73.5t150 27t150 -27t116 -73.5t85 -110t57 -136.5t32 -152t10 -158q0 -78 -10 -157
t-32 -152t-57 -137t-85 -111t-116 -74t-150 -27t-150 27t-116.5 73.5t-85.5 110t-57.5 137t-32 152.5t-8.5 158z" />
    <glyph glyph-name="one" unicode="1" horiz-adv-x="1019" 
d="M457 87v986q-54 -36 -113.5 -78t-109.5 -76l-80 191l295 247h276v-1270h-268z" />
    <glyph glyph-name="two" unicode="2" horiz-adv-x="1019" 
d="M935 87h-805l-29 212q43 45 96 95.5t107.5 104.5t107 110.5t94.5 114t70 114t33 111.5q-4 62 -27.5 102.5t-59.5 62.5t-81 27t-93 -4.5t-94.5 -31t-84.5 -53.5l-89 202q101 66 198 96t201 30q94 0 171 -32t131.5 -86.5t84.5 -126t30 -150.5q0 -67 -22 -130t-59.5 -122
t-85.5 -114t-100.5 -106t-104.5 -97t-97 -88h508v-241z" />
    <glyph glyph-name="three" unicode="3" horiz-adv-x="1019" 
d="M132 1314q58 31 134.5 48.5t156 18t156.5 -17t137.5 -56t97.5 -99t37 -146.5q0 -85 -52 -163t-157 -133q125 -57 184.5 -139t59.5 -197q0 -98 -40.5 -168.5t-107 -115t-151 -65t-173 -19.5t-173.5 22.5t-151 61.5l58 182q37 -27 87 -41t103 -16t104 7t91 29.5t65 51
t25 71.5q0 36 -22 72.5t-66.5 65.5t-112 48t-157.5 20l-10 187q46 6 102.5 21.5t107 41.5t86 61.5t38.5 82.5q-4 44 -25 74t-53 47.5t-72 23t-81.5 2t-81.5 -15.5t-71 -30z" />
    <glyph glyph-name="four" unicode="4" horiz-adv-x="1019" 
d="M566 623l4 353l-291 -353h287zM565 87v288h-532v235l613 763h173v-750h122v-248h-122v-288h-254z" />
    <glyph glyph-name="five" unicode="5" horiz-adv-x="1019" 
d="M212 295q80 -29 160.5 -26t144.5 30.5t103.5 75.5t39.5 108q0 70 -33 109.5t-89 59t-130.5 24t-158.5 4.5h-67l-2 677h673v-231h-441v-204q122 -2 218 -32t162.5 -86t101 -137t33.5 -184q1 -99 -36 -173.5t-100 -126t-144.5 -81t-169.5 -38t-176 3.5t-163 42z" />
    <glyph glyph-name="six" unicode="6" horiz-adv-x="1019" 
d="M538 301q40 0 71.5 18t53 45t33 58t11.5 58q-5 43 -27 78t-54.5 60.5t-72.5 39.5t-82 14q-32 0 -63.5 -9t-59.5 -28q-15 -54 -9.5 -113.5t29.5 -109t67 -81.5t103 -30zM87 529q0 113 37.5 231t106.5 230t166.5 211.5t217.5 175.5q12 -14 30 -37.5t37 -48t36.5 -46.5
t26.5 -33q-223 -145 -312 -316q23 6 49 9.5t51 3.5q75 0 147.5 -27t130.5 -79.5t93.5 -130.5t35.5 -179q0 -94 -31.5 -172.5t-88 -135.5t-134.5 -88.5t-172 -31.5q-103 0 -182.5 34t-134 95.5t-82.5 147t-28 187.5z" />
    <glyph glyph-name="seven" unicode="7" horiz-adv-x="1019" 
d="M236 139l375 992h-529v226h814l-9 -212l-417 -1094z" />
    <glyph glyph-name="eight" unicode="8" horiz-adv-x="1019" 
d="M352 1016q0 -32 19 -62.5t45 -54t53.5 -36t45.5 -6.5h-1q21 8 44.5 21.5t43 33t32.5 44.5t13 55q0 32 -13 58t-34.5 44t-50 28t-58.5 10q-27 0 -52 -8.5t-44.5 -25t-31 -42t-11.5 -59.5zM502 615q-43 0 -75.5 -15.5t-54 -40t-32 -56t-10.5 -63.5q0 -30 9.5 -59t29 -52
t48.5 -37.5t68 -15.5q44 -1 80 7t61.5 28.5t39.5 55t14 87.5q0 7 -2.5 21.5t-9 32.5t-18.5 37t-32 34.5t-48.5 25.5t-67.5 10zM509 1378q86 0 156 -31.5t119.5 -82t76.5 -114.5t27 -130q0 -75 -37 -143.5t-119 -116.5q115 -56 167 -136t52 -184q0 -85 -31.5 -154t-89.5 -120
q-60 -50 -140.5 -76.5t-180.5 -26.5q-103 0 -183.5 26.5t-140.5 74.5q-57 51 -87.5 121.5t-30.5 154.5q0 50 14 95.5t39.5 84.5t61.5 71.5t79 55.5q-77 54 -113 128.5t-36 152.5q0 67 26 130t76 112t124.5 78.5t170.5 29.5z" />
    <glyph glyph-name="nine" unicode="9" horiz-adv-x="1019" 
d="M474 1135q-42 0 -74.5 -18t-54 -44.5t-31.5 -58t-8 -58.5q4 -43 25.5 -78.5t54 -60.5t73 -39t82.5 -14q66 0 123 37q5 20 7.5 42t2.5 44q0 49 -13.5 94t-39 79t-62.5 54.5t-85 20.5zM926 907q0 -113 -38 -231t-107 -229.5t-167 -211t-218 -175.5q-43 58 -78.5 100
t-50.5 62q222 146 311 317q-23 -6 -48.5 -9.5t-49.5 -3.5q-75 0 -147.5 27t-130.5 80t-93.5 130.5t-35.5 178.5q0 94 31.5 173t87.5 136t134.5 88.5t171.5 31.5q103 0 183 -34.5t134.5 -96t82.5 -146.5t28 -187z" />
    <glyph glyph-name="colon" unicode=":" horiz-adv-x="624" 
d="M310 555q36 0 67.5 -13.5t55 -37.5t37.5 -55.5t14 -67.5t-14 -68t-37.5 -55.5t-55 -37.5t-67.5 -14t-67.5 14t-55.5 37.5t-37.5 55.5t-13.5 68t13.5 67.5t37.5 55.5t55.5 37.5t67.5 13.5zM310 1053q36 0 67.5 -14t55 -38t37.5 -56t14 -69q0 -35 -14 -66.5t-37.5 -55
t-55 -37.5t-67.5 -14t-67.5 14t-55.5 37.5t-37.5 55t-13.5 66.5q0 37 13.5 69t37.5 56t55.5 38t67.5 14z" />
    <glyph glyph-name="semicolon" unicode=";" horiz-adv-x="593" 
d="M164 280v130h134h133v-194q0 -156 -64 -244.5t-197 -116.5v96q84 26 114 83q20 39 25 116h-65h-80v130zM164 1063h266v-259h-266v259z" />
    <glyph glyph-name="less" unicode="&#x3c;" horiz-adv-x="1041" 
d="M68 516v86v85l905 383v-197l-643 -271l643 -272v-197z" />
    <glyph glyph-name="equal" unicode="=" horiz-adv-x="810" 
d="M60 515l66 205l621 -3l-66 -205zM60 139l66 205l621 -3l-66 -205z" />
    <glyph glyph-name="greater" unicode="&#x3e;" horiz-adv-x="1041" 
d="M973 516l-905 -383v197l643 272l-643 271v197l905 -383v-85v-86z" />
    <glyph glyph-name="question" unicode="?" horiz-adv-x="1088" 
d="M549 1240q-96 0 -143.5 -53t-50.5 -164h-248q6 201 123 314.5t319 113.5q203 0 322 -102t119 -275q0 -92 -55 -173.5t-184 -178.5q-51 -38 -70.5 -82t-16.5 -115h-232q-3 123 41.5 207t153.5 161q52 37 74 77.5t22 103.5q0 76 -47 122q-47 44 -127 44zM418 399h261v-249
h-261v249z" />
    <glyph glyph-name="at" unicode="@" horiz-adv-x="1737" 
d="M1170 552q89 0 150.5 99.5t61.5 244.5q0 178 -139 301.5t-340 123.5q-217 0 -367.5 -155t-150.5 -378q0 -224 146 -379t358 -155q132 0 245.5 43t167.5 112h157q-77 -134 -231 -215.5t-331 -81.5q-289 0 -487.5 196t-198.5 480q0 283 198 479.5t485 196.5
q266 0 448.5 -165t182.5 -403q0 -201 -136.5 -351.5t-317.5 -150.5q-57 0 -85 52q-12 20 -14 42q-87 -94 -190 -94q-126 0 -208 93t-81 235q-1 174 114.5 300t275.5 126q123 -1 196 -108l18 83h173l-116 -519q-5 -22 0 -37t16 -15zM897 972q-84 0 -146.5 -73t-62.5 -170
q0 -75 38 -115.5t107 -40.5q71 0 128 56t76 144t-20 143.5t-120 55.5z" />
    <glyph glyph-name="A" unicode="A" horiz-adv-x="1287" 
d="M36 150l452 1279h155h155l453 -1279h-142h-142l-86 260h-485l-85 -260h-137h-138zM639 1144l-169 -514h340z" />
    <glyph glyph-name="B" unicode="B" horiz-adv-x="1287" 
d="M136 150v1279h128h491q185 0 289.5 -85.5t104.5 -238.5q0 -159 -117 -242q-19 -14 -43 -25q45 -17 80 -42q123 -84 123 -246q0 -196 -121.5 -298t-354.5 -102h-452h-128zM391 1209v-281h306q100 0 149.5 37.5t49.5 112.5q0 66 -52 98.5t-158 32.5h-295zM391 713v-341h325
q104 0 156.5 45t52.5 137q0 80 -53.5 119.5t-160.5 39.5h-320z" />
    <glyph glyph-name="C" unicode="C" horiz-adv-x="1287" 
d="M1219 598q-24 -222 -173.5 -352.5t-379.5 -130.5q-270 0 -429 180t-159 487q0 314 159 498t429 184q227 0 377 -123.5t176 -333.5h-268q-13 103 -89 164t-194 61q-149 0 -233 -118.5t-84 -329.5q0 -205 84 -321t233 -116q118 0 194 67.5t89 183.5h268z" />
    <glyph glyph-name="D" unicode="D" horiz-adv-x="1287" 
d="M136 150v1279h133h414q264 0 401 -155t137 -453q0 -329 -142.5 -500t-417.5 -171h-392h-133zM403 370h225q163 0 244.5 110t81.5 330q0 200 -76 299.5t-228 99.5h-247v-839z" />
    <glyph glyph-name="E" unicode="E" horiz-adv-x="1188" 
d="M136 150v1279h941v-113v-114h-674v-272h625v-109v-111h-625v-333h704v-113v-114h-971z" />
    <glyph glyph-name="F" unicode="F" horiz-adv-x="1088" 
d="M136 150v1279h910v-113v-114h-643v-291h560v-109v-111h-560v-541h-133h-134z" />
    <glyph glyph-name="G" unicode="G" horiz-adv-x="1386" 
d="M686 115q-280 0 -444 180t-164 487q0 314 170.5 498t461.5 184q233 0 384 -116.5t176 -315.5h-268q-10 84 -93.5 147t-184.5 63q-174 0 -272.5 -120.5t-98.5 -334.5q0 -218 94.5 -331.5t276.5 -113.5h-1q155 0 242 119q48 67 70 157v3h-301v220h536v-690h-178l-26 165
l-16 -21q-135 -180 -365 -180h1z" />
    <glyph glyph-name="H" unicode="H" horiz-adv-x="1287" 
d="M126 150v1279h133h134v-479h500v479h134h134v-1279h-134h-134v579h-500v-579h-133h-134z" />
    <glyph glyph-name="I" unicode="I" horiz-adv-x="495" 
d="M114 150v1279h133h134v-1279h-133h-134z" />
    <glyph glyph-name="J" unicode="J" 
d="M596 1429h133h134v-920q0 -195 -104.5 -294.5t-307.5 -99.5q-217 0 -318 109.5t-94 338.5v77h254v-77q-3 -116 34.5 -172.5t120.5 -56.5q79 0 113.5 41t34.5 134v920z" />
    <glyph glyph-name="K" unicode="K" horiz-adv-x="1287" 
d="M155 150v1279h133h134v-530l490 530h170h171l-511 -523l545 -756h-175h-175l-385 563l-130 -133v-430h-133h-134z" />
    <glyph glyph-name="L" unicode="L" horiz-adv-x="1088" 
d="M136 150v1279h133h134v-1052h636v-113v-114h-903z" />
    <glyph glyph-name="M" unicode="M" horiz-adv-x="1484" 
d="M372 150h-124h-125v1279h195h196l233 -1014l230 1014h193h193v-1279h-124h-125v1075l-240 -1075h-131h-131l-240 1099v-1099z" />
    <glyph glyph-name="N" unicode="N" horiz-adv-x="1287" 
d="M372 150h-124h-125v1279h140h140l513 -897v897h125h125v-1279h-133h-133l-528 921v-921z" />
    <glyph glyph-name="O" unicode="O" horiz-adv-x="1386" 
d="M693 115q-282 0 -448.5 180t-166.5 487q0 314 166.5 498t448.5 184q283 0 449 -184t166 -498q0 -307 -166 -487t-449 -180zM693 342q163 0 255.5 117t92.5 325q0 213 -92.5 333t-255.5 120t-255.5 -120t-92.5 -333q0 -208 92 -325t256 -117z" />
    <glyph glyph-name="P" unicode="P" horiz-adv-x="1188" 
d="M136 150v1279h133h402q218 0 332 -102.5t114 -297.5q0 -207 -114 -314.5t-332 -107.5q-155 1 -268 -2v-455h-133h-134zM403 827h223q112 0 168 49.5t56 149.5q0 91 -56 137t-168 46h-223v-382z" />
    <glyph glyph-name="Q" unicode="Q" horiz-adv-x="1386" 
d="M1176 57l-153 142q-137 -84 -330 -84q-282 0 -448.5 180t-166.5 487q0 314 166.5 498t448.5 184q283 0 449 -184t166 -498q0 -277 -135 -450l139 -131zM705 492l135 143l140 -127q61 107 61 276q0 213 -92.5 333t-255.5 120t-255.5 -120t-92.5 -333q0 -208 92 -325
t256 -117q80 -1 143 29z" />
    <glyph glyph-name="R" unicode="R" horiz-adv-x="1287" 
d="M136 150v1279h133h511q183 0 295 -98t112 -258q0 -184 -125 -270q-33 -22 -75 -38q24 -9 43 -21q110 -65 114 -219l6 -210q2 -62 13 -88.5t44 -41.5v-34h-295q-11 20 -18.5 85.5t-8.5 141.5l-2 118q-2 86 -51 122.5t-163 36.5h-266v-505h-133h-134zM403 870h310
q103 0 155 42.5t52 127.5q0 84 -49.5 126.5t-147.5 42.5h-320v-339z" />
    <glyph glyph-name="S" unicode="S" horiz-adv-x="1188" 
d="M829 1045q-7 92 -80 145.5t-190 53.5q-102 0 -159.5 -45t-57.5 -125q0 -57 60 -89q59 -31 251 -74q280 -62 374 -144q94 -81 94 -260q0 -180 -142 -286t-384 -106q-243 0 -379.5 112.5t-145.5 319.5h257q4 -102 74 -157t194 -55q128 0 200 41.5t72 114.5q0 72 -52 106
q-50 34 -216 71q-304 68 -407 147q-102 78 -102 244q0 186 135 295.5t365 109.5q215 0 349.5 -113.5t149.5 -305.5h-260z" />
    <glyph glyph-name="T" unicode="T" horiz-adv-x="1088" 
d="M412 150v1052h-387v113v114h1040v-113v-114h-386v-1052h-134h-133z" />
    <glyph glyph-name="U" unicode="U" horiz-adv-x="1287" 
d="M1161 632q0 -274 -121 -395.5t-395 -121.5q-263 0 -389.5 126.5t-127.5 390.5v797h133h134v-806q0 -137 62 -206t188 -69q134 0 191 63.5t57 211.5v806h134h134v-797z" />
    <glyph glyph-name="V" unicode="V" horiz-adv-x="1188" 
d="M34 1429h142h142l281 -977l280 977h137h138l-433 -1279h-127h-127z" />
    <glyph glyph-name="W" unicode="W" horiz-adv-x="1682" 
d="M385 150l-356 1279h139h139l213 -936l183 936h142h142l186 -928l212 928h135h135l-356 -1279h-127h-127l-205 1007l-201 -1007h-127h-127z" />
    <glyph glyph-name="X" unicode="X" horiz-adv-x="1188" 
d="M25 150l414 647l-386 632h158h158l225 -413l233 413h154h154l-389 -612l417 -667h-159h-160l-251 440l-252 -440h-157h-159z" />
    <glyph glyph-name="Y" unicode="Y" horiz-adv-x="1188" 
d="M473 631l-446 798h158h160l266 -555l249 555h152h151l-423 -793v-486h-133h-134v481z" />
    <glyph glyph-name="Z" unicode="Z" horiz-adv-x="1088" 
d="M44 374l663 828h-641v113v114h978v-105v-106l-675 -841h673v-113v-114h-998v112v112z" />
    <glyph glyph-name="bracketleft" unicode="[" horiz-adv-x="593" 
d="M112 -202v1640h439v-172h-216v-1297h216v-171h-439z" />
    <glyph glyph-name="backslash" unicode="\" horiz-adv-x="495" 
d="M345 115l-403 1349h209l402 -1349h-208z" />
    <glyph glyph-name="bracketright" unicode="]" horiz-adv-x="593" 
d="M481 -202h-438v171h215v1297h-215v172h438v-1640z" />
    <glyph glyph-name="underscore" unicode="_" 
d="M0 -73v92h991v-92h-991z" />
    <glyph glyph-name="grave" unicode="`" horiz-adv-x="593" 
d="M221 1227l-261 258h273l168 -258h-180z" />
    <glyph glyph-name="a" unicode="a" 
d="M343 126q-132 0 -212 75t-80 198q0 129 72.5 207t210.5 98l165 23q64 9 107 29q18 9 28 31.5t7 46.5q-5 40 -41 62q-42 27 -122 27q-72 0 -112 -34.5t-42 -98.5h-240q8 166 113.5 249t308.5 83q177 0 279 -74.5t102 -203.5v-529q0 -63 10.5 -89t42.5 -40v-1v-34h-135
h-135q-17 57 -22 112l-1 2q-117 -139 -304 -139zM643 500v108q-44 -24 -115 -39l-92 -17q-65 -12 -99 -44.5t-34 -82.5q0 -57 30.5 -89t84.5 -32q121 0 192 84q14 17 23 49q10 32 10 63z" />
    <glyph glyph-name="b" unicode="b" horiz-adv-x="1088" 
d="M109 1429h124h125v-456l6 7q101 142 266 142q180 0 289.5 -133t109.5 -351q0 -230 -109.5 -371t-289.5 -141q-165 0 -266 132l-11 14v-122h-244v1279zM559 331q100 0 157 75t57 209q0 137 -57 214t-157 77t-156.5 -79t-56.5 -220q0 -130 57 -203q55 -73 156 -73z" />
    <glyph glyph-name="c" unicode="c" 
d="M934 501q-20 -177 -132 -276t-292 -99q-215 0 -332 127.5t-117 364.5q0 231 121.5 367.5t327.5 136.5q183 0 299.5 -101t124.5 -265h-255q-3 70 -49.5 113.5t-119.5 43.5q-94 0 -143 -75.5t-49 -219.5q0 -141 49 -214.5t143 -73.5q68 0 115 47t54 124h255z" />
    <glyph glyph-name="d" unicode="d" horiz-adv-x="1088" 
d="M464 126q-181 0 -292 141t-111 371q0 218 110.5 351t290.5 133q161 0 259 -136l11 -14v457h124h125v-1279h-121h-121v121l-4 -6q-103 -139 -271 -139zM531 906q-100 0 -156.5 -77t-56.5 -214q0 -134 56 -209t156 -75q101 0 157.5 79t56.5 220q0 130 -56.5 203t-156.5 73z
" />
    <glyph glyph-name="e" unicode="e" 
d="M491 126q-216 0 -333 133t-117 379q0 227 119 355.5t331 128.5q216 0 333 -131t117 -373q2 -28 -4 -56h-645q9 -113 50 -168q52 -70 174 -70q56 0 104.5 32t58.5 78h254q-33 -145 -150 -226.5t-292 -81.5zM681 721q-8 85 -45 133q-48 63 -149 63q-96 0 -147 -74
q-31 -47 -45 -122h386z" />
    <glyph glyph-name="f" unicode="f" horiz-adv-x="593" 
d="M405 922v-772h-124h-125v772h-139v175h139v79q0 136 72.5 203t220.5 67q66 1 117 -6v-199h-79q-49 0 -65.5 -20t-16.5 -82v-42h161v-175h-161z" />
    <glyph glyph-name="g" unicode="g" horiz-adv-x="1088" 
d="M543 -47q105 0 151 51t46 169v116l-20 -30q-82 -114 -237 -114q-185 0 -298.5 132.5t-113.5 350.5q0 222 110.5 358t290.5 136q160 0 247 -116q17 -22 31 -48v139h235v-897q0 -224 -111 -330.5t-346 -106.5q-193 0 -307 75t-122 208h272q3 -48 44.5 -70.5t127.5 -22.5z
M535 906q-97 0 -152 -74.5t-55 -206.5q0 -130 55 -202.5t151 -72.5q98 0 153.5 74t55.5 204q0 131 -55.5 204.5t-152.5 73.5z" />
    <glyph glyph-name="h" unicode="h" horiz-adv-x="1088" 
d="M116 150v1279h124h125v-453l20 28q93 118 268 118q150 0 235 -89t85 -246v-637h-125h-125v592q0 87 -38 129.5t-116 42.5q-98 0 -151 -59t-53 -171v-534h-124h-125z" />
    <glyph glyph-name="i" unicode="i" horiz-adv-x="495" 
d="M125 150v947h125h125v-947h-124h-126zM123 1438h254v-231h-254v231z" />
    <glyph glyph-name="j" unicode="j" horiz-adv-x="495" 
d="M121 1097h124h126v-1051q0 -154 -66.5 -215.5t-231.5 -61.5l-68 1v199l31 -1q50 0 67.5 16t17.5 62v1051zM119 1438h254v-231h-254v231z" />
    <glyph glyph-name="k" unicode="k" 
d="M123 150v1279h124h125v-691l312 359h154h154l-342 -359l350 -588h-147h-149l-228 407l-104 -109v-298h-124h-125z" />
    <glyph glyph-name="l" unicode="l" horiz-adv-x="495" 
d="M123 150v1279h124h125v-1279h-124h-125z" />
    <glyph glyph-name="m" unicode="m" horiz-adv-x="1584" 
d="M114 150v947h118h119v-153q17 40 42 72q83 106 240 106q126 0 206 -85q31 -32 49 -71l31 50q77 106 225 106q154 0 241 -91.5t87 -253.5v-627h-124h-126v556q0 106 -34.5 157t-107.5 51q-79 0 -120 -48.5t-41 -138.5v-577h-125h-125v597q0 85 -36.5 126t-112.5 41
q-75 0 -115.5 -48.5t-40.5 -138.5v-577h-125h-125z" />
    <glyph glyph-name="n" unicode="n" horiz-adv-x="1088" 
d="M116 150v947h118h119v-141q15 26 32 48q93 118 268 118q150 0 235 -89t85 -246v-637h-125h-125v592q0 87 -38 129.5t-116 42.5q-98 0 -151 -59t-53 -171v-534h-124h-125z" />
    <glyph glyph-name="o" unicode="o" horiz-adv-x="1088" 
d="M545 126q-222 0 -353 133t-131 359q0 231 131 367.5t353 136.5q223 0 353.5 -136.5t130.5 -367.5q0 -226 -130.5 -359t-353.5 -133zM545 334q111 0 169.5 73.5t58.5 213.5q0 143 -58.5 217.5t-169.5 74.5q-112 0 -169.5 -74.5t-57.5 -217.5q0 -140 57.5 -213.5
t169.5 -73.5z" />
    <glyph glyph-name="p" unicode="p" horiz-adv-x="1088" 
d="M110 1097h119h119v-141l17 24q100 142 266 142q180 0 289 -133t109 -351q0 -230 -109 -371t-289 -141q-165 0 -266 132l-5 7v-486h-124h-126v1318zM559 331q100 0 157 75t57 209q0 137 -56.5 214t-156.5 77t-156 -79t-56 -220q0 -130 56 -203t155 -73z" />
    <glyph glyph-name="q" unicode="q" horiz-adv-x="1088" 
d="M465 126q-181 0 -292.5 132.5t-111.5 349.5q0 232 115 373t302 141q154 0 248 -136q16 -22 27 -45v156h230v-1318h-124h-126v482q-101 -136 -268 -135zM532 906q-101 0 -157.5 -77t-56.5 -214q0 -134 56.5 -209t156.5 -75q101 0 158 79t57 220q0 130 -57 203t-157 73z
" />
    <glyph glyph-name="r" unicode="r" horiz-adv-x="693" 
d="M114 150v947h118h119v-170q14 28 30 54q88 141 227 141l57 -1v-255q-33 3 -75 3q-114 0 -170 -56.5t-56 -170.5v-492h-125h-125z" />
    <glyph glyph-name="s" unicode="s" 
d="M652 813q0 55 -45.5 88t-120.5 33q-72 0 -112.5 -25t-40.5 -69q0 -31 46 -54q46 -22 161 -48q230 -51 307 -112q78 -61 78 -192q0 -139 -113 -223.5t-297 -84.5q-218 0 -336 83.5t-126 243.5h254q3 -65 58 -102t150 -37q75 0 117 25.5t42 71.5q0 32 -41 55
q-41 22 -143 44q-240 54 -321 114q-81 59 -81 184q0 141 105 227.5t276 86.5q193 0 311.5 -85t118.5 -224h-247z" />
    <glyph glyph-name="t" unicode="t" horiz-adv-x="593" 
d="M551 145q-63 -5 -154 -5q-133 0 -190.5 47t-57.5 155v580h-132v175h132v254h249v-254h153v-175h-153v-538q0 -33 20 -43.5t81 -10.5h52v-185z" />
    <glyph glyph-name="u" unicode="u" horiz-adv-x="1088" 
d="M367 1097v-593q0 -87 37.5 -128.5t114.5 -41.5q98 0 150 59t52 170v534h125h125v-947h-118h-120v142q-13 -26 -31 -49q-92 -117 -267 -117q-150 0 -234 88t-84 245v638h125h125z" />
    <glyph glyph-name="v" unicode="v" 
d="M23 1097h138h138l202 -706l204 706h131h131l-341 -947h-130h-131z" />
    <glyph glyph-name="w" unicode="w" horiz-adv-x="1386" 
d="M292 150l-275 947h133h132l151 -696l142 696h124h126l140 -697l154 697h125h126l-274 -947h-127h-128l-145 705l-149 -705h-127h-128z" />
    <glyph glyph-name="x" unicode="x" 
d="M27 150l322 484l-309 463h151h150l159 -280l159 280h146h146l-308 -468l321 -479h-153h-154l-165 289l-164 -289h-151h-150z" />
    <glyph glyph-name="y" unicode="y" 
d="M960 1097l-339 -967q-82 -239 -140 -300t-208 -61l-119 3v200q9 -4 48 -4q100 0 130 41q19 26 39 108l-354 980h138h138l206 -703l200 703h131h130z" />
    <glyph glyph-name="z" unicode="z" horiz-adv-x="891" 
d="M36 344l479 548l6 7h-450v98v100h762v-102v-103l-473 -538h495v-101v-103h-819v97v97z" />
    <glyph glyph-name="braceleft" unicode="{" horiz-adv-x="693" 
d="M651 -201q-207 -14 -303 54.5t-96 229.5v231q0 140 -26 175t-141 50v158q115 15 141 50t26 175v231q0 161 96 229.5t303 55.5v-160q-121 6 -149.5 -22t-28.5 -155v-232q0 -139 -83 -201q-39 -29 -106 -51q67 -19 106 -49q83 -62 83 -201v-232q0 -127 28.5 -155t149.5 -21
v-160z" />
    <glyph glyph-name="bar" unicode="|" horiz-adv-x="499" 
d="M150 -295v1781h199v-1781h-199z" />
    <glyph glyph-name="braceright" unicode="}" horiz-adv-x="693" 
d="M43 -201v160q121 -7 149 21t28 155v232q0 139 84 201q38 30 105 49q-67 22 -105 51q-84 62 -84 201v232q0 127 -28 155t-149 22v160q207 13 302.5 -55.5t95.5 -229.5v-231q0 -140 26 -175t141 -50v-158q-115 -15 -141 -50t-26 -175v-231q0 -161 -96 -230
q-95 -68 -302 -54z" />
    <glyph glyph-name="asciitilde" unicode="~" horiz-adv-x="1041" 
d="M109 598q30 71 90 113.5t132 42.5q45 0 96 -15.5t131 -52.5q54 -25 95.5 -40.5t58.5 -15.5q41 0 78 31.5t77 100.5l65 -159q-39 -71 -99 -113t-123 -42q-48 0 -99 17.5t-128 62.5q-36 20 -79 31.5t-81 11.5q-42 0 -85 -38t-64 -93z" />
    <glyph glyph-name="delete" horiz-adv-x="1392" 
d="M1322 262h-318v510h68v-450h250v-60zM940 262h-381v510h368v-60h-301v-156h282v-60h-282v-174h314v-60zM498 520q0 -110 -49 -177q-40 -56 -107 -72q-36 -9 -83 -9h-183v510h175q60 0 91 -7q97 -23 136 -123q20 -54 20 -122zM428 521q0 146 -90 181q-27 10 -87 10h-108
v-390h109q89 0 125 36q51 51 51 163z" />
    <glyph glyph-name="copyright" unicode="&#xa9;" horiz-adv-x="1313" 
d="M657 1466q290 0 483.5 -192.5t193.5 -484.5q0 -290 -193 -483t-484 -193q-292 0 -484 193t-192 483q0 292 192.5 484.5t483.5 192.5zM1139 789q0 222 -137 369.5t-345 147.5q-207 0 -344 -147.5t-137 -369.5q0 -221 137.5 -368t343.5 -147q207 0 344.5 147t137.5 368z
M1002 687q-25 -131 -111.5 -207t-209.5 -76q-166 0 -267.5 105t-101.5 277q0 179 100 284.5t269 105.5q132 0 219 -74.5t102 -200.5h-159q-7 55 -50.5 87t-111.5 32q-87 0 -136 -62t-49 -171q0 -105 50 -166t135 -61q64 0 107.5 34t54.5 93h159z" />
    <glyph glyph-name="guillemotleft" unicode="&#xab;" horiz-adv-x="880" 
d="M763 22h-72q-82 97 -164 192.5t-164 192.5q84 97 164.5 189.5t164.5 189.5h64l-217 -378zM461 22h-68q-82 97 -163 192.5t-164 192.5q84 97 164.5 189.5t165.5 189.5h65l-219 -378z" />
    <glyph glyph-name="registered" unicode="&#xae;" horiz-adv-x="1313" 
d="M656 1465q291 0 483.5 -192.5t192.5 -483.5q0 -290 -192.5 -482.5t-483.5 -192.5t-483 192.5t-192 482.5q0 291 192.5 483.5t482.5 192.5zM1140 789q0 223 -137.5 371t-346.5 148q-208 0 -345.5 -148t-137.5 -371q0 -222 138 -369.5t345 -147.5q208 0 346 147.5
t138 369.5zM367 426v728h79h204q139 0 211.5 -52.5t72.5 -154.5q0 -117 -67 -169q-38 -29 -100 -42l179 -310h-90h-90l-168 300h-72v-300h-79h-80zM526 851h124q63 0 93.5 23.5t30.5 70.5q0 43 -30.5 64t-93.5 21h-124v-179z" />
    <glyph glyph-name="paragraph" unicode="&#xb6;" horiz-adv-x="891" 
d="M830 1379h-106v-1229h-80v1229h-173v-1229h-82v690q-155 6 -242 87q-86 81 -86 211q0 65 24.5 120t66.5 97q47 40 109 61.5t137 21.5h432v-59z" />
    <glyph glyph-name="guillemotright" unicode="&#xbb;" horiz-adv-x="880" 
d="M335 408q-54 94 -108 189t-109 189h65q81 -95 163.5 -189.5t165.5 -189.5q-84 -99 -165 -193t-163 -192h-74zM632 408q-54 94 -109.5 189t-109.5 189h65q83 -95 165.5 -189.5t164.5 -189.5q-83 -99 -163 -193t-164 -192h-68z" />
    <glyph glyph-name="multiply" unicode="&#xd7;" horiz-adv-x="1041" 
d="M520 457l-304 -304l-145 144l305 305l-305 304l145 144l304 -304l305 304l144 -144l-304 -304l304 -305l-144 -144z" />
    <glyph glyph-name="ccedilla" unicode="&#xe7;" 
d="M934 501q-20 -177 -132 -276t-292 -99q-215 0 -332 127.5t-117 364.5q0 231 121.5 367.5t327.5 136.5q183 0 299.5 -101t124.5 -265h-255q-3 70 -49.5 113.5t-119.5 43.5q-94 0 -143 -75.5t-49 -219.5q0 -141 49 -214.5t143 -73.5q68 0 115 47t54 124h255zM532 149
l-62 -95l49 6q71 0 114 -38.5t43 -101.5q0 -81 -60 -128.5t-162 -47.5q-49 0 -104 12.5t-100 34.5l39 83q43 -14 79.5 -21.5t57.5 -7.5q35 0 59.5 20.5t24.5 49.5t-19.5 46.5t-50.5 17.5q-14 0 -32.5 -3.5t-38.5 -10.5l-38 36l98 148h103z" />
    <glyph glyph-name="divide" unicode="&#xf7;" horiz-adv-x="1041" 
d="M520 388q66 0 112.5 -46t46.5 -112t-46.5 -112t-112.5 -46t-112 46t-46 112t46 112t112 46zM71 705h898v-207h-898v207zM520 1131q66 0 112.5 -46t46.5 -112t-46.5 -112t-112.5 -46t-112 46t-46 112t46 112t112 46z" />
    <glyph glyph-name="oe" unicode="&#x153;" horiz-adv-x="1682" 
d="M525 1122q201 -1 324 -121q119 120 325 121q216 0 333 -131t117 -373q2 -28 -4 -56h-630q9 -113 51 -168q52 -70 175 -70q50 0 93 32t53 78h254q-33 -145 -150 -226.5t-292 -81.5q-206 -1 -322 121q-124 -122 -327 -121q-214 0 -339 133t-125 359q0 231 125 368
q125 136 339 136zM534 913q-106 0 -161 -74.5t-55 -217.5q0 -140 55 -213.5t161 -73.5t161.5 73.5t55.5 213.5q0 143 -56 218q-55 74 -161 74zM1382 721q-8 85 -45 133q-49 63 -150 63q-98 0 -149 -74q-32 -47 -44 -122h388z" />
    <glyph glyph-name="arabiccomma" unicode="&#x60c;" horiz-adv-x="532" 
d="M386 96q-196 -7 -258.5 140.5t34 335.5t284.5 224q-263 -378 -2 -432z" />
    <glyph glyph-name="arabicsemicolon" unicode="&#x61b;" horiz-adv-x="613" 
d="M481 223q0 -33 -12 -61.5t-33 -49.5t-49.5 -33.5t-61.5 -12.5t-61.5 12.5t-49.5 33.5t-33 49.5t-12 61.5q0 32 12 60.5t33 49.5t49.5 33.5t61.5 12.5t61.5 -12.5t49.5 -33.5t33 -49.5t12 -60.5zM381 492q-129 -34 -196.5 80t16 276t244.5 194q-227 -327 -2 -373z" />
    <glyph glyph-name="arabicquestionmark" unicode="&#x61f;" horiz-adv-x="1001" 
d="M760 1384q72 -18 109 -50t49 -68.5t2 -73t-32.5 -64t-53.5 -41t-62 -3.5q-31 9 -65.5 19t-70 16t-69 5.5t-61.5 -12t-48 -35.5t-29 -66q5 -40 17 -66t28.5 -42.5t36.5 -26t40.5 -17.5t40 -16t35.5 -22q38 -15 61 -43.5t29.5 -62t-3 -67.5t-36 -60.5t-70.5 -41t-105 -8.5
q-33 9 -74.5 23.5t-85.5 38t-87 58t-77 83.5t-56.5 114.5t-26.5 150.5q14 130 67 218t138.5 135t201.5 53t257 -28zM694 240q0 -36 -13.5 -67.5t-37 -55t-55.5 -37.5t-69 -14q-36 0 -67 14t-54.5 37.5t-37 55t-13.5 67.5t13.5 68t37 55.5t54.5 37t67 13.5q37 0 69 -13.5
t55.5 -37t37 -55.5t13.5 -68z" />
    <glyph glyph-name="hamza" unicode="&#x621;" horiz-adv-x="1376" 
d="M1016 1264q228 -6 228 -32v-504l-8 -8h-208q-82 0 -116 -68q-12 -32 -16 -76q0 -144 124 -144h248l8 -8v-416l-8 -8h-1160l-8 8v480l8 8h320v220q0 231 248 420q72 52 148 80q14 14 88 28q12 8 104 20z" />
    <glyph glyph-name="alefwithmaddaabove" unicode="&#x622;" horiz-adv-x="1207" 
d="M398 2166h428q55 0 96 -64q12 -14 12 -48v-1942q0 -88 -104 -112h-420q-96 0 -120 100v1970q34 96 108 96zM1138 2648h4q0 -111 -88 -280q-95 -92 -148 -92h-76q-76 0 -324 48l-108 12q-233 0 -340 -168h-8q15 300 180 364l104 16q119 -12 364 -56l100 -4h52q81 4 204 76
z" />
    <glyph glyph-name="alefwithhamzaabove" unicode="&#x623;" horiz-adv-x="880" 
d="M218 2169h428q55 0 96 -64q12 -14 12 -48v-1945q0 -88 -104 -112h-420q-96 0 -120 100v1973q34 96 108 96zM644 3056h24q91 0 96 -20v-288l-8 -8h-124q-72 0 -72 -84q0 -80 68 -80h144l8 -8v-236l-8 -8h-664l-8 8v272l8 8h180v104q0 210 244 320q62 20 112 20z" />
    <glyph glyph-name="wawwithhamzaabove" unicode="&#x624;" horiz-adv-x="1568" 
d="M994 2133h24q91 0 96 -20v-288l-8 -8h-124q-72 0 -72 -84q0 -80 68 -80h144l8 -8v-236l-8 -8h-664l-8 8v272l8 8h180v104q0 210 244 320q62 20 112 20zM712 945v-584q11 -68 64 -68h20q56 16 56 56v604q-15 60 -68 60q-56 0 -72 -68zM852 -163v164h-644q-59 0 -96 68
q-12 14 -12 48v1020q0 96 100 124l40 4h1120q108 -27 108 -104v-1524q0 -80 -108 -104h-1252l-1 1h-7v303h752z" />
    <glyph glyph-name="alefwithhamzabelow" unicode="&#x625;" horiz-adv-x="880" 
d="M228 2167h428q55 0 96 -64q12 -14 12 -48v-1943q0 -88 -104 -112h-420q-96 0 -120 100v1971q34 96 108 96zM644 -108h24q91 0 96 -20v-288l-8 -8h-124q-72 0 -72 -84q0 -80 68 -80h144l8 -8v-236l-8 -8h-664l-8 8v272l8 8h180v104q0 210 244 320q62 20 112 20z" />
    <glyph glyph-name="yehwithhamzaabove" unicode="&#x626;" horiz-adv-x="3408" 
d="M670 2133h24q91 0 96 -20v-288l-8 -8h-124q-72 0 -72 -84q0 -80 68 -80h144l8 -8v-236l-8 -8h-664l-8 8v272l8 8h180v104q0 210 244 320q62 20 112 20zM208 1264h432q54 0 92 -60q16 -26 16 -40v-768q0 -75 184 -100l156 -12h120q313 17 336 88v748q0 110 88 140l24 4
h1524q91 0 128 -96v-1072q0 -51 -72 -88l-32 -8h-448q-56 0 -96 88l-4 60v828q-3 40 -80 92q-82 40 -140 40h-40q-114 0 -200 -128v-884q0 -51 -72 -88l-32 -8h-1896q-56 0 -96 88v1060q0 78 84 112z" />
    <glyph glyph-name="arabicalef" unicode="&#x627;" horiz-adv-x="844" 
d="M208 2167h428q55 0 96 -64q12 -14 12 -48v-1943q0 -88 -104 -112h-420q-96 0 -120 100v1971q34 96 108 96z" />
    <glyph glyph-name="beh" unicode="&#x628;" horiz-adv-x="2844" 
d="M216 0q-84 0 -116 88v1076q0 74 120 104h376q123 0 152 -96v-671q0 -198 196 -198h951q197 0 197 198v611q0 86 36 116q37 40 120 40h344q122 0 152 -96v-1076q0 -52 -80 -92l-36 -4h-2412zM1432 -144h52q102 0 216 -108q80 -103 80 -216q0 -192 -200 -296
q-50 -20 -112 -20h-12q-234 0 -312 248l-8 72q0 144 124 252q96 68 172 68z" />
    <glyph glyph-name="tehmarbuta" unicode="&#x629;" horiz-adv-x="1575" 
d="M719 975v-624q11 -68 64 -68h20q56 16 56 56v644q-15 60 -68 60q-56 0 -72 -68zM188 5q-41 12 -69 64q-12 14 -12 48v1020q0 96 100 124l40 4h1120q108 -27 108 -104v-1014q0 -142 -147 -152zM424 2027q200 0 300 -216l16 -88v-36q0 -144 -152 -256q-64 -44 -168 -44
q-191 0 -280 164q-40 64 -40 124v60q0 102 100 204q92 88 224 88zM1148 2027q182 0 288 -184q28 -60 28 -140q0 -188 -180 -288q-49 -28 -140 -28q-183 0 -276 156q-44 69 -44 164q0 182 172 284q68 36 152 36z" />
    <glyph glyph-name="teh" unicode="&#x62a;" horiz-adv-x="2844" 
d="M216 0q-84 0 -116 88v1076q0 74 120 104h376q123 0 152 -96v-671q0 -198 196 -198h951q197 0 197 198v611q0 86 36 116q37 40 120 40h344q122 0 152 -96v-1076q0 -52 -80 -92l-36 -4h-2412zM1060 1775q200 0 300 -216l16 -88v-36q0 -144 -152 -256q-64 -44 -168 -44
q-191 0 -280 164q-40 64 -40 124v60q0 102 100 204q92 88 224 88zM1784 1775q182 0 288 -184q28 -60 28 -140q0 -188 -180 -288q-49 -28 -140 -28q-183 0 -276 156q-44 69 -44 164q0 182 172 284q68 36 152 36z" />
    <glyph glyph-name="theh" unicode="&#x62b;" horiz-adv-x="2844" 
d="M216 0q-84 0 -116 88v1076q0 74 120 104h376q123 0 152 -96v-671q0 -198 196 -198h951q197 0 197 198v611q0 86 36 116q37 40 120 40h344q122 0 152 -96v-1076q0 -52 -80 -92l-36 -4h-2412zM1060 1775q200 0 300 -216l16 -88v-36q0 -144 -152 -256q-64 -44 -168 -44
q-191 0 -280 164q-40 64 -40 124v60q0 102 100 204q92 88 224 88zM1784 1775q182 0 288 -184q28 -60 28 -140q0 -188 -180 -288q-49 -28 -140 -28q-183 0 -276 156q-44 69 -44 164q0 182 172 284q68 36 152 36zM1421 2405q182 0 288 -184q28 -60 28 -140q0 -188 -180 -288
q-49 -28 -140 -28q-183 0 -276 156q-44 69 -44 164q0 182 172 284q68 36 152 36z" />
    <glyph glyph-name="jeem" unicode="&#x62c;" horiz-adv-x="1864" 
d="M1020 303v313h-652q-90 8 -188 104q-80 99 -80 196v336l8 8h1336q232 0 232 -216v-741h91v-303h-760q-263 0 -263 -256v-328q0 -66 60 -88q16 -8 44 -8h908l8 -8v-92l-8 -8h-1576q-80 7 -80 56v834v-110q0 4 1 10q0 301 268 301h651zM1259 -66h45q89 0 188 -93
q70 -89 70 -187q0 -167 -174 -257q-44 -18 -98 -18h-10q-204 0 -272 216l-7 62q0 125 108 219q84 58 150 58z" />
    <glyph glyph-name="hah" unicode="&#x62d;" horiz-adv-x="1864" 
d="M1020 303v313h-652q-90 8 -188 104q-80 99 -80 196v336l8 8h1336q232 0 232 -216v-741h91v-303h-760q-263 0 -263 -256v-328q0 -66 60 -88q16 -8 44 -8h908l8 -8v-92l-8 -8h-1576q-80 7 -80 56v834v-110q0 4 1 10q0 301 268 301h651z" />
    <glyph glyph-name="khah" unicode="&#x62e;" horiz-adv-x="1864" 
d="M1020 303v313h-652q-90 8 -188 104q-80 99 -80 196v336l8 8h1336q232 0 232 -216v-741h91v-303h-760q-263 0 -263 -256v-328q0 -66 60 -88q16 -8 44 -8h908l8 -8v-92l-8 -8h-1576q-80 7 -80 56v834v-110q0 4 1 10q0 301 268 301h651zM841 2036h52q102 0 216 -108
q80 -103 80 -216q0 -192 -200 -296q-50 -20 -112 -20h-12q-234 0 -312 248l-8 72q0 144 124 252q96 68 172 68z" />
    <glyph glyph-name="dal" unicode="&#x62f;" horiz-adv-x="1784" 
d="M1028 303v309l-288 -4h-520q-93 0 -120 100v436q0 76 96 112h1264q149 0 204 -104q20 -53 20 -104v-1048h-1583v7l-1 1v84l1 1v210h927z" />
    <glyph glyph-name="thal" unicode="&#x630;" horiz-adv-x="1784" 
d="M864 2178h52q102 0 216 -108q80 -103 80 -216q0 -192 -200 -296q-50 -20 -112 -20h-12q-234 0 -312 248l-8 72q0 144 124 252q96 68 172 68zM1028 303v309l-288 -4h-520q-93 0 -120 100v436q0 76 96 112h1264q149 0 204 -104q20 -53 20 -104v-1048h-1583v7l-1 1v84l1 1
v210h927z" />
    <glyph glyph-name="reh" unicode="&#x631;" horiz-adv-x="1308" 
d="M590 -2v1100q-31 187 173 167h337q108 -27 108 -104v-1524q0 -80 -108 -104h-992l-1 1h-7v303h345q144 0 145 161z" />
    <glyph glyph-name="zain" unicode="&#x632;" horiz-adv-x="1311" 
d="M863 1998h52q102 0 216 -108q80 -103 80 -216q0 -192 -200 -296q-50 -20 -112 -20h-12q-234 0 -312 248l-8 72q0 144 124 252q96 68 172 68zM590 -2v1100q-31 187 173 167h337q108 -27 108 -104v-1524q0 -80 -108 -104h-992l-1 1h-7v303h345q144 0 145 161z" />
    <glyph glyph-name="seen" unicode="&#x633;" horiz-adv-x="3980" 
d="M2169 303h203v855q0 71 96 108h444q67 0 108 -88l4 -64v-811h204v819q0 110 88 140l24 4h432q53 0 92 -60q16 -26 16 -40v-1068q0 -47 -68 -88l-36 -8h-229v-2h-1377v-374q0 -62 -96 -96h-1854q-90 0 -120 88v1543q0 58 88 100l44 4h388q128 -18 128 -120v-1314h774
l-2 1330q0 71 96 108h444q67 0 108 -88z" />
    <glyph glyph-name="sheen" unicode="&#x634;" horiz-adv-x="3980" 
d="M2853 2675h52q102 0 216 -108q80 -103 80 -216q0 -192 -200 -296q-50 -20 -112 -20h-12q-234 0 -312 248l-8 72q0 144 124 252q96 68 172 68zM2521 2027q200 0 300 -216l16 -88v-36q0 -144 -152 -256q-64 -44 -168 -44q-191 0 -280 164q-40 64 -40 124v60q0 102 100 204
q92 88 224 88zM3245 2027q182 0 288 -184q28 -60 28 -140q0 -188 -180 -288q-49 -28 -140 -28q-183 0 -276 156q-44 69 -44 164q0 182 172 284q68 36 152 36zM2169 303h203v855q0 71 96 108h444q67 0 108 -88l4 -64v-811h204v819q0 110 88 140l24 4h432q53 0 92 -60
q16 -26 16 -40v-1068q0 -47 -68 -88l-36 -8h-229v-2h-1377v-374q0 -62 -96 -96h-1854q-90 0 -120 88v1543q0 58 88 100l44 4h388q128 -18 128 -120v-1314h774l-2 1330q0 71 96 108h444q67 0 108 -88z" />
    <glyph glyph-name="sad" unicode="&#x635;" horiz-adv-x="4592" 
d="M2997 902v-617h848v601q0 58 -28 72l-48 7h-708q-64 0 -64 -63zM2169 303h176l3 853q0 73 96 108h1940q53 0 92 -60q16 -26 16 -40v-1068q0 -47 -63 -83v-13h-1433v-332q0 -124 -136 -124h-388q-128 13 -128 120v336h-174v-374q0 -62 -96 -96h-1854q-90 0 -120 88v1543
q0 58 88 100l44 4h388q128 -18 128 -120v-1314h774l-2 1330q0 71 96 108h444q67 0 108 -88z" />
    <glyph glyph-name="dad" unicode="&#x636;" horiz-adv-x="4592" 
d="M3373 2047h52q102 0 216 -108q80 -103 80 -216q0 -192 -200 -296q-50 -20 -112 -20h-12q-234 0 -312 248l-8 72q0 144 124 252q96 68 172 68zM2997 902v-617h848v601q0 58 -28 72l-48 7h-708q-64 0 -64 -63zM2169 303h176l3 853q0 73 96 108h1940q53 0 92 -60
q16 -26 16 -40v-1068q0 -47 -63 -83v-13h-1433v-332q0 -124 -136 -124h-388q-128 13 -128 120v336h-174v-374q0 -62 -96 -96h-1854q-90 0 -120 88v1543q0 58 88 100l44 4h388q128 -18 128 -120v-1314h774l-2 1330q0 71 96 108h444q67 0 108 -88z" />
    <glyph glyph-name="tah" unicode="&#x637;" horiz-adv-x="2752" 
d="M852 2228q108 -28 108 -108v-624q0 -85 -92 -116h-456q-84 22 -84 56q-14 0 -20 72v588q0 104 100 132h444zM960 955v-634l-4 -16h1048v621q0 68 -68 68h-916q-60 -6 -60 -39zM308 303v841q17 120 112 120l28 4h2064q107 0 140 -96v-1076q0 -53 -80 -92l-36 -4h-2436v303
h208z" />
    <glyph glyph-name="zah" unicode="&#x638;" horiz-adv-x="2752" 
d="M852 2228q108 -28 108 -108v-624q0 -85 -92 -116h-456q-84 22 -84 56q-14 0 -20 72v588q0 104 100 132h444zM852 2228q108 -28 108 -108v-624q0 -85 -92 -116h-456q-84 22 -84 56q-14 0 -20 72v588q0 104 100 132h444zM960 955v-634l-4 -16h1048v621q0 68 -68 68h-916
q-60 -6 -60 -39zM308 303v841q17 120 112 120l28 4h2064q107 0 140 -96v-1076q0 -53 -80 -92l-36 -4h-2436v303h208zM1361 2036h52q102 0 216 -108q80 -103 80 -216q0 -192 -200 -296q-50 -20 -112 -20h-12q-234 0 -312 248l-8 72q0 144 124 252q96 68 172 68z" />
    <glyph glyph-name="ain" unicode="&#x639;" horiz-adv-x="1864" 
d="M180 -792q-80 7 -80 56v724q0 81 116 112h128v4q-22 0 -44 68v1188q0 81 96 120h1164q53 0 100 -76l8 -36v-756l-8 -8h-596l-8 8v512q-8 88 -72 88q-72 -16 -72 -72l-1 -677q-2 -160 132 -160h721v-303h-1016v-337q0 -151 192 -151h823v-199l1 -1v-96l-1 -1v-7h-1583z
" />
    <glyph glyph-name="ghain" unicode="&#x63a;" horiz-adv-x="1864" 
d="M180 -792q-80 7 -80 56v724q0 81 116 112h128v4q-22 0 -44 68v1188q0 81 96 120h1164q53 0 100 -76l8 -36v-756l-8 -8h-596l-8 8v512q-8 88 -72 88q-72 -16 -72 -72l-1 -677q-2 -160 132 -160h721v-303h-1016v-337q0 -151 192 -151h823v-199l1 -1v-96l-1 -1v-7h-1583z
M951 2256h52q102 0 216 -108q80 -103 80 -216q0 -192 -200 -296q-50 -20 -112 -20h-12q-234 0 -312 248l-8 72q0 144 124 252q96 68 172 68z" />
    <glyph glyph-name="tatweel" unicode="&#x640;" horiz-adv-x="619" 
d="M0 0v303h619v-303h-619z" />
    <glyph glyph-name="feh" unicode="&#x641;" horiz-adv-x="2846" 
d="M1975 2236h52q102 0 216 -108q80 -103 80 -216q0 -192 -200 -296q-50 -20 -112 -20h-12q-234 0 -312 248l-8 72q0 144 124 252q96 68 172 68zM1950 1164v-530q11 -68 64 -68h20q60 11 60 80v526q-14 76 -72 76q-64 0 -72 -84zM791 303h1260q41 9 41 45v6h-606
q-72 0 -108 96v908q15 88 108 108h727q16 2 35 2h344q18 0 33 -2h13q37 0 70 -35q16 -15 26 -35l4 -6l1 -4q3 -7 5 -14v-9l2 -9v-992q0 -11 -2 -20v-246q0 -52 -80 -92l-36 -4h-2412q-84 0 -116 88v1276q0 74 120 104h376q123 0 152 -96v-1012q0 -47 43 -57z" />
    <glyph glyph-name="qaf" unicode="&#x642;" horiz-adv-x="2853" 
d="M2405 2226h52q102 0 216 -108q80 -103 80 -216q0 -192 -200 -296q-50 -20 -112 -20h-12q-234 0 -312 248l-8 72q0 144 124 252q96 68 172 68zM1675 2236h52q102 0 216 -108q80 -103 80 -216q0 -192 -200 -296q-50 -20 -112 -20h-12q-234 0 -312 248l-8 72q0 144 124 252
q96 68 172 68zM1950 1164v-530q11 -68 64 -68h20q60 11 60 80v526q-14 76 -72 76q-64 0 -72 -84zM791 303h1260q41 9 41 45v6h-606q-72 0 -108 96v908q15 88 108 108h727q16 2 35 2h344q18 0 33 -2h13q37 0 70 -35q16 -15 26 -35l4 -6l1 -4q3 -7 5 -14v-9l2 -9v-992
q0 -11 -2 -20v-246q0 -52 -80 -92l-36 -4h-2412q-84 0 -116 88v1276q0 74 120 104h376q123 0 152 -96v-1012q0 -47 43 -57z" />
    <glyph glyph-name="arabickaf" unicode="&#x643;" horiz-adv-x="2844" 
d="M1672 1382q152 -13 152 -28v-388l-8 -8h-152q-84 0 -112 -100v-20q18 -108 100 -108h192l8 -8v-320l-8 -8h-904l-8 8v316l8 8h248q-20 53 -20 172q0 285 256 424q83 44 240 60h8zM2092 303v1712q0 117 84 148l28 4h432q53 0 92 -60q16 -26 16 -40v-1963q0 -80 -108 -104
h-2428q-74 0 -108 92v1072q0 69 104 100l28 4h376q140 -17 140 -108v-857h1344z" />
    <glyph glyph-name="lam" unicode="&#x644;" horiz-adv-x="2000" 
d="M1252 -169v2211q0 71 96 108h444q67 0 108 -88v-2436q0 -62 -96 -96h-244v-3h-1151v3h-189q-90 0 -120 88v1076q0 58 88 100l44 4h388q128 -18 128 -120v-847h504z" />
    <glyph glyph-name="meem" unicode="&#x645;" horiz-adv-x="1764" 
d="M912 931v-600q0 -51 64 -60h8q57 0 68 72v576q0 63 -72 76q-57 0 -68 -64zM382 1263l10 4h1132q98 0 132 -80l8 -28v-1040q-15 -120 -120 -120h-635v-362q0 -80 -108 -104h-992l-1 1h-7v303h489l1 1261q-24 144 91 165z" />
    <glyph glyph-name="noon" unicode="&#x646;" horiz-adv-x="2270" 
d="M1112 807h46q89 0 200 -98q61 -96 61 -134l5 -57v-10q0 -113 -72 -191q-95 -93 -179 -93h-81q-70 6 -154 72q-92 96 -92 222q0 181 194 274zM1522 -169l-2 1330q0 71 96 108h444q67 0 108 -88l2 -1555q0 -62 -96 -96h-1854q-90 0 -120 88v1543q0 58 88 100l44 4h388
q128 -18 128 -120v-1314h774z" />
    <glyph glyph-name="heh" unicode="&#x647;" horiz-adv-x="1568" 
d="M712 965v-584q11 -68 64 -68h20q56 16 56 56v604q-15 60 -68 60q-56 0 -72 -68zM181 5q-41 12 -69 64q-12 14 -12 48v1020q0 96 100 124l40 4h1120q108 -27 108 -104v-1014q0 -142 -147 -152z" />
    <glyph glyph-name="waw" unicode="&#x648;" horiz-adv-x="1568" 
d="M712 955v-594q11 -68 64 -68h20q56 16 56 56v614q-15 60 -68 60q-56 0 -72 -68zM852 -163v164h-644q-59 0 -96 68q-12 14 -12 48v1020q0 96 100 124l40 4h1120q108 -27 108 -104v-1524q0 -80 -108 -104h-1252l-1 1h-7v303h752z" />
    <glyph glyph-name="alefmaksura" unicode="&#x649;" horiz-adv-x="3408" 
d="M2233 1269h969v-1q122 0 152 -96v-1076q0 -52 -80 -92l-36 -4h-2972q-84 0 -116 88v1076q0 74 120 104h376q123 0 152 -96v-671q0 -198 196 -198h1511q197 0 197 198v465h-1243l1 303q701 382 554 893l766 -1q-13 -568 -547 -892z" />
    <glyph glyph-name="yeh" unicode="&#x64a;" horiz-adv-x="3404" 
d="M2027 -144h52q102 0 216 -108q80 -103 80 -216q0 -192 -200 -296q-50 -20 -112 -20h-12q-234 0 -312 248l-8 72q0 144 124 252q96 68 172 68zM1297 -134h52q102 0 216 -108q80 -103 80 -216q0 -192 -200 -296q-50 -20 -112 -20h-12q-234 0 -312 248l-8 72q0 144 124 252
q96 68 172 68zM2183 1269h969v-1q122 0 152 -96v-1076q0 -52 -80 -92l-36 -4h-2972q-84 0 -116 88v1076q0 74 120 104h376q123 0 152 -96v-671q0 -198 196 -198h1511q197 0 197 198v465h-1243l1 303q701 382 554 893l766 -1q-13 -568 -547 -892z" />
    <glyph glyph-name="fathatan" unicode="&#x64b;" horiz-adv-x="408" 
d="M389 1675l-340 -193l17 91l340 193zM403 1842l-340 -193l17 91l340 193z" />
    <glyph glyph-name="dammatan" unicode="&#x64c;" horiz-adv-x="469" 
d="M409 1632q-6 -14 -19.5 -33.5t-32 -40t-40.5 -39.5t-45.5 -31t-47.5 -15t-46 8t-24 31.5t3 42t10.5 42t-2 32t-34.5 10.5t-86 -20q19 27 44.5 43.5t50.5 22t47 -1t34 -24.5t10.5 -48t-23.5 -72q46 20 85.5 44t71.5 62q-41 10 -60.5 31.5t-22 47.5t8 53t30 49.5t44 36
t49.5 12.5q21 -2 28 -24.5t6.5 -51t-6 -55.5t-8.5 -37l38 -12l-17 -76zM388 1793q-10 10 -23 10q-14 1 -22.5 -8.5t-8.5 -21.5q-2 -11 3 -19t14 -14t20.5 -11.5t24.5 -11.5q2 19 2 35q0 14 -2.5 26.5t-7.5 16.5v-2z" />
    <glyph glyph-name="kasratan" unicode="&#x64d;" horiz-adv-x="408" 
d="M405 -148l-340 -193l17 91l340 193zM378 -316l-340 -193l17 91l340 193z" />
    <glyph glyph-name="fatha" unicode="&#x64e;" horiz-adv-x="408" 
d="M389 1675l-340 -193l17 91l340 193z" />
    <glyph glyph-name="damma" unicode="&#x64f;" horiz-adv-x="414" 
d="M366 1664q-11 -23 -37.5 -52.5t-62.5 -55t-78.5 -42.5t-85.5 -15q-29 2 -47.5 3t-28.5 2t-12.5 1.5t-0.5 1.5q61 25 105.5 43t79 36t62.5 39.5t56 54.5q-47 11 -69 34t-25.5 51t9 57.5t34 53.5t49.5 38.5t56 13.5q16 -1 25 -12.5t12.5 -29t2.5 -39t-3.5 -41.5t-6.5 -36.5
t-7 -24.5l44 -13l-19 -80zM341 1841q-5 6 -12 8t-12 2q-17 2 -27 -8.5t-11 -24.5q-2 -25 20 -37t51 -23q2 20 2 38q0 15 -2 28.5t-9 18.5v-2z" />
    <glyph glyph-name="kasra" unicode="&#x650;" horiz-adv-x="408" 
d="M395 -148l-340 -193l17 91l340 193z" />
    <glyph glyph-name="shadda" unicode="&#x651;" horiz-adv-x="425" 
d="M398 1823q11 -17 17.5 -36t11.5 -38q6 -33 3 -67t-15 -62t-33 -45.5t-51 -17.5q-25 0 -37.5 9t-27.5 23q-6 -10 -15 -23t-22 -25t-31 -21t-40 -11q-35 -3 -56 10t-31 35t-11.5 49.5t2 53.5t10.5 47.5t14 31.5q0 -3 5 1t11.5 9t11.5 8.5t5 0.5q-8 -20 -13.5 -46.5t-3 -50
t14 -39.5t37.5 -15q29 0 44.5 16t23.5 37.5t12.5 44.5t12.5 38q1 -3 5 0t9 7.5t9.5 8t5.5 0.5q-8 -29 -2.5 -54t19.5 -40t35.5 -18t46.5 14q6 9 5.5 22t-4.5 26.5t-11 27t-14 23.5q13 18 24.5 34t22.5 32z" />
    <glyph glyph-name="sukun" unicode="&#x652;" horiz-adv-x="328" 
d="M347 1696q5 -34 -10 -71.5t-41 -87.5v1q0 1 1 2l-3 -5q-24 -14 -61.5 -26.5t-74 -15t-65 11t-34.5 51.5q-5 33 3.5 75.5t27 81.5t46 67t59.5 33q28 4 54 -6.5t46.5 -28.5t34.5 -40.5t17 -41.5zM283 1628q-3 14 -13.5 30t-25 29.5t-31.5 22t-35 5.5q-30 -5 -44 -27
t-11 -45q3 -22 21 -32.5t42 -11t50 6.5t46 21zM296 1537q0 -1 -1 -1zM295 1536q0 -1 -1 -1z" />
    <glyph glyph-name="arabicindicdigitzero" unicode="&#x660;" horiz-adv-x="844" 
d="M208 644h428q55 0 96 -64q12 -14 12 -48v-420q0 -88 -104 -112h-420q-96 0 -120 100v448q34 96 108 96z" />
    <glyph glyph-name="arabicindicdigitone" unicode="&#x661;" horiz-adv-x="844" 
d="M208 2164h428q55 0 96 -64q12 -14 12 -48v-1940q0 -88 -104 -112h-420q-96 0 -120 100v1968q34 96 108 96z" />
    <glyph glyph-name="arabicindicdigittwo" unicode="&#x662;" horiz-adv-x="1484" 
d="M744 1518v-1406q0 -88 -104 -112h-420q-96 0 -120 100v1968q34 96 108 96h428q10 0 20 -2l616 1q88 0 112 -104v-420q0 -96 -100 -120z" />
    <glyph glyph-name="arabicindicdigitthree" unicode="&#x663;" horiz-adv-x="2389" 
d="M744 1180v-1068q0 -88 -104 -112h-420q-96 0 -120 100v1968q34 96 108 96h428q55 0 96 -64q12 -14 12 -48v-622h117v626q0 71 96 108h444q67 0 108 -88l4 -64l-1 -582h125v590q0 110 88 140l24 4h432q53 0 92 -60q16 -26 16 -40v-784q-29 -87 -130 -100h-1415z" />
    <glyph glyph-name="arabicindicdigitfour" unicode="&#x664;" horiz-adv-x="1747" 
d="M1523 2155l36 -4q88 -37 88 -112v-420l-4 -24q-30 -92 -124 -92h-493l308 -427l-285 -433h490q83 0 108 -116v-432q-33 -100 -116 -100h-890v5h-421q-96 0 -120 100v559l618 412l-618 437v540l17 48q17 48 142 58z" />
    <glyph glyph-name="arabicindicdigitfive" unicode="&#x665;" horiz-adv-x="1568" 
d="M712 1855v-1514q11 -68 64 -68h20q56 16 56 56v1534q-15 60 -68 60q-56 0 -72 -68zM181 5q-41 12 -69 64q-12 14 -12 48v1920q0 96 100 124l40 4h1120q108 -27 108 -104v-1914q0 -142 -147 -152z" />
    <glyph glyph-name="arabicindicdigitsix" unicode="&#x666;" horiz-adv-x="1544" 
d="M200 1519q-100 24 -100 120v420q24 104 112 104l676 -1q10 2 20 2h428q74 0 108 -96v-1968q-24 -100 -120 -100h-420q-104 24 -104 112v1406z" />
    <glyph glyph-name="arabicindicdigitseven" unicode="&#x667;" horiz-adv-x="1780" 
d="M1572 2160q67 0 108 -88v-1976q0 -62 -96 -96h-1364q-90 0 -120 88v1966q0 58 88 100l44 4h388q128 -18 128 -120v-1686q0 -43 64 -52h156q64 0 64 60v1692q0 71 96 108h444z" />
    <glyph glyph-name="arabicindicdigiteight" unicode="&#x668;" horiz-adv-x="1780" 
d="M1128 0q-96 37 -96 108v1702q0 60 -64 60h-156q-64 -9 -64 -52v-1696q0 -102 -128 -120h-388l-44 4q-88 42 -88 100v1966q30 88 120 88h1364q96 -34 96 -96v-1976q-41 -88 -108 -88h-444z" />
    <glyph glyph-name="arabicindicdigitnine" unicode="&#x669;" horiz-adv-x="1574" 
d="M712 1923v-744q11 -68 64 -68h20q56 16 56 56v764q-15 60 -68 60q-56 0 -72 -68zM923 2163q7 1 15 1h428q55 0 96 -64q12 -14 12 -48v-1940q0 -88 -104 -112h-420q-96 0 -120 100v797l-649 6q-41 12 -69 64q-12 14 -12 48v1020q0 96 100 124l40 4h683z" />
    <glyph glyph-name="arabicpercentsign" unicode="&#x66a;" horiz-adv-x="829" 
d="M719 1446l-419 -1391l-238 -127l418 1391zM640 361q28 0 53 -11t43.5 -29.5t29.5 -44t11 -53.5t-11 -53t-29.5 -43.5t-43.5 -29t-53 -10.5t-52.5 10.5t-43 29t-29 43.5t-10.5 53t10.5 53.5t29 44t43 29.5t52.5 11zM147 1265q28 0 53 -10.5t43.5 -29t29 -43.5t10.5 -53
t-10.5 -53t-29 -43.5t-43.5 -29.5t-53 -11t-53 11t-43.5 29.5t-29.5 43.5t-11 53t11 53t29.5 43.5t43.5 29t53 10.5z" />
    <glyph glyph-name="arabicfivepointedstar" unicode="&#x66d;" horiz-adv-x="815" 
d="M374 1445h68l17 -213l163 139l49 -49l-140 -162l214 -18v-68l-214 -17l140 -163l-49 -48l-163 139l-17 -214h-68l-17 214l-164 -139l-47 48l139 163l-214 17v68l214 18l-139 162l47 49l164 -139z" />
    <glyph glyph-name="bullet_def" unicode="&#x6f9;" horiz-adv-x="1033" 
d="M93 1109h934v-934h-934v934zM223 304h675v675h-675v-675z" />
    <glyph glyph-name="zeronojoin" unicode="&#x200c;" horiz-adv-x="45" 
d="M35 -80h-25v1631h25v-1631z" />
    <glyph glyph-name="zerojoin" unicode="&#x200d;" horiz-adv-x="45" 
d="M148 1427l-16 -16l-97 96v-1587h-25v1586l-96 -95l-16 16l109 109l-109 108l16 16l109 -108l109 108l16 -16l-109 -108z" />
    <glyph glyph-name="lefttoright" unicode="&#x200e;" horiz-adv-x="45" 
d="M291 1537q-32 -33 -62.5 -63.5l-62.5 -62.5l-17 17l97 97h-213v-1605h-25v1631h234l-93 93l17 17z" />
    <glyph glyph-name="righttoleft" unicode="&#x200f;" horiz-adv-x="45" 
d="M37 -80h-25v1605h-213l97 -97l-17 -17q-32 32 -62.5 63t-62.5 63l125 124l17 -17l-93 -93h234v-1631z" />
    <glyph glyph-name="endash" unicode="&#x2013;" 
d="M0 745h990v-192h-990v192z" />
    <glyph glyph-name="quotedash" unicode="&#x2014;" horiz-adv-x="1782" 
d="M0 745h1782v-192h-1782v192z" />
    <glyph glyph-name="quoteleft" unicode="&#x2018;" horiz-adv-x="390" 
d="M251 1541l11 -384q0 -19 -10.5 -33t-27 -23t-37 -13.5t-39.5 -4.5l-68 363q0 19 7.5 36.5t20 30.5t29.5 20.5t37 7.5h77z" />
    <glyph glyph-name="quoteright" unicode="&#x2019;" horiz-adv-x="390" 
d="M191 1541q20 0 37 -7.5t30 -20.5t20 -30.5t7 -36.5l-68 -363q-19 0 -39 4.5t-36.5 13.5t-27 23t-10.5 33l10 384h77z" />
    <glyph glyph-name="quotesinglbase" unicode="&#x201a;" horiz-adv-x="495" 
d="M123 263v113h125h124v-169q0 -134 -59.5 -210.5t-183.5 -102.5v90q79 24 107 72q18 33 24 94h-63h-74v113z" />
    <glyph glyph-name="quotedblleft" unicode="&#x201c;" horiz-adv-x="620" 
d="M251 1541l11 -384q0 -19 -10.5 -33t-27 -23t-37 -13.5t-39.5 -4.5l-68 363q0 19 7.5 36.5t20 30.5t29.5 20.5t37 7.5h77zM501 1541l11 -384q0 -19 -10.5 -33t-27 -23t-37 -13.5t-39.5 -4.5l-68 363q0 19 7.5 36.5t20 30.5t29.5 20.5t37 7.5h77z" />
    <glyph glyph-name="quotedblright" unicode="&#x201d;" horiz-adv-x="620" 
d="M441 1541q19 0 36.5 -7.5t30 -20.5t20 -30.5t7.5 -36.5l-68 -363q-19 0 -39.5 4.5t-37 13.5t-27 23t-10.5 33l11 384h77zM191 1541q19 0 36.5 -7.5t30 -20.5t20 -30.5t7.5 -36.5l-68 -363q-20 0 -40 4.5t-36 13.5t-26.5 23t-10.5 33l10 384h77z" />
    <glyph glyph-name="bullet" unicode="&#x2022;" horiz-adv-x="613" 
d="M303 820q127 0 215 -88t88 -217q0 -127 -88 -214.5t-215 -87.5q-128 0 -216 87.5t-88 214.5q0 129 88 217t216 88v0z" />
    <glyph glyph-name="trademark" unicode="&#x2122;" horiz-adv-x="1782" 
d="M283 700v576h-205v76v77h610v-77v-76h-205v-576h-100h-100zM1013 700h-93h-94v729h135h136l170 -605l165 605h136h135v-729h-93h-94v664l-176 -664h-75h-75l-177 661v-661z" />
    <glyph glyph-name="fathalow" unicode="&#xe820;" horiz-adv-x="408" 
d="M401 1225l-340 -193l17 91l340 193z" />
    <glyph glyph-name="dammalow" unicode="&#xe821;" horiz-adv-x="414" 
d="M346 1204q-11 -23 -37.5 -52.5t-62.5 -55t-78.5 -42.5t-85.5 -15q-29 2 -47.5 3t-28.5 2t-12.5 1.5t-0.5 1.5q61 25 105.5 43t79 36t62.5 39.5t56 54.5q-47 11 -69 34t-25.5 51t9 57.5t34 53.5t49.5 38.5t56 13.5q16 -1 25 -12.5t12.5 -29t2.5 -39t-3.5 -41.5t-6.5 -36.5
t-7 -24.5l44 -13l-19 -80zM321 1381q-5 6 -12 8t-12 2q-17 2 -27 -8.5t-11 -24.5q-2 -25 20 -37t51 -23q2 20 2 38q0 15 -2 28.5t-9 18.5v-2z" />
    <glyph glyph-name="sukunlow" unicode="&#xe822;" horiz-adv-x="328" 
d="M344 1249q5 -34 -10 -71.5t-41 -87.5v1q0 1 1 2l-3 -5q-24 -14 -61.5 -26.5t-74 -15t-65 11t-34.5 51.5q-5 33 3.5 75.5t27 81.5t46 67t59.5 33q28 4 54 -6.5t46.5 -28.5t34.5 -40.5t17 -41.5zM280 1181q-3 14 -13.5 30t-25 29.5t-31.5 22t-35 5.5q-30 -5 -44 -27
t-11 -45q3 -22 21 -32.5t42 -11t50 6.5t46 21zM293 1090q0 -1 -1 -1zM292 1089q0 -1 -1 -1z" />
    <glyph glyph-name="fathatanlow" unicode="&#xe823;" horiz-adv-x="408" 
d="M391 1222l-340 -193l17 91l340 193zM405 1389l-340 -193l17 91l340 193z" />
    <glyph glyph-name="dammatanlow" unicode="&#xe824;" horiz-adv-x="469" 
d="M408 1207q-6 -14 -19.5 -33.5t-32 -40t-40.5 -39.5t-45.5 -31t-47.5 -15t-46 8t-24 31.5t3 42t10.5 42t-2 32t-34.5 10.5t-86 -20q19 27 44.5 43.5t50.5 22t47 -1t34 -24.5t10.5 -48t-23.5 -72q46 20 85.5 44t71.5 62q-41 10 -60.5 31.5t-22 47.5t8 53t30 49.5t44 36
t49.5 12.5q21 -2 28 -24.5t6.5 -51t-6 -55.5t-8.5 -37l38 -12l-17 -76zM387 1368q-10 10 -23 10q-14 1 -22.5 -8.5t-8.5 -21.5q-2 -11 3 -19t14 -14t20.5 -11.5t24.5 -11.5q2 19 2 35q0 14 -2.5 26.5t-7.5 16.5v-2z" />
    <glyph glyph-name="shaddalow" unicode="&#xe825;" horiz-adv-x="425" 
d="M396 1364q11 -17 17.5 -36t11.5 -38q6 -33 3 -67t-15 -62t-33 -45.5t-51 -17.5q-25 0 -37.5 9t-27.5 23q-6 -10 -15 -23t-22 -25t-31 -21t-40 -11q-35 -3 -56 10t-31 35t-11.5 49.5t2 53.5t10.5 47.5t14 31.5q0 -3 5 1t11.5 9t11.5 8.5t5 0.5q-8 -20 -13.5 -46.5t-3 -50
t14 -39.5t37.5 -15q29 0 44.5 16t23.5 37.5t12.5 44.5t12.5 38q1 -3 5 0t9 7.5t9.5 8t5.5 0.5q-8 -29 -2.5 -54t19.5 -40t35.5 -18t46.5 14q6 9 5.5 22t-4.5 26.5t-11 27t-14 23.5q13 18 24.5 34t22.5 32z" />
    <glyph glyph-name="kasralow" unicode="&#xe826;" horiz-adv-x="408" 
d="M395 -148l-340 -193l17 91l340 193z" />
    <glyph glyph-name="kasratanlow" unicode="&#xe827;" horiz-adv-x="408" 
d="M405 -148l-340 -193l17 91l340 193zM378 -316l-340 -193l17 91l340 193z" />
    <glyph glyph-name="shaddawithfathaisolatedlow" unicode="&#xe828;" horiz-adv-x="425" 
d="M397 1372q5 -8 5.5 -12.5t-0.5 -8.5t-1.5 -8.5t3.5 -13.5q12 -32 14.5 -66t-5 -63.5t-25.5 -50.5t-47 -26q-25 -4 -39 3t-31 18q-4 -11 -10.5 -25.5t-18 -28.5t-27 -25.5t-37.5 -16.5q-34 -9 -56 -3.5t-35 20t-17.5 35t-4.5 40.5q0 21 4.5 39.5t9.5 29.5q0 -3 4.5 1.5
t9.5 10.5t10 10.5t5 1.5q-5 -21 -7 -40t2 -32.5t17 -19t38 -0.5q28 5 41 23t17.5 40.5t5.5 46t6 39.5q1 -3 4.5 1t7.5 9t8 9.5t6 1.5q-3 -30 6.5 -54t26 -36.5t38 -11.5t42.5 21q4 10 2 23t-8.5 25.5t-15.5 24.5t-18 21q5 10 14.5 15.5t20 10t20 9.5t15.5 13zM400 1452
l-340 -193l17 91l340 193z" />
    <glyph glyph-name="shaddawithdammaisolatedlow" unicode="&#xe829;" horiz-adv-x="425" 
d="M381 1402q13 -15 22.5 -33t17.5 -36q11 -32 13 -66t-6 -63.5t-26.5 -50t-47.5 -24.5q-25 -4 -38.5 3t-30.5 19q-4 -11 -11 -25t-18.5 -28t-27.5 -25.5t-38 -16.5q-34 -8 -56.5 1.5t-36 29.5t-19 47.5t-6 54t3.5 48.5t9 33q0 -3 5 1.5t10.5 10.5t10 10t4.5 1
q-5 -21 -6.5 -47.5t4 -49.5t19.5 -37.5t40 -9.5q28 5 41 23t18 40.5t6.5 45.5t6.5 39q1 -3 4.5 1t8 9t8 9.5t5.5 1.5q-3 -30 6 -54t25.5 -37t38 -12.5t43.5 20.5q4 10 2 23t-8.5 26t-15 25t-17.5 21q11 20 19.5 37.5t17.5 34.5zM356 1471q-11 -18 -37 -41t-61.5 -43.5
t-76.5 -34t-83 -11.5q-57 4 -75 4q-17 0 -12 2q60 20 103 34t77 28t61.5 31t54.5 43q-46 8 -67.5 26.5t-25 40.5t8.5 45t33 42t48.5 30.5t55.5 10.5q23 -1 31 -20t7.5 -43.5t-6.5 -47.5t-10 -33l43 -10l-19 -63zM331 1610q-5 5 -11.5 6.5t-11.5 1.5q-17 1 -26.5 -7
t-10.5 -19q-2 -20 19 -29.5t50 -17.5q2 16 2 30q0 11 -2 22t-9 14v-1z" />
    <glyph glyph-name="shaddawithfathatanisolatedlow" unicode="&#xe82a;" horiz-adv-x="425" 
d="M412 1701q0 -47 -8 -65t-41 -37l-289 -166q0 45 12 65t54 44zM412 1550q0 -47 -8 -64.5t-41 -36.5l-289 -166q0 45 12 65q12 17 54 42zM425 1277q0 -76 -29.5 -121t-75.5 -45q-21 0 -64 21q-38 -87 -108 -87q-78 0 -78 109q0 29 22 101l23 4q0 -111 39 -111q29 0 57.5 48
t32.5 114l19 6q24 -98 61 -98q24 0 44 42.5t20 104.5l22 11q15 -51 15 -99z" />
    <glyph glyph-name="shaddawithdammatanisolatedlow" unicode="&#xe82b;" horiz-adv-x="468" 
d="M393 1404q13 -15 22.5 -33t17.5 -36q11 -32 13 -66t-6 -63.5t-26.5 -50t-47.5 -24.5q-25 -4 -38.5 3t-30.5 19q-4 -11 -11 -25t-18.5 -28t-27.5 -25.5t-38 -16.5q-34 -8 -56.5 1.5t-36 29.5t-19 47.5t-6 54t3.5 48.5t9 33q0 -3 5 1.5t10.5 10.5t10 10t4.5 1
q-5 -21 -6.5 -47.5t4 -49.5t19.5 -37.5t40 -9.5q28 5 41 23t18 40.5t6.5 45.5t6.5 39q1 -3 4.5 1t8 9t8 9.5t5.5 1.5q-3 -30 6 -54t25.5 -37t38 -12.5t43.5 20.5q4 10 2 23t-8.5 26t-15 25t-17.5 21q11 20 19.5 37.5t17.5 34.5zM422 1486q-7 -12 -21 -28.5t-33 -34t-42 -33
t-48 -26t-50 -13t-48 6.5q-23 10 -25 27t3 36t11 36t-2 26.5t-36 9t-91 -17.5q20 23 46.5 37.5t53 18.5t49.5 -1.5t35.5 -20.5t11 -40.5t-24.5 -61.5q48 17 89.5 38t75.5 53q-43 9 -63 27t-23.5 40t8 45t31.5 41.5t46 30t52 10.5q22 -2 29.5 -21t7 -43t-6 -46.5t-9.5 -31.5
l40 -10l-18 -65zM400 1623q-5 5 -12 6.5t-12 1.5q-14 1 -23.5 -7t-9.5 -18q-2 -10 3.5 -16.5t14.5 -11.5t21.5 -9.5t25.5 -9.5q2 17 2 30q0 11 -2 21.5t-8 14.5v-2z" />
    <glyph glyph-name="shaddawithkasraisolatedlow" unicode="&#xe82c;" horiz-adv-x="425" 
d="M375 1606q12 -15 21.5 -33.5t16.5 -36.5q10 -32 11 -66t-7.5 -63t-27.5 -49t-48 -24q-25 -3 -38.5 4t-30.5 20q-4 -11 -11.5 -25t-19 -27.5t-28 -24.5t-38.5 -16q-34 -7 -56.5 3t-35 31t-17.5 48t-4.5 53.5t4.5 49t10 32.5q0 -3 4.5 1.5l10.5 10.5t10.5 10t4.5 1
q-6 -21 -8 -48t3 -50t18.5 -37.5t39.5 -10.5q29 4 42.5 21t19 39.5t7 46t7.5 39.5q1 -3 5 0.5t8.5 9t8 9.5t5.5 1q-4 -29 4 -53.5t24 -38t37 -13.5q22 0 45 20q5 10 3 22.5t-8 25.5t-14.5 25.5t-16.5 21.5q11 20 20 37t19 34zM412 1224l-340 -193l17 91l340 193z" />
    <glyph glyph-name="shaddawithkasratanisolatedlow" unicode="&#xe82d;" horiz-adv-x="425" 
d="M374 1619q12 -15 21.5 -33.5t16.5 -36.5q10 -32 11 -66t-7.5 -63t-27.5 -49t-48 -24q-25 -3 -38.5 4t-30.5 20q-4 -11 -11.5 -25t-19 -27.5t-28 -24.5t-38.5 -16q-34 -7 -56.5 3t-35 31t-17.5 48t-4.5 53.5t5 49t9.5 32.5q0 -3 4.5 1.5l10.5 10.5t10.5 10t4.5 1
q-6 -21 -8 -48t3 -50t18.5 -37.5t39.5 -10.5q29 4 42.5 21t19 39.5t7 46t7.5 39.5q1 -3 5 0.5t8.5 9t8 9.5t5.5 1q-4 -29 4 -53.5t24 -38t37 -13.5q22 0 45 20q5 10 3 22.5t-8 25.5t-14.5 25.5t-16.5 21.5q11 20 20 37t19 34zM395 1253l-350 -141l33 75l350 141zM385 1148
l-350 -141l33 75l350 141z" />
    <glyph glyph-name="fathaonhamza" unicode="&#xe832;" horiz-adv-x="408" 
d="M394 1426q-97 -51 -192 -101.5t-192 -102.5q5 23 8 38.5t7 38.5q99 52 191.5 101.5t191.5 102.5z" />
    <glyph glyph-name="fathatanonhamza" unicode="&#xe833;" horiz-adv-x="408" 
d="M389 1171q-97 -51 -192 -101.5t-192 -102.5q5 23 8 38.5t7 38.5q99 52 191.5 101.5t191.5 102.5z" />
    <glyph glyph-name="sukunonhamza" unicode="&#xe834;" horiz-adv-x="566" 
d="M268 1588q6 -33 -11 -74t-44 -93q-14 -8 -32.5 -16t-39.5 -15t-43 -11t-42 -4q-32 0 -57.5 14t-30.5 48q-5 35 4 80.5t28.5 86.5t48 71.5t62.5 35.5q28 4 55 -6.5t48.5 -29.5t36 -42.5t17.5 -44.5zM218 1512q-4 17 -17 37.5t-31 38t-39 27.5t-42 7q-19 -3 -33 -12.5
t-23 -22t-12 -27.5t-1 -29q5 -30 29.5 -43.5t56.5 -13.5z" />
    <glyph glyph-name="dammaonhamza" unicode="&#xe835;" horiz-adv-x="420" 
d="M365 1288q11 -17 17.5 -36t11.5 -38q6 -33 3 -67t-15 -62t-33 -45.5t-51 -17.5q-25 0 -37.5 9t-27.5 23q-6 -10 -15 -23t-22 -25t-31 -21t-40 -11q-35 -3 -56 10t-31 35t-11.5 49.5t2 53.5t10.5 47.5t14 31.5q0 -3 5 1t11.5 9t11.5 8.5t5 0.5q-8 -20 -13.5 -46.5t-3 -50
t14 -39.5t37.5 -15q29 0 44.5 16t23.5 37.5t12.5 44.5t12.5 38q1 -3 5 0t9 7.5t9.5 8t5.5 0.5q-8 -29 -2.5 -54t19.5 -40t35.5 -18t46.5 14q6 9 5.5 22t-4.5 26.5t-11 27t-14 23.5q13 18 24.5 34t22.5 32z" />
    <glyph glyph-name="dammatanonhamza" unicode="&#xe836;" horiz-adv-x="381" 
d="M297 1715q11 -17 17.5 -36t11.5 -38q6 -33 3 -67t-15 -62t-33 -45.5t-51 -17.5q-25 0 -37.5 9t-27.5 23q-6 -10 -15 -23t-22 -25t-31 -21t-40 -11q-35 -3 -56 10t-31 35t-11.5 49.5t2 53.5t10.5 47.5t14 31.5q0 -3 5 1t11.5 9t11.5 8.5t5 0.5q-8 -20 -13.5 -46.5t-3 -50
t14 -39.5t37.5 -15q29 0 44.5 16t23.5 37.5t12.5 44.5t12.5 38q1 -3 5 0t9 7.5t9.5 8t5.5 0.5q-8 -29 -2.5 -54t19.5 -40t35.5 -18t46.5 14q6 9 5.5 22t-4.5 26.5t-11 27t-14 23.5q13 18 24.5 34t22.5 32z" />
    <glyph glyph-name="ornateleftparenthesis" unicode="&#xfd3e;" horiz-adv-x="593" 
d="M112 -52v1640h439v-172h-216v-1297h216v-171h-439z" />
    <glyph glyph-name="ornaterightparenthesis" unicode="&#xfd3f;" horiz-adv-x="593" 
d="M481 -52h-438v171h215v1297h-215v172h438v-1640z" />
    <glyph glyph-name="zerowidthnobreakspace" unicode="&#xfeff;" horiz-adv-x="744" 
 />
    <glyph glyph-name="agrave" unicode="&#xe0;" 
d="M343 126q-132 0 -212 75t-80 198q0 129 72.5 207t210.5 98l165 23q64 9 107 29q18 9 28 31.5t7 46.5q-5 40 -41 62q-42 27 -122 27q-72 0 -112 -34.5t-42 -98.5h-240q8 166 113.5 249t308.5 83q177 0 279 -74.5t102 -203.5v-529q0 -63 10.5 -89t42.5 -40v-1v-34h-135
h-135q-17 57 -22 112l-1 2q-117 -139 -304 -139zM643 500v108q-44 -24 -115 -39l-92 -17q-65 -12 -99 -44.5t-34 -82.5q0 -57 30.5 -89t84.5 -32q121 0 192 84q14 17 23 49q10 32 10 63zM429 1227l-261 258h273l168 -258h-180z" />
    <glyph glyph-name="aacute" unicode="&#xe1;" 
d="M343 126q-132 0 -212 75t-80 198q0 129 72.5 207t210.5 98l165 23q64 9 107 29q18 9 28 31.5t7 46.5q-5 40 -41 62q-42 27 -122 27q-72 0 -112 -34.5t-42 -98.5h-240q8 166 113.5 249t308.5 83q177 0 279 -74.5t102 -203.5v-529q0 -63 10.5 -89t42.5 -40v-1v-34h-135
h-135q-17 57 -22 112l-1 2q-117 -139 -304 -139zM643 500v108q-44 -24 -115 -39l-92 -17q-65 -12 -99 -44.5t-34 -82.5q0 -57 30.5 -89t84.5 -32q121 0 192 84q14 17 23 49q10 32 10 63zM319 1227l191 258h273l-284 -258h-180z" />
    <glyph glyph-name="egrave" unicode="&#xe8;" 
d="M491 126q-216 0 -333 133t-117 379q0 227 119 355.5t331 128.5q216 0 333 -131t117 -373q2 -28 -4 -56h-645q9 -113 50 -168q52 -70 174 -70q56 0 104.5 32t58.5 78h254q-33 -145 -150 -226.5t-292 -81.5zM681 721q-8 85 -45 133q-48 63 -149 63q-96 0 -147 -74
q-31 -47 -45 -122h386zM444 1227l-261 258h273l168 -258h-180z" />
    <glyph glyph-name="eacute" unicode="&#xe9;" 
d="M491 126q-216 0 -333 133t-117 379q0 227 119 355.5t331 128.5q216 0 333 -131t117 -373q2 -28 -4 -56h-645q9 -113 50 -168q52 -70 174 -70q56 0 104.5 32t58.5 78h254q-33 -145 -150 -226.5t-292 -81.5zM681 721q-8 85 -45 133q-48 63 -149 63q-96 0 -147 -74
q-31 -47 -45 -122h386zM403 1227l168 258h273l-261 -258h-180z" />
    <glyph glyph-name="ecircumflex" unicode="&#xea;" 
d="M491 126q-216 0 -333 133t-117 379q0 227 119 355.5t331 128.5q216 0 333 -131t117 -373q2 -28 -4 -56h-645q9 -113 50 -168q52 -70 174 -70q56 0 104.5 32t58.5 78h254q-33 -145 -150 -226.5t-292 -81.5zM681 721q-8 85 -45 133q-48 63 -149 63q-96 0 -147 -74
q-31 -47 -45 -122h386zM620 1485l202 -258h-200l-113 145l-113 -145h-200l202 258h111h111z" />
    <glyph glyph-name="ocircumflex" unicode="&#xf4;" horiz-adv-x="1088" 
d="M545 126q-222 0 -353 133t-131 359q0 231 131 367.5t353 136.5q223 0 353.5 -136.5t130.5 -367.5q0 -226 -130.5 -359t-353.5 -133zM545 334q111 0 169.5 73.5t58.5 213.5q0 143 -58.5 217.5t-169.5 74.5q-112 0 -169.5 -74.5t-57.5 -217.5q0 -140 57.5 -213.5
t169.5 -73.5zM656 1485l202 -258h-200l-113 145l-113 -145h-201l202 258h112h111z" />
    <glyph glyph-name="nonbreakingspace" unicode="&#xb7;" horiz-adv-x="1082" 
d="M549 98l-198 219l198 199l201 -199zM1025 581l-214 -205l-198 205l198 198zM549 1056l196 -215l-196 -198l-198 198zM74 581l212 198l198 -198l-198 -198z" />
    <glyph glyph-name="dagger" unicode="&#xb0;" horiz-adv-x="1024" 
d="M509 1094l456 -457l-456 -456l-457 456zM128 637l381 -380l380 380l-380 381zM509 855l217 -218l-217 -217l-217 217z" />
    <glyph glyph-name="periodcentered" unicode="&#xba;" horiz-adv-x="983" 
d="M253 1047h454l114 -197l113 -196l-113 -197l-114 -197h-454l-114 197l-113 197l113 196zM298 968l-182 -314l91 -158l91 -157h364l90 157l91 158l-91 157l-90 157h-364zM361 859h238l59 -102l59 -103l-118 -206h-238l-118 206l59 103z" />
    <glyph glyph-name="daggerdbl" unicode="&#xb1;" horiz-adv-x="901" 
d="M450 1043l201 -146l201 -145l-77 -237l-76 -236h-497l-77 236l-77 237l201 145zM592 430l141 103l-54 167l-54 166h-350l-54 -166l-54 -167l142 -103l141 -102zM528 727l79 -56l-31 -92l-29 -92h-193l-60 184l78 56l78 57z" />
    <glyph glyph-name="questiondown" unicode="&#xbf;" horiz-adv-x="774" 
d="M77 979h675v-675h-675v675z" />
    <glyph glyph-name="asciicircum" unicode="^" horiz-adv-x="1041" 
d="M611 1391l319 -663h-198l-212 464l-211 -464h-199l320 663h90h91z" />
  </font>
</defs>
</svg>
